<?xml version="1.0" encoding="utf-8"?>
<!-- Generator: Adobe Illustrator 22.1.0, SVG Export Plug-In . SVG Version: 6.00 Build 0)  -->
<svg version="1.1" id="Layer_1" xmlns="http://www.w3.org/2000/svg" xmlns:xlink="http://www.w3.org/1999/xlink" x="0px" y="0px"
	 viewBox="0 0 1000 1000" style="enable-background:new 0 0 1000 1000;" xml:space="preserve">
<style type="text/css">
	.st0{fill:#F5F5F5;}
</style>
<g>
	<path class="st0" d="M693.1,374.8c19-23.7,43-39.7,71.1-50.6c45.1-17.6,91.9-20.8,139.5-19.8c9.6,0.2,14.3,4.4,14,15
		c-0.7,27.4-1.2,54.8-0.4,82.2c0.3,11.4-4.5,13.3-13.9,14.2c-29.9,2.8-60.3,4.1-89.6,10c-55.8,11.1-94.1,49.5-109.9,107.1
		c-13.1,47.8-10.6,96.1-10.8,144.5c-0.3,71.5-0.3,143,0.2,214.5c0.1,12-3.6,16.1-15.6,15.9c-30.3-0.5-60.6-0.3-90.8,0.3
		c-10.3,0.2-12.8-5.2-13.1-13.7c-0.6-14.6-1.4-29.2-2.2-46.8c-13.8,7.7-24.9,14.3-36.3,20.4c-63.6,34.3-130.2,47.6-202.8,35.8
		c-56.9-9.2-106.9-30.5-151.3-66.5s-73.8-82.5-90-136.6C77.8,656.2,73.6,611,78.6,564c8.5-80.2,44.3-145.3,103.6-197.1
		c46.4-40.4,101-63.7,163.9-69.5c65.3-6.1,125.9,6,184.3,33.6c5.4,2.6,12.4,9.2,12.6,14.2c1.1,36.4,0.6,72.8,0.6,113.4
		c-9-5-14.4-7.5-19.3-10.6c-54.2-35.1-111.9-52.3-177.2-39.6c-69.9,13.6-115.9,54.7-138.8,120.5c-25.1,72.4-17.9,142.4,30,203.9
		c32.7,42,77,63.8,131.8,64.6c38.9,0.6,76.3-2.1,110.1-23c43.4-26.9,72-65.2,81.2-115.5c4.9-26.7,6.3-54.3,6.4-81.5
		c0.7-156.7,0.6-313.5,0.7-470.2c0-4.5-0.9-9.1-1-13.7c-0.1-10.5,4.8-17,15.7-15.2c30.8,5,61.3,11,92.1,15.8
		c10,1.6,11.3,7.1,11.3,15.5c-0.1,74.3,0,148.7,0.1,223c0,13.5,0,27,0,40.4C688.9,373.7,691,374.2,693.1,374.8z"/>
</g>
</svg>
