<?xml version="1.0" encoding="utf-8"?>
<!-- Generator: Adobe Illustrator 22.1.0, SVG Export Plug-In . SVG Version: 6.00 Build 0)  -->
<svg version="1.1" id="Layer_1" xmlns="http://www.w3.org/2000/svg" xmlns:xlink="http://www.w3.org/1999/xlink" x="0px" y="0px"
	 viewBox="0 0 1029.6 437.6" style="enable-background:new 0 0 1029.6 437.6;" xml:space="preserve">
<style type="text/css">
	.st0{fill:#F5F5F5;stroke:#EDEDED;stroke-miterlimit:10;}
</style>
<g id="mQ7pUI_1_">
	<g>
		<path class="st0" d="M439.2,241.9c9.7-4.1,8.7-11.1,5.7-18.7c-3.7-9.5-5.5-10.6-16-9.3c-5.2,0.6-10.4,1.4-15.6,1.9
			c-13.2,1.2-13.2,1.1-17.1,13.7c0-3.6-0.4-6.6,0.1-9.5c0.5-2.8,1.8-5.5,2.9-8.5c-7,1.3-6.8,1.3-9.1,12.2c-1.3,6.2-1,11.8,3.3,16.9
			c3.8,4.4,7.2,9.1,11.3,14.3c-1.9,1-3.4,2.2-5,2.4c-10,1.2-20.1,2.2-30.1,3.4c-8.6,1-12.7-2.6-14.3-13.5
			c12.1-1.6,15.1-11.2,17.8-21.1c10.3-37.2,20.7-74.4,31.1-111.6c0.3-1.1,0.5-2.2,0.9-3.3c2-5,1.4-12.4,8.6-13.1
			c7.7-0.7,10.7,6,13.5,11.6c17.3,34.1,34.8,68.1,51.4,102.6c5.8,12.1,14.6,21.2,23.3,30.7c13.4-10.3,17.4-23.5,15.7-39.8
			c-3.4-33.2-6-66.5-8.8-99.7c-0.4-4.4-0.1-8.8-0.1-13.6c6.7-1.8,11.4,1.7,15.5,5.1c14.3,12.1,28.4,24.5,42.5,36.8
			c16.7,14.5,33.3,29.2,50,43.7c1.3,1.1,3,1.7,5.5,3c0.4-3.2,1.1-5.3,0.9-7.3c-1.5-17.6-2.9-35.1-4.9-52.6
			c-1.1-9.7-2.3-19.4-12.4-25.1c-2.5-1.4-3.7-5-6.2-8.7c14.4-1.1,27.1-2.1,40.2-3c0,1.6,0.5,3.1-0.1,3.6c-7.8,6.6-8.3,15.2-7.4,24.6
			c2.8,28,5.3,55.9,7.8,83.9c1.1,12.2,1.9,24.5,2.7,35.5c2.4,2.6,4.2,4.4,5.9,6.3c-2.7,1.4-5.4,4.2-8,4c-3-0.2-6.2-2.5-8.6-4.6
			c-13.4-12-26.3-24.5-39.8-36.3c-20.9-18.1-42.1-35.8-65.4-55.6c0.8,9.3,1.2,16.1,1.9,22.8c1.5,14.5,3,29.1,4.6,43.6
			c0.9,8.5,3.3,15.8,11.2,20.9c4.4,2.8,7.5,7.5,12.4,12.6c-3.2,1-5.7,2.3-8.3,2.5c-15.6,1.3-31.2,3.7-46.8,3.1
			c-16.8-0.6-32.8,2.7-49,4.9C444.7,254.8,442.8,248.1,439.2,241.9z M407.4,148.2c-3.6,16.2-6.8,30.5-10,45
			c11,3.5,21.2,4.9,32.3-0.2c-3.5-7.8-6.4-14.9-9.8-21.8C416.3,164,412.2,157.1,407.4,148.2z"/>
		<path class="st0" d="M134.5,286c-2.1-3.8-3.3-5.9-5.3-9.5c-1.3,3.1-2.6,4.6-2.4,6c1.4,14.9,2.9,29.8,4.4,44.7
			c0.3,3.4,0.9,6.7,0.8,10.1c-0.3,9.7,4.3,17,10.7,23.9c4.5,4.9,7.8,10.8,12,16.7c-8.9,3.4-20.7,0.1-31.7,2.2
			c-11,2.1-22.2,2.9-33.8,4.4c-2.5-3.9-4.9-7.6-7-10.9c0.4-1.4,0.4-2.5,0.9-2.8c12-7.3,13.6-18.5,12.4-31.2
			c-3.6-38.4-6.7-76.9-10.4-115.4c-2.1-21.6-5-43.2-7.6-64.8c-0.7-5.8-2.5-10.5-8-14c-4-2.6-9.2-5.5-8.5-12.1c1-0.8,1.8-1.9,2.7-2
			c27.6-2.4,55.2-4.9,82.8-6.8c23.8-1.6,45.2,4.6,63.8,20c11.1,9.2,16.2,21.5,18.2,35.1c2.6,18,2.6,35.9-6.6,52.6
			c-6.9,12.4-16.3,22.2-27.9,30.2c-2,1.3-3.9,2.8-5.1,4.9c23.2-9.2,36.7-27.2,44.3-52.1c1.7,9.1-1.4,20.3-7.3,29.2
			c-12.6,19-30,31.3-52.3,35.9C160.6,282.9,147.6,284.1,134.5,286z M127,135.4c-11.1,3.7-11.8,4.7-11.1,13.1
			c1.1,13.4,2.1,26.9,3.1,40.3c1.5,20.5,2.8,41.1,4.4,61.6c0.6,8.1,6.9,15.2,13.9,15.2c21.7,0.1,41.8-10.4,48.2-31.4
			c7.2-23.5,4.7-46.5-3.7-69.3c-7.7-21-27.7-26.8-44.3-23.2c-5.4,1.2-10.6,3-17.4,5C122.5,142.6,124.2,139.9,127,135.4z"/>
		<path class="st0" d="M920.6,75.9c-2-1.8-4.2-3.9-6.5-6c-0.8,0.2-1.7,0.4-2.5,0.6c0,3-0.2,6.1,0,9.1c2.6,30.2,5.2,60.5,7.8,90.7
			c0.3,3.7,0.7,7.5,0.7,11.2c0,6.5,2.3,11.4,8,15.1c4.9,3.1,9.2,7,15.5,12c-4.1,1.4-6.6,2.6-9.2,2.9c-14.9,1.5-29.9,2.2-44.7,4.3
			c-9.5,1.4-12.2-4.7-16.3-10.9c1.5-1.3,2.4-2.5,3.6-3.2c9.3-4.8,9.8-5.3,8.9-15.5c-2.8-31.7-5.8-63.5-8.8-95.2
			c-1.2-12.1-2-11.8-14-10.6c-11.1,1.2-17.6,6.6-22.1,16.4c-3.6,7.7-7,7.9-11.8,1.1c-2.6-3.8-3.9-8.5-5.8-12.8c-1-2.2-2-4.4-3.3-7.3
			c-4.3,2.4-7.7,4.4-11.1,6.3c-0.6-0.5-1.2-0.9-1.9-1.4c1.7-2.3,3.1-5,5.2-6.9c4.1-3.7,8.7-7,14.5-11.6c35.5,1.1,72.9-5.3,110.6-7.8
			c4.1-0.3,8.1-1.4,12.1-2.4c8.7-2.3,11.6-0.6,13.1,8.2c0.5,2.9,0.5,6,0.8,9c0.5,4.7-0.4,9.8,4.5,13.2c0.9,0.7,0.9,4.8-0.1,5.5
			c-1.2,1-4.7,1.1-5.8,0.1c-3.3-3-6.4-6.4-8.8-10.2c-2.8-4.4-6.3-6-11.3-5.5C935.1,75.1,928,75.4,920.6,75.9z"/>
		<path class="st0" d="M354.2,262.5c-2.4,0.4-4.9,1.3-7.3,1.2c-29.4-1.4-58.3,3.3-87.5,5.8c-12,1.1-12.2,1.2-18.1-9.9
			c3.4-3.6,8.3-6.7,9.8-11c1.6-4.6,0.3-10.3-0.2-15.6c-2.2-26.5-4.4-53.1-6.7-79.6c-0.9-10.8-0.6-22-13-27.7c-2.2-1-3.2-4.6-6.3-9.4
			c11.9-0.3,21.8-0.2,31.6-1c9.8-0.8,19.4-2.5,29.2-3.8c0.2,2.4,0.6,3.6,0.3,3.8c-9.1,6.8-8.4,16.3-7.5,26.1
			c2.1,25,3.8,50.1,5.7,75.1c0.4,5.2,1,10.5,1.2,15.7c0.5,11.8,3.4,15.1,15.5,14.8c15.7-0.4,31.1-2,38.6-19.4c0.9-2,5-4.4,6.7-3.8
			c2,0.6,3.9,4.2,4.3,6.7c0.6,3.6,0.2,7.5-0.5,11.2c-1.3,7-3.5,14.1,5.8,18.5C355.4,261.1,354.8,261.8,354.2,262.5z"/>
		<path class="st0" d="M813.7,66.4c-1.9,3-2.5,5.1-3.8,5.8c-8.1,4.4-7.9,11-7.1,19.1c3.1,32.4,5.5,64.9,7.8,97.4
			c0.5,7.7,2.2,13.5,9.6,17.5c4.6,2.5,8,7.3,12.9,12c-2.7,1.2-4.7,2.8-6.8,3c-15.3,1.5-30.5,2.7-45.8,4c-8.2,0.7-9.6-0.3-14.7-11.3
			c12.4-3.7,11.7-13.6,10.7-23.6c-3.2-32.4-6.4-64.8-9.5-97.3c-0.5-4.9-2.3-8.1-7-10.5c-3.7-1.9-6.4-5.6-11.6-10.4
			C771.5,70.1,791.5,68.4,813.7,66.4z"/>
		<path class="st0" d="M321.7,360.7c-8.8,3.6-13.9,2.5-21-4.6c-10.5-10.6-21.1-20.9-32.2-31.9c-2.9,11.9,0.5,30.3,6.5,38.6
			c-7.8,7.7-21.6,5.2-23.4-5.5c-3.1-19.1-3.9-38.5-5.6-57.6c10.3-4.3,17.8-1.8,24.3,4.1c6.4,5.8,12.3,12,18.6,18
			c1.8,1.7,3.8,3.1,7.8,6.1c-0.7-12.4-1.3-22.5-1.8-32.3c13.9-4.4,17.1-2.9,18.7,9.4c1.6,12.3,2,24.7,3.5,36.9
			C317.8,347.9,319.9,353.7,321.7,360.7z"/>
		<path class="st0" d="M625.1,334.1c-9.5,3.9-16.5,3.1-23.6-4.5c-7.7-8.2-22.7-4.6-28.2,5.4c-3.4,6.1-11.8,9.1-18.2,6.4
			c-5.2-2.2-7.4-9.4-5.2-16.4c4.8-15.4,9.7-30.7,14.4-46.1c1.4-4.4,2.4-8.8,8.3-9c6.5-0.3,13.6-3.2,18.4,4.1
			c1.2,1.9,2.5,3.7,3.6,5.7C604.6,297.5,614.6,315.4,625.1,334.1z M574,304.5c8.4,4,8.4,4,14.3,0.9c-3.3-5.3-6.6-10.5-10.9-17.2
			C576,294.9,575,299.7,574,304.5z"/>
		<path class="st0" d="M408.6,284.2c12.6-1.2,25.9-2.6,39.2-3.4c2-0.1,4.5,2.2,6.1,3.9c2.6,2.8,4.6,6.1,7.9,10.5
			c-8.8,4.7-19,2.5-27.8,5.4c-2-2.2-3.7-4-5.5-5.8c-0.2-0.2-0.7,0-1.8,0c-2.9,3.6-3.1,7.4,2,9.1c4.9,1.6,10.3,2.5,15.3,2
			c5.7-0.6,9.3-0.1,11.4,5.9c1,2.9,3.7,5.3,6.3,8.7c-2.8,6.6-10.4,2.3-15.9,3.1c-5.2,0.8-10.7-1.4-16.5-2.3
			c-2.6,7.1-2.1,9.1,4.9,10.9c4.3,1.1,8.9,1.3,13.3,1c6-0.4,11.1-0.4,13.6,6.7c0.7,2.1,3.5,3.5,6.9,6.5c-3.5,1.8-6.1,3.9-8.8,4.2
			c-11.1,1.2-22.3,2-33.5,2.6c-7.5,0.4-13.2-3.6-14.1-11.4c-2-18.2-3.1-36.5-4.5-54.7C407,286.5,407.7,285.8,408.6,284.2z"/>
		<path class="st0" d="M476.1,277.6c10.7-0.6,20.8-1.7,30.7-1.4c7.5,0.2,15.2,2.6,18.8,10.1c3.8,7.8-0.4,14.3-5.5,20.5
			c7.1,11.3,14.2,22.5,21.3,33.8c-9.7,6-16.6,5.3-22.8-3.2c-6.1-8.3-10.6-18-20.6-22.5c-3.9,7.6-1.8,20.7,4.7,28.4
			c-10.5,7.8-22.1,4.5-23.5-7.3c-2-17.5-2.9-35-4.2-52.6C474.9,282.1,475.5,280.6,476.1,277.6z M495.2,288.1
			c-3.2,5.1-3.1,8.9,1.5,10.9c3.8,1.6,8.5,2.9,10.7-3.6C503.3,292.9,499.7,290.7,495.2,288.1z"/>
		<path class="st0" d="M944.6,254.4c-13.2-0.1-24.1,4.6-35.3-1c-3.5,2.3-3,5.5-0.2,7.1c3.8,2.1,8.8,4.6,12.5,3.7
			c9.3-2.3,14.9,1.1,19.3,8.6c0.9,1.5,2.2,2.6,5.2,6.1c-12.8,0.3-23.1,7.7-33.7-1.1c-3.7,8.6-2.5,11.7,5.6,13.3
			c2.9,0.6,6,0.7,8.9,0.3c13.2-1.7,13-3,20.2,14.3c-0.8,0.7-1.6,1.9-2.5,2c-12.7,1-25.4,2.2-38.1,2.7c-7.1,0.3-12.1-4.1-12.8-11.4
			c-1.8-17.2-3-34.4-4.4-51.6c-0.1-1.4,0.7-2.8,1.3-4.8c12.7-1.1,25.3-2.4,37.9-3.2C933.4,239.1,933.5,239.5,944.6,254.4z"/>
		<path class="st0" d="M727,166.8c-13.7,6.7-27.4,13.3-41,20.1c-6.3,3.1-12.3,6.8-18.7,9.9c-1.2,0.6-3.3-0.4-5.8-0.8
			c4.6-9.9,8.3-19.2,13.2-27.9c3.8-6.7,2.7-11.8-1.6-17.4c-5.8-7.6-11.1-15.6-16.6-23.5c0.5-0.7,1-1.5,1.4-2.2
			c29.2,9.1,58.4,18.1,90.1,27.9c-8.3,5.5-14.8,9.8-21.4,14.1L727,166.8z"/>
		<path class="st0" d="M691.4,283.5c-9.3-1.4-17.1-4.3-24.1-3.1c-7.2,1.3-13.7,6.7-22.6,11.4c3.1-5.2,5.4-9,7.6-12.7
			c-7.9,1.2-11.9,6.5-11.2,14.8c1,11,11.3,20.4,22.3,19.1c6.9-0.8,13.5-3.7,21.3-6c5.3,3.2,4.3,8.3,0.2,14.9c3.8-1.5,6-2.4,8.8-3.5
			c1,5.9-2.8,8-6.2,9.7c-23.2,11.4-50.2,2.4-62.4-20.9c-7.3-14,0.2-32.8,14.7-40.2c8.9-4.6,18.4-6.3,28.3-5.5
			c7.8,0.6,14.8,2.4,17.1,11.6C686.1,276.3,688.7,279.1,691.4,283.5z"/>
		<path class="st0" d="M326.7,291.3c20.5-1.8,39.1-3.5,57.7-4.9c1.9-0.1,4.4,1.3,5.7,2.9c2.8,3.2,5,7,8.7,12.2
			c-7.7,1.8-14.5,3.3-21.5,4.9c-1.5-2.2-3.1-4.4-5-7c-1.3,1.5-2.6,2.3-2.5,3c1,13.1,1.8,26.1,3.6,39.1c0.7,4.7,3.7,9.1,5.7,13.7
			c-13.2,6.9-23,1.9-24.1-12.3c-0.9-11.5-2.1-23-3.2-34.5c-8.1-1.9-17,3.2-21.3-5.9C329,299.5,328.2,296.1,326.7,291.3z"/>
		<path class="st0" d="M866.4,286.5c-2.2,7.9-3.8,16.1-6.7,23.7c-2.5,6.5-6.9,7.2-12.4,2.8c-2.8-2.3-5.5-5.2-7.4-8.4
			c-10.1-16.7-20-33.5-29.8-50.3c-0.7-1.2-0.9-2.7-1.3-4c13-4.1,17-2.8,23.7,7.7c3.6,5.6,6.8,11.4,10.6,17.8
			c6.9-6,7.6-14.2,10.5-21.1c4.6-10.9,4.8-11.4,18.6-9.2c2,11.3-6.2,20.1-8.6,30.2c-2.3,10-6.5,19.6-9.8,29.3
			c0.8,0.4,1.6,0.7,2.3,1.1c3.5-6.5,7-12.9,10.5-19.4C866.7,286.7,866.4,286.5,866.4,286.5z"/>
		<path class="st0" d="M747.7,323.1c-10,7.2-20.9,2.7-22.7-10.9c-1.2-8.9-1.3-17.9-2.3-26.8c-1.1-9.4-1.7-9.7-11-9.3
			c-5.5,0.2-13-5.2-14-10.4c-0.8-4.1,1-6.6,5.1-7c17.1-1.6,34.3-3.3,51.4-4.6c1.8-0.1,4.3,1.3,5.6,2.8c2.9,3.5,5.3,7.4,7.9,11.1
			c-9,5.6-17,5.3-25.9-1.3c-0.8,1.2-2.2,2.3-2.2,3.4c0.9,11.9,1.7,23.7,3.2,35.5C743.6,311,745.8,316.3,747.7,323.1z"/>
		<path class="st0" d="M804.3,317.9c-14.7,5.9-22,1.6-23.3-13.6c-1.1-13.8-2.5-27.6-3.9-41.4c-0.9-9.4,0.1-11.3,7.1-12
			c7.7-0.7,9.7,1.2,10.7,10.6c1.5,13.8,2.5,27.6,4.3,41.3C799.9,307.7,802.4,312.3,804.3,317.9z"/>
		<path class="st0" d="M235.4,367.9c-13.9,5-21.1,0.5-22.3-14.6c-1.1-13.8-2.5-27.5-3.8-41.3c-0.9-9.3-0.1-10.9,5.9-11.5
			c7.4-0.8,10.7,1.6,11.7,10c1.6,13.3,2.3,26.8,4,40.1C231.5,356.1,233.6,361.4,235.4,367.9z"/>
		<path class="st0" d="M726.7,167c6.2-2.4,12.3-4.9,18.5-7.3c2.8-1.1,5.6-2.2,8.4-3.3c0.5,0.8,1,1.6,1.5,2.3
			c-1.5,1.7-2.7,4.1-4.6,5.1c-26.1,13.7-52.4,27.3-78.6,40.8c-1.7,0.9-4,0.7-6,1c-0.4-0.7-0.8-1.5-1.2-2.2c3.1-2.2,6-4.7,9.3-6.5
			c16.1-8.6,32.4-17,48.6-25.6c1.8-1,3-3,4.5-4.6C727,166.8,726.7,167,726.7,167z"/>
		<path class="st0" d="M866.7,286.7c0.3-9,5.3-24.1,11.9-33.9c-3.2,11.5-4.8,23.6-12.1,33.7L866.7,286.7z"/>
	</g>
</g>
</svg>
