<?xml version="1.0" encoding="utf-8"?>
<!-- Generator: Adobe Illustrator 22.1.0, SVG Export Plug-In . SVG Version: 6.00 Build 0)  -->
<svg version="1.1" id="Layer_1" xmlns="http://www.w3.org/2000/svg" xmlns:xlink="http://www.w3.org/1999/xlink" x="0px" y="0px"
	 viewBox="0 0 907.4 244.2" style="enable-background:new 0 0 907.4 244.2;" xml:space="preserve">
<style type="text/css">
	.st0{fill:#F5F5F5;stroke:#EDEDED;stroke-miterlimit:10;}
</style>
<g id="v0ACCk_1_">
	<g>
		<path class="st0" d="M523.4,152.4c-23.3-1.2-44.9-13-57-38.5c-10.5-22.2-8.3-44.2,6.3-63.9C494.5,20.5,534,13.3,565,33.1
			c21.8,13.9,32.4,34.4,30,60.3c-2.2,23.5-15,40.6-35.8,51.5C548.9,150.3,538.8,152.4,523.4,152.4z M488.1,44.7
			c-27.7,23.8-24.8,64.4-0.6,84.5c2.5-2.6,4.9-5.3,7.6-8.1c-4.5-3.8-9-7.5-13.6-11.4c4.5-4.2,8.9-8.1,13.4-12.2
			c-4.6-3.8-8.9-7.5-13.4-11.3c4.5-4.2,8.9-8.3,13.4-12.5c-4.6-3.8-8.9-7.3-13.4-11c4.5-4.1,8.9-8.1,13.5-12.3
			C492.6,48.5,490.4,46.6,488.1,44.7z M562.8,133.2c28.5-18.3,32.7-58.5,10.9-82.3c-4.3,4.7-8.5,9.4-12.9,14.2
			c4.7,2.8,9.2,5.4,13.9,8.1c-4.7,5.2-9.3,10.2-14,15.4c4.5,2.8,8.6,5.4,13.1,8.2c-4.7,5.2-9.2,10.2-13.9,15.4
			c4.7,2.8,9.1,5.5,13.7,8.2C569.8,124.9,566.3,129,562.8,133.2z M568.3,74.1c0.1-0.2,0.1-0.4,0.2-0.6c-3.4-2-6.8-4-10.3-5.9
			c-0.6-0.3-1.5-0.2-2.3-0.1c-16.7,2.2-33.4,4.7-50.2,6.7c-5.3,0.6-9.7,2.1-13.1,6.3c-1.3,1.5-2.9,2.8-4.4,4.2
			c0.1,0.2,0.2,0.3,0.3,0.5C515.2,81.5,541.8,77.8,568.3,74.1z M567.6,97.7c0.1-0.2,0.1-0.4,0.2-0.6c-3.2-2-6.4-4-9.7-5.9
			c-0.6-0.3-1.5-0.2-2.3-0.1c-16.2,2.2-32.4,4.4-48.6,6.7c-3.1,0.4-6.6,0.2-9,1.7c-3.8,2.3-6.8,5.8-10.1,8.8
			c0.1,0.1,0.2,0.3,0.3,0.4C514.8,105,541.2,101.4,567.6,97.7z M566.9,50.8c0.1-0.2,0.1-0.4,0.2-0.6c-3.4-2-6.7-4.1-10.1-6.1
			c-0.5-0.3-1.4-0.1-2.1,0c-16.3,2.3-32.6,4.7-48.9,6.7c-5.4,0.7-10,2.2-13.6,6.5c-1.2,1.4-2.7,2.6-4,3.8c0.1,0.2,0.2,0.3,0.3,0.5
			C514.8,58,540.9,54.4,566.9,50.8z M490,131.7c26.3-3.5,51.8-7,77.2-10.4c-2.7-2.3-5.5-4.1-8.4-5.6c-1.3-0.7-3-1.1-4.4-0.9
			c-17.9,2.4-35.7,4.9-53.6,7.4c-1,0.1-2.2,0.4-2.9,1C495.4,125.7,493,128.4,490,131.7z M553.8,139c-0.1-0.2-0.1-0.5-0.2-0.7
			c-12.4,1.6-24.7,3.3-37.1,4.9C529.5,146.1,542,144.6,553.8,139z M502.5,36c11-1.7,21.9-3.3,32.9-5C523.8,28.9,512.8,30.6,502.5,36
			z M571.3,48.8c0.2-0.2,0.4-0.4,0.5-0.6c-3-2.5-6-4.9-8.9-7.4c-1.4-1.2-2.2-0.6-2.8,1.1C563.8,44.2,567.6,46.5,571.3,48.8z"/>
		<path class="st0" d="M674.6,152.4c-25.3-1.4-46.9-13.3-58.9-39.2c-10.3-22.1-7.8-44,6.8-63.7c15-20.3,35.9-28.8,60.9-27.2
			c28.9,1.9,53.7,22.7,60,51c5.2,23.4-1.6,43.8-18.9,60.4C711.4,146.3,695.4,152.1,674.6,152.4z M677.4,46.3
			c-2.7,0.3-5.5,0.4-8.2,0.9c-2.5,0.5-5,1.2-7.4,2.1c-23.3,8.6-33.4,35-21.9,56.7c10.1,19,34.7,27.2,54.8,18.2
			c19.4-8.6,28.9-28.6,23.2-48.5C713.2,58.7,696.2,46.5,677.4,46.3z M723,123.3c0.2,0.1,0.5,0.2,0.7,0.3c0.2-0.4,0.4-0.8,0.7-1.1
			c17.6-20.7,16.6-53.6-2.2-73.1c-21.2-22-52.3-25.9-78.2-9.7c-27.5,17.2-34.6,54.5-15.5,80.6c0.8,1.1,1.7,2.1,2.5,3.1
			c0.5-1.3,0.6-2.2,0.5-3.2c0-11.1-0.3-22.3,0-33.4c0.1-4.3,0.7-8.7,2.1-12.7c6.7-18.4,20.1-28.6,39.5-30.6
			c25.5-2.7,50.5,17.2,49.9,45.5c-0.2,8.8-0.2,17.5-0.3,26.3C723,117.9,723,120.6,723,123.3z M710.2,118.6
			c-22.1,17-43.6,17.1-65.4,0.1c0,5.2-0.1,10.3,0.1,15.3c0,0.7,0.8,1.8,1.5,2.2c20.7,11.5,41.4,11.5,62.1,0.1
			c0.7-0.4,1.7-1.3,1.7-2.1C710.3,129,710.2,123.9,710.2,118.6z"/>
		<path class="st0" d="M311.5,86.7c0.8-31.4,23.4-57.9,54.5-63.3c25.6-4.4,47.6,2.9,65.2,22.2C449.6,66,452,98,436.7,121
			c-14.6,22-35.7,32.6-61.9,31c-27-1.7-46.7-15.3-58.3-40.1C312.9,104,311.6,95.4,311.5,86.7z M408.8,101.9c-9,0-17.3,0-26.2,0
			c4.1-7,7.8-13.5,11.7-20.3c-25.1,0-49.8,0-74.6,0c-1.3,16.9,3.5,31.6,15.1,43.7c16.3,17,36.3,22.7,59.1,17.4
			c26.7-6.1,46.4-30.6,44.9-58.6c-0.1-2.3-0.8-2.8-3-2.8c-12,0.1-24.1,0-36.1,0c-0.8,0-1.5,0.1-2.8,0.2
			C400.9,88.5,404.7,95,408.8,101.9z M437.7,77.9c-2.7-22.8-25.1-48.2-58.8-48.1c-34.1,0.1-55.9,26.1-58.4,48.1
			C359.6,77.9,398.6,77.9,437.7,77.9z"/>
		<path class="st0" d="M85.1,22.1c23.7,1.2,45,13.3,57.6,38.8c10.7,21.6,6.2,50.3-10.3,68.4C110.8,152.9,77.6,159,49,144.6
			c-23.6-11.8-38-37.1-35.4-63.2c2.3-23.8,15-40.9,36-51.9C59.3,24.4,69.8,22.1,85.1,22.1z M75.8,144.7c18.5-0.2,30.6-4.2,41.6-12.2
			c28.6-20.6,30.9-63.3,4.6-86.9c-23.9-21.3-58.8-21.2-82.6,0.2c-16.8,15.2-22.8,40-14.7,61C33.6,129.7,55.7,144.7,75.8,144.7z"/>
		<path class="st0" d="M894.2,87.1c0.1,26.4-17.4,51.4-42.4,60.4c-24,8.7-46.7,6-67-9.4c-19.8-15.1-28.4-35.5-25-60.3
			c4-29,28.5-51.6,57.5-54.9s52,7.3,67.9,32C891.4,64.6,894.1,75.5,894.2,87.1z M825.9,144.7c18.3-0.4,33.3-6.7,45.5-19.7
			c21-22.4,19.4-58.6-3.4-79.2c-24-21.6-59.1-21.6-83,0.1c-16.5,15-22.5,39.7-14.6,60.3C779.3,129.6,801.4,144.7,825.9,144.7z"/>
		<path class="st0" d="M162.2,87c0.2-29.2,20.9-55.5,49.4-62.5c24.3-6,46.3-1.2,64.9,15.8c16.6,15.2,23.5,34.4,20,56.8
			c-5.6,36.1-41,60.1-77.2,54.3c-21-3.3-37.1-14.1-48.3-32.1C165.6,110.4,162.1,98,162.2,87z M228.8,144.7
			c19-0.4,34.2-6.9,46.3-20.2c22.1-24.1,18.3-62.9-8.1-82.3c-22.6-16.6-51.3-16.7-74-0.2c-17.9,13.1-26.7,37.3-21.2,58.4
			C178.8,126.8,202.6,144.9,228.8,144.7z"/>
		<path class="st0" d="M250.9,194.8c0,8.8,0,17.6,0,26.6c-2.4,0-4.5,0-6.7,0c0-13,0-25.9,0-39.1c2.1,0,4.2-0.2,6.3,0.1
			c0.7,0.1,1.6,1,2,1.8c3.6,5.4,7,10.8,10.8,16.6c1-1.5,1.9-2.8,2.8-4.1c2.5-3.9,5.1-7.7,7.4-11.6c1.2-2.1,2.6-3.1,5-2.8
			c1.2,0.2,2.4,0,3.9,0c0.1,1.1,0.2,2,0.2,3c0,11.1-0.1,22.1,0.1,33.2c0,2.5-0.6,3.6-3.2,3.3c-1.1-0.2-2.3,0-3.8,0
			c0-9.1,0-18,0-26.9c-0.2-0.1-0.4-0.1-0.7-0.2c-3.9,5.7-7.7,11.4-11.8,17.5c-4-6-7.9-11.7-11.8-17.4
			C251.3,194.7,251.1,194.7,250.9,194.8z"/>
		<path class="st0" d="M490.4,221.6c0-9.2,0-18,0-26.8c-0.2-0.1-0.5-0.2-0.7-0.3c-3.9,5.8-7.8,11.5-11.9,17.5
			c-4-6-7.9-11.7-11.7-17.3c-0.2,0-0.4,0.1-0.6,0.1c0,8.8,0,17.6,0,26.8c-2.1,0-3.9,0.2-5.5-0.1c-0.6-0.1-1.3-1.5-1.3-2.3
			c-0.1-7.4-0.1-14.9-0.1-22.3c0-4.8,0-9.5,0-14.6c2.3,0,4.5-0.1,6.5,0.1c0.7,0.1,1.4,0.9,1.9,1.6c3.1,4.7,6.2,9.5,9.3,14.2
			c0.5,0.7,1,1.4,1.7,2.5c1.9-2.9,3.6-5.5,5.3-8.2c1.5-2.3,3.2-4.5,4.4-6.9c1.4-2.7,3.3-3.9,6.3-3.4c0.9,0.2,1.9,0,3.1,0
			c0.1,1.2,0.2,2.1,0.2,3.1c0,11,0,22,0,32.9c0,3.4,0,3.4-3.5,3.4C492.7,221.6,491.7,221.6,490.4,221.6z"/>
		<path class="st0" d="M717.4,182.3c2.5,0,4.5,0,6.7,0c0,13.1,0,26,0,39c-3.3,0.6-5.8,0.4-8.1-2.8c-5.5-7.6-11.4-14.9-17.2-22.3
			c-0.5-0.6-1-1.2-2-2.3c0,9.5,0,18.4,0,26.9c-0.4,0.4-0.5,0.5-0.6,0.5c-6,1-6.3,0.8-6.3-5.2c0-10.3,0-20.5,0-30.8c0-1,0-1.9,0-2.9
			c3.9-0.8,6.8-0.4,9.3,3.1c5.1,7.2,10.7,14,16.2,21c0.5,0.6,1,1.2,1.9,2.3C717.4,199.7,717.4,191.1,717.4,182.3z"/>
		<path class="st0" d="M395.3,204.8c0,3.7,0,7,0,10.6c7.5,0,14.8,0,22.4,0c0,2.2,0,4,0,6c-9.8,0-19.4,0-29.3,0c0-13,0-25.9,0-39
			c9.6,0,19.1,0,28.9,0c0,1.9,0,3.8,0,5.9c-7.2,0-14.4,0-21.9,0c0,3.5,0,6.7,0,10.3c6.4,0,12.8,0,19.3,0c0,2.2,0,4.1,0,6.3
			C408.3,204.8,401.9,204.8,395.3,204.8z"/>
		<path class="st0" d="M614.1,182.3c2.1,0,4.1,0,6.4,0c0,5.3,0,10.6,0,16.1c6.3,0,12.4,0,18.7,0c0-5.2,0-10.5,0-16
			c2.4,0,4.4,0,6.8,0c0,12.9,0,25.8,0,39c-2,0-4.1,0-6.5,0c0-5.3,0-10.6,0-16.2c-6.4,0-12.4,0-18.9,0c0,4.2,0.1,8.4,0,12.6
			c0,1.2-0.2,3.4-0.7,3.5c-1.7,0.4-3.7,0.2-5.5,0.1c-0.3,0-0.7-1-0.7-1.5c0-12.3,0-24.6,0.1-36.9
			C613.8,182.8,613.9,182.7,614.1,182.3z"/>
		<path class="st0" d="M552.2,221.5c-2.1,0-3.9,0.1-5.7-0.1c-0.7-0.1-1.5-0.8-1.8-1.5c-0.9-1.9-1.8-3.9-2.5-5.9
			c-0.6-1.6-1.5-2.1-3.2-2c-4.8,0.1-9.5,0.1-14.3,0c-1.6,0-2.5,0.5-2.9,2c-0.3,1-0.8,1.9-1.2,2.9c-2.2,5.2-2.7,5.4-8.7,4.4
			c0.2-0.7,0.4-1.3,0.6-1.9c5.2-11.8,10.3-23.6,15.5-35.4c0.6-1.4,1.3-2.3,2.9-1.9c1.7,0.4,3.9-1.2,5.1,1.5
			c5.3,12.3,10.8,24.6,16.1,36.9C552.2,220.6,552.2,220.9,552.2,221.5z M525.4,205.8c4.6,0,8.8,0,13.4,0c-2.2-5.2-4.4-10-6.7-15.5
			C529.6,195.8,527.6,200.6,525.4,205.8z"/>
		<path class="st0" d="M308,209.2c0,4.1,0,8,0,12.2c-2.3,0-4.4,0-6.7,0c0-12.9,0-25.8,0-39.1c7.2,0.3,14.6-1,21.7,1.2
			c6,1.9,9,7.3,8.3,14c-0.6,5.8-5.6,10.5-12.3,11.2C315.5,208.9,312,209,308,209.2z M308.1,203c4-0.3,7.7-0.2,11.3-0.8
			c3.2-0.5,5-3.2,5.1-6.2c0.1-3.3-1.3-6.1-4.4-6.7c-3.9-0.7-7.9-0.7-12-1C308.1,193.4,308.1,197.9,308.1,203z"/>
		<path class="st0" d="M882,186.5c-1.3,1.8-2.4,3.4-3.5,4.9c-2.6-1.1-5-2.6-7.6-3.1c-2.1-0.5-4.6-0.4-6.7,0.3
			c-1.2,0.4-2.4,2.2-2.8,3.6c-0.6,1.9,0.5,3.5,2.4,4.2c1.9,0.8,4,1.4,6,2.1c2.3,0.8,4.8,1.4,7,2.3c4.1,1.7,6.5,4.8,6.4,9.5
			c-0.1,4.8-2.3,8.4-6.7,10.2c-6.4,2.6-12.7,1.7-18.7-1.3c-1.7-0.9-3.2-2.1-5.1-3.3c1.5-1.8,2.7-3.3,3.7-4.4
			c3.6,1.5,6.8,3.2,10.2,4.1c2.1,0.5,4.5,0,6.7-0.5c1.9-0.5,3-2.1,3-4.2c0.1-2-1-3.4-2.8-4.1c-2.3-0.9-4.7-1.5-7.1-2.2
			c-1.9-0.6-3.9-1.2-5.8-2c-4.2-1.7-6.3-4.8-6.3-9.5c0.1-4.8,2.2-8.3,6.5-10C868.4,180.2,875.3,181.8,882,186.5z"/>
		<path class="st0" d="M201,186.8c-1.1,1.6-2.2,3.1-3.4,4.9c-1.5-0.8-2.9-1.9-4.5-2.3c-2.6-0.7-5.3-1.3-8-1.3
			c-2.3,0-4.3,1.2-4.7,3.9s1,4.2,3.3,5c2.2,0.8,4.6,1.4,6.8,2.1c1.8,0.6,3.6,1.1,5.3,1.8c4.2,1.8,6.6,5,6.4,9.7
			c-0.2,4.8-2.4,8.3-6.9,10.1c-6.1,2.4-12.2,1.6-18-1.1c-1.9-0.9-3.6-2.2-5.6-3.6c1.5-1.8,2.7-3.3,3.7-4.5c3.5,1.5,6.7,3.2,10.1,4.1
			c2,0.6,4.4,0.1,6.5-0.3c2-0.5,3.2-2.1,3.3-4.3s-1.1-3.6-3-4.3c-2.3-0.9-4.7-1.5-7.1-2.2c-1.8-0.6-3.7-1.1-5.5-1.9
			c-3.9-1.6-6.2-4.5-6.3-8.9c-0.1-4.7,1.8-8.2,6-10.4C185.8,180.1,195.7,181.7,201,186.8z"/>
		<path class="st0" d="M765.5,215.7c0.8-1,1.6-2,2.5-3c0.4-0.5,0.9-1,1-1.1c3.6,1.5,6.8,3.2,10.2,4.1c2,0.5,4.4,0,6.5-0.4
			c1.9-0.4,3-2.1,3.2-4.1c0.1-2.1-1-3.6-2.9-4.3c-2.3-0.9-4.7-1.5-7.1-2.2c-1.8-0.6-3.7-1.1-5.5-1.9c-4.3-1.8-6.6-5-6.4-9.7
			c0.1-4.7,2.4-8,6.7-9.9c6.3-2.8,15.2-1.3,20.8,3.6c-1.1,1.6-2.3,3.2-3,4.2c-4.2-1.1-8-2.2-11.7-3c-1-0.2-2.5,0.1-3.3,0.7
			c-1.1,1-2.4,2.5-2.5,3.9c-0.1,1.2,1.1,3,2.2,3.8c1.6,1.1,3.7,1.5,5.7,2.1c1.9,0.6,3.9,1,5.8,1.7c5.9,2.2,8.2,5.5,7.9,11
			c-0.3,5.2-3.5,8.8-9.2,10.3C779.5,223.3,770.8,220.9,765.5,215.7z"/>
		<path class="st0" d="M598.5,187.8c-1.5,1.7-2.9,3.3-4.2,4.8c-8.4-6-15.2-6.3-20.4-0.8c-4.7,5-4.9,14.1-0.4,19.5
			c5.1,6,11.5,6,20.9-0.3c1.4,1.3,2.7,2.7,4.1,4.1c-5.2,7.8-19.1,9.5-27.5,3.2c-9.2-6.9-10.7-20.9-3.2-29.8
			C575.2,179.6,589.5,179.2,598.5,187.8z"/>
		<path class="st0" d="M821.2,188.6c-4.4,0-8.2,0-12.3,0c0-2.2,0-4.1,0-6.2c10.4,0,20.9,0,31.5,0c0,2,0,3.9,0,6.2c-3,0-6,0-8.9,0
			c-3.4,0-3.4,0-3.4,3.5c0,8.8-0.1,17.5,0.1,26.3c0,2.6-0.8,3.5-3.3,3.2c-1.1-0.1-2.3,0-3.7,0C821.2,210.5,821.2,199.8,821.2,188.6z
			"/>
		<path class="st0" d="M346.5,182.3c2.2,0,4.3,0,6.7,0c0,11,0,21.8,0,33c7,0,13.7,0,20.5,0c0,2.2,0,4.1,0,6.1c-9.1,0-18.1,0-27.2,0
			C346.5,208.4,346.5,195.5,346.5,182.3z"/>
		<path class="st0" d="M225.6,182.4c0,13,0,25.8,0,38.9c-2.2,0-4.3,0-6.6,0c0-12.9,0-25.8,0-38.9
			C221.2,182.4,223.4,182.4,225.6,182.4z"/>
		<path class="st0" d="M671.6,221.5c-2.2,0-4.3,0-6.5,0c0-13,0-26,0-39.1c2.1,0,4.2,0,6.5,0C671.6,195.3,671.6,208.2,671.6,221.5z"
			/>
		<path class="st0" d="M749.7,221.4c-2.3,0-4.3,0-6.6,0c0-13,0-25.9,0-39c2.1,0,4.3,0,6.6,0C749.7,195.3,749.7,208.2,749.7,221.4z"
			/>
		<path class="st0" d="M571.3,48.8c-3.7-2.3-7.5-4.6-11.2-6.9c0.6-1.7,1.4-2.3,2.8-1.1c3,2.5,6,4.9,8.9,7.4
			C571.7,48.4,571.5,48.6,571.3,48.8z"/>
		<path class="st0" d="M677.6,73.6c7.8-0.1,14.1,5.9,14.1,13.5c0,7.5-6.3,13.6-14.1,13.6c-7.6,0-13.9-6-14-13.4
			C663.4,79.8,669.8,73.6,677.6,73.6z M677.7,75.3c-6.8,0-12.2,5.2-12.3,11.7c-0.1,6.6,5.4,11.9,12.2,11.9c6.9,0,12.3-5.3,12.3-11.9
			C689.9,80.5,684.4,75.3,677.7,75.3z"/>
		<path class="st0" d="M80.2,135.6c-10.6-28.5-21.2-57-32-85.9c21.8,0,43.1,0,65.2,0c-10.8,28.9-21.4,57.4-32,85.9
			C81,135.6,80.6,135.6,80.2,135.6z"/>
		<path class="st0" d="M823.3,134.6c-18.1,0-37.2-13.5-43.6-33.3c-6.9-21,2.3-43.7,22.3-55.1c22.8-13,52.6-5.7,66.6,16.3
			c13,20.4,7.9,47.3-11.6,61.8C848,131.1,837.8,134.5,823.3,134.6z M826.6,43.3c-7.4,0-14.3,1.7-21,4.9
			c-21.4,10.4-30.8,36.5-20.5,57.4c12.3,24.9,44.2,33.4,67.3,17.9c15.6-10.5,23.1-28.9,18.7-46.1C865.9,57,847.8,43.2,826.6,43.3z"
			/>
		<path class="st0" d="M184,69.5c32.3,11.2,64.4,22.3,96.6,33.4c0,0.3,0,0.7,0,1c-0.9,0.2-1.8,0.5-2.7,0.5c-30.5,0-61,0-91.5,0
			c-1.6,0-2.8-0.1-2.8-2.2c0-10.3,0-20.5,0-30.8C183.5,70.9,183.7,70.5,184,69.5z"/>
		<path class="st0" d="M677.7,75.3c6.8,0,12.2,5.2,12.3,11.7c0.1,6.6-5.4,11.9-12.3,11.9c-6.9,0-12.3-5.3-12.2-11.9
			C665.5,80.4,670.9,75.3,677.7,75.3z M677.7,97.1c5.8,0,10.5-4.5,10.5-10c0.1-5.6-4.8-10.2-10.7-10.2c-5.7,0.1-10.4,4.7-10.4,10.2
			C667.2,92.7,671.9,97.1,677.7,97.1z"/>
		<path class="st0" d="M677.7,97.1c-5.8,0-10.5-4.5-10.5-10c-0.1-5.5,4.7-10.1,10.4-10.2c5.8-0.1,10.7,4.6,10.7,10.2
			C688.2,92.6,683.4,97.1,677.7,97.1z"/>
		<path class="st0" d="M826.5,73.6c7.7,0.1,13.8,6,13.9,13.5c0,7.5-6.4,13.5-14.1,13.5c-7.8-0.1-13.8-6-13.8-13.5
			C812.4,79.5,818.7,73.5,826.5,73.6z M826.3,77.2c-5.7,0.1-10.5,4.7-10.5,10.2s4.9,10.1,10.6,10.1c5.8,0,10.7-4.8,10.6-10.4
			C836.9,81.6,832,77.1,826.3,77.2z"/>
		<path class="st0" d="M826.3,77.2c5.8-0.1,10.6,4.4,10.7,10c0.1,5.6-4.8,10.4-10.6,10.4c-5.7,0-10.5-4.7-10.6-10.1
			C815.8,81.9,820.6,77.2,826.3,77.2z M826.2,96.1c5.2,0.1,9.3-3.7,9.4-8.7c0.1-4.8-3.9-8.8-8.9-8.9c-5.2-0.1-9.3,3.8-9.4,8.7
			C817.2,92.1,821.1,96,826.2,96.1z"/>
		<path class="st0" d="M826.2,96.1c-5.1-0.1-9-4-8.9-8.9c0-5,4.2-8.8,9.4-8.7c5,0.1,9,4.1,8.9,8.9C835.5,92.4,831.4,96.2,826.2,96.1
			z"/>
	</g>
</g>
</svg>
