<?xml version="1.0" encoding="utf-8"?>
<!-- Generator: Adobe Illustrator 22.1.0, SVG Export Plug-In . SVG Version: 6.00 Build 0)  -->
<svg version="1.1" id="Layer_1" xmlns="http://www.w3.org/2000/svg" xmlns:xlink="http://www.w3.org/1999/xlink" x="0px" y="0px"
	 viewBox="0 0 949.6 949.7" style="enable-background:new 0 0 949.6 949.7;" xml:space="preserve">
<style type="text/css">
	.st0{fill:#DADADA;}
</style>
<g>
	<path class="st0" d="M898.4,471.1c-0.6,19-1,38-1.9,56.9c-0.2,5.2-1.5,10.6-3.2,15.6c-10.8,30.8-19.8,62-25.2,94.3
		c-4.1,24.7-16.6,45.6-32.7,64.1c-10.1,11.6-18.9,23.8-26.4,37.4c-14.3,26.2-34.6,47-59,64.2c-20,14.1-39.7,28.7-59.4,43.2
		c-5.1,3.7-9.6,8.2-14.7,12c-10.4,7.6-20.6,5.9-27.9-4.9c-2.3-3.4-4.1-4.1-8.3-3.2c-6.6,1.4-9.5,3.9-10.1,11
		c-0.8,9.9-7.4,16.6-16.3,19.7c-12.5,4.3-25.5,7.5-38.3,10.7c-19.2,4.8-38.2,10.5-57.7,13.6c-24.4,3.9-49.1,4.9-73.3-1.9
		c-22.2-6.2-44.9-7.5-67.7-8.2c-9.6-0.3-19.4-0.9-28.7-3c-18.5-4.1-27.3-15-28.7-33.9c-0.2-2.8-1.2-4.3-3.9-4.8
		c-1.5-0.3-3-0.6-4.4-1.1c-4.5-1.7-7.7-1.1-11,3.1c-5.8,7.2-13.8,7.7-23.5,2.2c-12.1-7-24.3-13.9-36-21.6
		c-23.6-15.6-47-31.8-66.5-52.5c-8.4-8.8-14.6-19.7-21.7-29.7c-4-5.5-7.6-11.3-11.8-16.7c-16.3-21.1-33.4-41.7-45.1-65.8
		c-14.7-30.2-28.5-61-37.1-93.5c-4.5-17.1-5.9-35.1-7.5-52.8c-2.2-24-3.5-48.2-4.5-72.3c-1.1-26,1.4-51.9,13.1-75.5
		c6.6-13.2,9.5-27,13-40.9c6.8-26.6,16.2-52.4,31.6-75.6c9.1-13.7,17.2-28.1,26.3-41.9c3.9-5.9,8.5-11.6,13.7-16.4
		c21.8-20.6,43.4-41.4,66.1-61.1c24.3-21.1,53-35.5,81.8-49.5c20.6-10.1,41.4-19.9,63.8-25.5c8.3-2.1,17.2-1.7,25.7-3.4
		c16.3-3.4,32.4-7.6,48.6-11.3c28.2-6.4,56.2-4.5,84.1,1.8c35.2,8,70.4,15.9,105.5,24c16.9,3.9,32.5,11,46.2,21.7
		c22.8,17.8,48.5,31,73.1,46c14.5,8.9,28.1,19,40.1,31.3c10.9,11.2,19.5,24,25.1,38.7c3,7.9,6.8,15.4,13.5,20.7
		c19,14.8,30.2,34.8,38.4,56.7c12.1,32.2,24,64.5,35.7,96.9c4.6,12.8,6.6,26.1,6.5,39.7c-0.1,13.8,0,27.7,0,41.5
		C897.9,471.1,898.2,471.1,898.4,471.1z M792.4,538.5c0.6-1.3,1.5-2.5,1.6-3.8c1.5-20.1,3.3-40.1,4.3-60.2
		c0.5-9.2-0.6-18.5-0.9-27.8c-0.5,0.3-0.9,0.7-1.4,1c-1.8-0.8-3.8-1.4-5.3-2.6c-29.3-24.1-58.6-48.3-87.9-72.4
		c-1.3-1.1-2.7-2-4.6-3.3c0,12.4,0,23.8,0,35.5c5.5-0.9,10.8-1.6,14.5,3.2c3.9,5,0.4,9.7-1.4,14.9c19.5,5.9,20.9,21.2,19,38.3
		c4.6-1.6,8.1-3.2,11.8-3.9c7.2-1.5,10.9-6.2,11.9-13c0.8-5.1,0.6-10.3,1.3-15.4c0.2-1.3,1.6-2.4,2.5-3.6c1,1,2.4,1.8,2.8,3
		c2.2,5.8,3.8,12,6.3,17.7c6.6,15.1,3.6,25.8-10.2,34.8c-3.3,2.2-6.6,4.2-10.2,6.5c15.6,17.3,30.8,34.3,46.1,51.3
		c-2.3,2.8-3.9,1.6-5.8-0.6c-13.3-14.9-26.8-29.6-40.2-44.5c-1.2-1.3-1.9-3.1-2.4-4c-11.1,8.5-20.9,15.8-31.1,23.6
		c3.8,4.5,7.1,10.7,12.3,14c12.4,8.1,22.6,18.3,30.9,30.2c4.6,6.5,8.2,14.2,10.3,21.8c1.9,7.1,6.5,11.6,10.8,17.7
		c6.8-16.9,11.4-33.3,14.7-50.1C792.4,544,792.2,541.2,792.4,538.5z M623.4,747.2c8.1,0.1,10.5,2.1,12.4,9.9c0.9,3.8,2,7.6,3.3,12.2
		c4.2-2.7,8-4.5,11.1-7.1c7.5-6.3,14.6-13.1,22.1-19.5c6.7-5.7,13-12.3,20.7-16.3c8.4-4.4,15.2-10.1,20.9-17.4
		c25.2-32.1,43.4-68.2,60.3-105c0.5-1.2,0.6-3.1,0-4.1c-2-3.1-4.4-6-7.1-9.5c-0.8,1.6-1.2,2.5-1.6,3.3
		c-6.1,11.8-11.3,24.3-18.8,35.2c-5.8,8.4-9.9,15.1-1.8,23.9c0.5,0.6-0.5,2.6-0.8,4c-0.5-0.1-1-0.2-1.5-0.3
		c-2.4-4.1-4.9-8.1-7.6-12.6c-10,9.1-21.5,13.5-34,15.7c-1.2,0.2-2.9,2.5-3,3.8c-0.4,5.1-0.1,10.2-0.1,16c-6.3,0-12.1,0-18.6,0
		c0.9,2.5,1.5,4.1,2.1,5.8c4.2,10.7,8.4,21.4,12.7,32c1,2.5,1.2,4.2-2.6,4.3c-4.9-12.4-10-24.8-14.8-37.4c-1.3-3.4-2.9-4.9-6.8-4.8
		c-19.8,0.2-39.7,0.1-59.5,0.1c-1.6,0-3.1,0-5.4,0C611.3,702.7,617.4,724.9,623.4,747.2c-3.7,0.6-4.7-1.8-5.5-4.8
		c-5.3-19.6-10.7-39.1-16.1-58.7c-0.4-1.5-1.7-4-2.7-4.1c-6.8-0.4-13.7-0.2-21.5-0.2c1.5,2,2.4,3,3.1,4.1c6,9.4,9.1,19.7,7.3,30.9
		c-3.4,20.9-15.7,35.6-33.6,45.9c-3.1,1.8-4.1,3.7-3.9,7.1c0.4,6,0.3,12,0.7,18c0.2,3.3-1.1,3.8-3.9,2.7c-0.4-7.6-0.7-15.2-1.1-23.4
		c-19.2,7.8-38.4,10.1-57.8,10.1c0,8.9,0.1,17.4-0.1,25.8c0,1.4-1.3,2.8-1.9,4.1c-0.8-1.4-2.1-2.8-2.2-4.2
		c-0.4-7.2-0.5-14.3-0.5-21.5c0-3.5-1.3-4.5-4.7-4.6c-5.3-0.1-10.7-0.6-15.9-1.5c-10.7-1.9-21.4-4.2-32.8-6.5
		c-1.5,11.3-3,23-4.6,35.3c9.6,1.6,18.6,3.8,27.8,4.7c24.7,2.5,49.1,3.3,72.1-9.3c11.2-6.1,23.7-8.5,36.8-6.5c3.1,0.5,6.3,0.2,9.5,0
		c2.6-0.1,3.7-1.3,3.3-4.2c-0.7-5.4-0.8-11-1.1-16.4c-0.4-6.7,0.6-9.4,7.1-11.4C595.2,754.5,609.3,751,623.4,747.2z M474.8,113.3
		c3.6,7.1,7,13,9.5,19.3c2.3,5.8,5.7,8.9,12.1,8.6c2.6-0.1,5.2,0.8,7.9,1.3c30.8,5.8,60.7,14.9,89.9,26.2
		c22.1,8.5,43.2,18.9,61.5,34.6c5.7,4.9,13.1,7.8,19.6,11.8c8,4.8,16.7,8.7,23.6,14.7c9.3,8.2,17.9,17.5,25.3,27.5
		c15.3,20.8,29.7,42.3,44.3,63.5c9.6,14,16,29.5,20.2,45.9c6.5,25,10.1,50.5,12.4,76.3c2.7,30.8,1.8,61.6-2.8,92.2
		c-5,32.5-15.5,63.2-30.5,92.5c-14.5,28.5-29.2,56.9-49.3,82c-5.3,6.7-12.1,12.3-18.8,17.7c-5.9,4.8-12.9,8.2-18.7,13
		c-9.5,7.9-18.3,16.6-27.6,24.6c-6.7,5.8-14.5,9.2-23.5,9.8c-2.9,0.2-5.9,1-8.8,1.9c-5,1.6-5.6,3.2-2.5,7.6c3.2,4.5,6.7,8.7,10.2,13
		c8.1,9.8,13.5,20.7,15.3,33.6c1,7.2,3.9,14.5,7.6,20.8c5.2,8.9,13.4,10,21.7,3.9c5.2-3.8,9.9-8.4,15.1-12.3
		c20.7-15.2,41.3-30.4,62.2-45.3c22.5-16,41-35.6,54.3-59.8c7.9-14.2,17.1-27.2,27.8-39.4c14.7-16.8,26.7-35.8,30.6-58.1
		c6-34.5,15.4-68.1,26.9-101.1c1.6-4.5,2.4-9.4,2.5-14.2c0.4-32.8,1.2-65.7,0.5-98.5c-0.2-12-2.4-24.3-6.3-35.7
		c-11-32.4-23.2-64.4-35.2-96.5c-8-21.3-18.7-40.8-37.2-55.2c-7.4-5.7-11.6-14-14.9-22.7c-5.4-14.2-13.2-27.1-24.6-37.2
		c-11.9-10.6-24.3-20.9-37.6-29.6c-25-16.2-51.9-29.4-75.4-47.8c-13-10.2-28-16.8-44-20.5c-35-8.2-70-15.9-105-24
		c-30.3-7-60.6-7.6-91-0.1c-15.2,3.8-30.4,7.3-45.7,10.5c-8.6,1.8-17.7,1.5-26,4.1c-30,9.3-58,23.2-85.6,38.1
		c-18.9,10.3-37.7,20.9-53.8,35.3c-20.9,18.8-41.5,38.1-62.1,57.3c-3.8,3.5-7.9,6.9-10.7,11.1c-20.2,30.1-41.1,59.9-53.3,94.5
		c-5.7,16-11.5,31.9-12.6,49.1c-0.1,2.2-1.3,4.5-2.4,6.5c-14.7,25-20.8,52.3-20.1,80.9c0.7,27,3.2,53.9,4.6,80.8
		c1.7,30,8.3,58.5,19.1,86.8c17.3,45.4,39.8,87.5,71.5,124.5c3.8,4.4,7.3,9.2,9.9,14.3c7.5,14.6,17.6,27.1,29.8,37.9
		c28.9,25.6,60.9,47,94.6,65.7c8.5,4.7,15.6,2.8,20.2-5.8c3.2-6.1,6-12.8,7.2-19.5c2.5-14.3,7.1-27.3,18.1-37.4
		c0.5-0.4,0.8-1.1,1.2-1.6c2.9-3.9,2.6-7.6-1.1-10.5c-3.9-3-8.1-6-12.5-8.1c-12.1-5.9-22.7-13.7-32.8-22.6
		c-7.8-7-16.1-13.4-24.4-19.9c-19.6-15.3-37.5-32.2-51.1-53c-11.8-18.1-22.6-36.9-33.5-55.6c-7.2-12.5-12.6-25.9-13.4-40.4
		c-0.8-14.5-4.7-28.1-7.8-42.1c-3.7-17-7.8-34.2-9.3-51.4c-2.5-29,0.6-57.9,6.8-86.4c4.1-19.3,9.3-38.5,22-54.1
		c10.2-12.5,17.6-26.1,23-41.1c4.4-12.2,10-23.9,18.5-34c35.7-42.1,77.4-76.3,128.6-98.3c38.3-16.5,76.8-31,118.9-33.6
		c1.9-0.1,4.4-2.1,5.4-4C467.4,128.7,470.7,121.4,474.8,113.3z M600.9,261c0.1-0.4,0.2-0.9,0.3-1.3c-23.7-14.5-47.3-29-71-43.4
		c1.2-4.8,3.4-2.6,5.5-1.4c23.7,14.5,47.4,29.1,71.3,43.4c2.7,1.6,6.2,2.5,9.3,2.6c17.2,0.2,34.3,0.1,51.5,0.1
		c1.5,0,3.1-0.2,4.6-0.3c-2.2-1.8-4.4-2.8-6.7-3.7c-40.5-16.4-81.1-32.8-121.6-49.2c-3.2-1.3-6.5-2.5-9.7-4
		c-1.3-0.7-2.3-2.2-3.4-3.3c1.7-0.1,3.4-0.3,5-0.3c0.6,0,1.2,0.5,1.8,0.7c35.8,14.5,71.4,29.3,107.4,43.3c17,6.6,32.9,17,51.6,17.9
		c1.7,2.2,3.5,4.4,5.8,5.4c7.7,3.4,15.7,6.4,23.5,9.6c-0.2,3.2-1.3,3.9-4.1,2.7c-7.7-3.3-15.6-6.3-24-9.6c-0.1,2.5-0.2,4.1-0.3,5.7
		c0,10.8,0.2,21.7-0.1,32.5c-0.1,4,1.3,6.3,4.7,8.3c23.1,13.9,46.1,28,69.1,42.1c3.7,2.2,7.3,4.5,11,6.8c-1.4,4.5-3.6,2.5-5.7,1.2
		c-24.6-15-49.2-30-73.7-45.1c-1.4-0.9-3-1.6-5.3-2.7c0,13.7,0.1,26.4-0.1,39c-0.1,3.7,1.2,6.1,4,8.5c30.5,25,61,50.2,91.5,75.3
		c1,0.8,2.1,1.4,3.5,2.4c0-2.1,0.2-3.6,0-5c-2.2-16.3-4.1-32.7-6.9-48.9c-4.5-25.4-12-49.8-27.2-71.2c-11-15.5-21.6-31.2-32.5-46.8
		c-5.3-7.5-10.5-15-16.3-22.1c-11.4-14.2-25.3-25.3-42.3-32.6c-7.1-3-14.1-7.2-19.8-12.3c-13.7-12.2-29.7-20.5-46.1-27.6
		c-32-13.8-65.3-23.8-99.4-30.8c-4.9-1-9.9-1.6-15.1-2.4c2,8.9,6.2,13.9,15.4,13.7c4.8-0.1,9.6,1.2,14.3,1.9
		c7.5,1.1,14.9,2.3,21.6,3.3c-7.3,7.8-13.8,16.5-22,23.1c-9.4,7.5-11.5,15.4-8.3,26.6c2.8,10.1,3.7,20.7,5.6,32
		c-8.2-4.3-15.6-8.1-22.9-12c-6.5-3.4-13-9.4-19.5-9.4c-6.7,0-13.4,5.8-20,9.2c-7.5,3.8-15,7.8-23.3,12.1c1.8-11,2.6-21.4,5.5-31.2
		c3.7-12.3,0.7-20.7-9.3-28.6c-7.9-6.2-14.1-14.5-20.9-21.8c-0.1,0.1,0.4-0.3,1-0.4c12.3-1.8,24.7-3.6,37.1-5.2
		c8.4-1.1,12.4-5.3,13.1-14.3c-44.4,3-85,18-124.7,36.9c14,0,27.6,0.1,41.2,0c8.7-0.1,17.3-0.4,26-0.7c2.3-0.1,4.6-0.1,3.1,4
		c-2.8,0-5.8-0.1-8.7,0c-21.5,0.6-43,1.3-64.5,1.9c-3,0.1-6.4-0.4-9,0.8c-26,12.1-49.4,28.3-70.2,48.1c-0.7,0.7-1.2,1.6-2.5,3.3
		c20.4-6.1,39.7-11.8,58.9-17.5c33.6-10,67.2-20,100.9-30c4.2-1.3,4.2-1.2,5.1,2.6c-1.5,0.5-3.1,1.1-4.6,1.6
		c-52.6,15.7-105.2,31.4-157.9,46.8c-7.1,2.1-12.6,5.6-17.8,10.8c-18,17.8-33.2,37.3-40.8,61.9c-3.7,12.1-10.8,22.3-18.5,32.3
		c-5.5,7.2-10.2,15.3-13.8,23.6c-8.3,18.9-11.7,39.1-14.3,59.4c-4.5,35.2-3.9,70,5.9,104.4c3.5,12.1,6.9,24.5,8,37
		c1.4,16.1,4.6,31.3,12.4,45.3c8.5,15.3,17.9,30,26.5,45.2c10.8,19.1,24.8,35.4,40.8,50.2c6.1,5.6,12.5,10.7,19.4,16.6
		c2.4-5.9,4.4-10.8,6.2-15.8c0.3-0.8,0.2-2.2-0.3-2.8c-6.1-7.1-6.6-15.8-7.2-24.4c-0.3-3.8-1.8-6.3-5.8-6.1c-1-6.1-2.7-7.2-9.7-7.1
		c-4.6,0.1-9.3,0.2-13.9-0.3c-12.7-1.4-21.3-8.6-23-20c-1.8-12.5,0.6-24.4,10.2-33c7-6.1,9.3-13.3,9.9-21.7c0.2-2.8,0.1-5.7,0.2-8.5
		c0.2-7.1,3.3-12.6,9.8-15.6c3.9-1.8,8-3.4,12.1-4.5c3.1-0.8,4-2.2,3.9-5.1c-0.2-6.7,0-13.3,0-20c0-7.1,0-14.2,0-21.3
		c-2,0.9-3.1,2.1-3.9,3.3c-6.7,9.7-13.4,19.5-20.2,29.2c-13.1,19.1-26.3,38.1-39.4,57.2c-1.3,1.9-2.5,4.9-5.5,1
		c1.1-1.6,2.1-3.3,3.2-4.9c20.9-30.3,41.9-60.6,62.6-91c1.7-2.4,3-5.7,3-8.6c0.2-21.5,0.1-43,0.1-64.5c0-1.3-0.2-2.7-0.4-4.8
		c-1.8,1.8-2.9,2.8-3.8,3.9c-10.5,11.9-21,23.7-31.4,35.6c-16.1,18.2-32.2,36.5-48.3,54.7c-1.7,1.9-3.4,4.7-5.7,0.3
		c2.1-2.4,4-4.6,6-6.9c26.6-30.1,53.2-60.2,79.8-90.2c2.7-3,4.1-6.1,4-10.2c-0.2-14-0.1-28-0.1-42c0-1.7-0.2-3.5-0.3-6.4
		c-2.2,1.9-3.5,3.1-4.8,4.3c-31,28.1-61.9,56.2-92.9,84.4c-1.9,1.7-3.7,3.9-5.6-0.3c1.4-1.3,2.8-2.7,4.3-4
		c31.8-28.9,63.6-57.8,95.5-86.7c2.7-2.4,3.9-4.9,3.8-8.6c-0.2-13.8-0.1-27.7-0.1-41.5c0-1.5-0.2-3.1-0.4-5.4
		c-5.3,3.5-9.7,6.5-14.1,9.5c-18.5,12.5-36.9,25.1-55.4,37.6c-1.9,1.3-4.2,3.7-5.4-1.1c1.3-0.9,2.6-1.9,3.9-2.8
		c22.3-15.2,44.6-30.4,67-45.4c3.1-2.1,4.5-4.3,4.4-8.1c-0.2-14.2-0.1-28.3-0.1-42.5c0-1.8,0-3.6,0-5.9c2.4,0,4.2,0,6,0
		c22.2,0,44.3-0.1,66.5,0.1c4.4,0,8-1.1,11.5-3.6c27.1-18.5,54.2-37,81.4-55.4c1.6-1.1,3.2-2.1,4.8-3.1c3.8,3.4,0.5,4.4-1.4,5.7
		c-25.1,17.1-50.1,34.1-75.2,51.1c-2,1.3-3.9,2.8-5.8,4.2c8.3,1,16.3,0.5,24.2,1.2c7.3,0.6,12.4-2,17.6-6.9c14.7-14,30-27.4,45-41
		c4.2,2.4,1.6,4-0.2,5.7c-13.8,12.6-27.6,25.1-41.4,37.7c-1.3,1.1-2.4,2.4-4.4,4.5c7,0,12.7,0.3,18.3-0.1c2.3-0.2,5.1-1.4,6.7-3
		c7.2-7.6,14-15.6,21-23.5c3.6,1.4,2.8,3,0.9,5.2c-6.1,6.7-12,13.6-18.9,21.4c5.2,0,9-0.2,12.7,0.1c3.3,0.3,5.3-1,6.9-3.7
		c2.4-3.9,5.2-7.6,7.8-11.4c0.6,0.3,1.1,0.5,1.7,0.8c2.4,6-5.9,8.5-5.8,14.2c6.8,0,13.5,0,20.7,0c1.1-3.8,2.3-8,3.7-12
		c0.3-0.8,1.5-1.2,2.3-1.8c0.5,0.9,1.4,1.9,1.3,2.7c-0.5,2.8-1,5.6-2.2,8.2c-2.5,5.5,0.7,7.4,5.2,9.3c1.5-7.6,2.9-15,4.5-22.3
		c0.4-1.8,1.9-3.3,2.8-4.9c0.4,1.8,1.2,3.7,1,5.4c-0.9,5.7-1.4,11.7-3.4,17.1c-3.3,9.1,2.2,14.1,7.4,20.1c3.2-3.9,5.7-7.9,9-11.1
		c3-2.9,3.3-5.6,2.1-9.3c-2.2-7.1-4-14.3-6-21.8c1.3-0.2,2.8-0.6,2.8-0.5c2.9,8.1,5.7,16.2,8.3,23.6c5.6-1.2,10.8-2.4,16.5-3.7
		c-2.1-5.4-4.2-11-6.3-16.5c2.3-2.1,3.7-1.9,4.7,1.1c1.6,4.4,3.3,8.7,5.2,13c0.5,1.2,1.7,3.1,2.6,3.1c6.8,0.3,13.7,0.1,21.8,0.1
		c-5.2-5.7-9.2-10.3-13.4-14.8c-2-2.2-1.9-3.7,1.2-4.8c5,5.5,10,11.1,15,16.6c1.1,1.2,2.5,2.8,3.8,2.9c7.7,0.3,15.4,0.1,24.6,0.1
		c-2.7-2.4-4.1-3.7-5.7-4.9c-9.6-8-19.2-15.9-29-23.8c-2.4-1.9-2.9-3.4,0.3-5.1c12.6,10.4,25.2,20.8,37.8,31.1
		c1.4,1.1,3.1,2.5,4.6,2.6C583.7,261.1,592.3,261,600.9,261z M311.9,562.5c3.6,0.2,7.2,0.6,10.8,0.7c9.2,0.1,18.3,0,27.5,0.1
		c0.9,0,1.7,1.4,2.6,2.1c-0.9,0.7-1.8,1.8-2.8,1.9c-2.3,0.3-4.7,0.1-7,0.1c-4.8,0-9.7,0-14.8,0c6.6,9,14.7,12.2,24.8,10.6
		c1.8-0.3,3.7-0.3,5.5,0c1.4,0.2,2.6,1.2,3.9,1.8c-1.4,0.8-2.7,2.2-4.1,2.2c-4.4,0.3-8.8,0.1-13.9,0.1c5.1,8,10.8,12.7,20.4,10.5
		c0.1,0.6,0.2,1.2,0.3,1.8c-1.4,1.2-2.8,2.5-4.5,4c7.2,4.4,13.6,9.9,23.5,9.6c20-0.6,40-0.1,60-0.2c6.1,0,11.6,1.6,16,5.7
		c3.4,3.1,6.4,6.7,9.4,10.3c0.8,0.9,0.8,2.5,1.2,3.7c0.9-0.7,1.8-1.4,2.6-2c-0.7-2.6-1-5.5-2.3-7.7c-2-3.4-4.7-6.5-7.2-9.6
		c-4.5-5.5-9.4-10.4-17.1-11.2c-1-0.1-1.9-1.9-2.8-2.9c14.1-1.2,20.7,8.8,28.7,17c-0.1-3.3-0.5-6.2-1.9-8.6c-1.7-3-4-5.7-6.3-8.4
		c-5.3-6.4-10.8-12.3-20.2-12.1c-0.9,0-1.9-1.8-2.9-2.8c15.4-2.6,22.6,7.9,31,17c0.1-2.9,0.2-5.8-1.1-7.8c-2.9-4.5-6.3-8.6-9.8-12.6
		c-5-5.9-11.1-9.5-19.2-8.6c-2.3,0.3-4.7,0.2-7-0.1c-0.9-0.1-1.7-1.3-2.6-2.1c0.9-0.7,1.7-1.9,2.7-2c12.6-1.4,23.5,1.5,31.3,12.3
		c1.6,2.2,3.4,4.2,5.2,6.2c0.5-0.3,1-0.5,1.5-0.8c-0.8-2.7-1.2-5.7-2.6-8.1c-2-3.4-4.7-6.5-7.2-9.6c-5.7-7.1-12.3-12.1-22.2-11
		c-1.2,0.1-2.6-1.1-3.9-1.7c1.2-0.7,2.4-2,3.7-2.1c10-1.2,17.8,3.1,24,10.5c2.2,2.6,4.4,5.2,6.9,8.2c0.9-6.3,0.5-6.1-4.4-13.6
		c-8.3-12.7-19.1-19.2-35.2-16.3c0.7-1.9,1.5-3.5,2.5-3.6c11.1-1,21.7-0.2,29.5,9.5c2.3,2.9,4.8,5.8,7.2,8.7c0.5-0.2,1-0.4,1.6-0.6
		c-0.9-2.9-1.6-5.9-2.9-8.6c-1-2.1-2.7-3.8-4.1-5.6c-5.8-7.4-11.6-14.9-22.5-14.5c-0.6,0-1.3-1.1-1.9-1.7c0.7-0.7,1.3-1.6,2.1-2
		c0.7-0.3,1.6-0.1,2.5-0.1c8.7,0.1,14.3,5.5,19.6,11.5c2,2.2,3.8,4.5,5.7,6.8c0.4-0.2,0.8-0.4,1.2-0.6c-0.4-2.4-0.2-5.2-1.5-7
		c-3.7-5.3-7.8-10.4-12.2-15.1c-4.2-4.6-9.6-6.9-16.1-6.6c-5.2,0.2-10.3,0.2-15.5-0.1c-1.4-0.1-2.8-1.3-4.2-2c1.3-0.6,2.6-1.7,4-1.7
		c4.7-0.2,9.4,0.3,14-0.2c10.4-1,18,3.7,24.3,11.3c2,2.4,3.9,4.8,5.9,7.1c0.4-0.2,0.8-0.3,1.3-0.5c-0.4-2.5-0.2-5.4-1.5-7.3
		c-3.2-4.8-7-9.3-10.8-13.7c-4.9-5.6-11-8.1-18.6-8c-17.2,0.3-34.3,0.1-51.5,0c-1.6,0-3.1-1.3-4.7-2c1.5-0.6,2.9-1.7,4.4-1.7
		c18.3-0.1,36.7-0.4,55,0.1c4.7,0.1,9.7,2.3,13.7,4.9c4,2.7,7,7,10.3,10.7c0.8,0.9,0.9,2.4,1.3,3.6c3.7-8.2-1.5-11.7-4.5-16
		c-6.2-8.7-13.5-15.8-25.5-14.6c-1,0.1-2.1-1.3-3.2-2c1.2-0.6,2.3-1.6,3.5-1.7c10-1.2,17.8,2.9,24.1,10.4c2.2,2.6,4.4,5.3,6.5,7.9
		c0.6-0.2,1.1-0.5,1.7-0.7c-1-2.9-1.5-6-3-8.6c-2.2-3.7-5.1-7-7.9-10.3c-5.5-6.8-12.3-9.9-21.3-9.8c-37.8,0.3-75.7,0.1-113.5,0.1
		c-1.5,0-3.1,0.3-4.5-0.2c-1.1-0.4-1.8-1.8-2.7-2.8c0.4-0.3,0.7-0.7,1.1-1c2,0,4,0,6,0c38,0,76,0.2,114-0.1
		c10.1-0.1,17.7,3.7,23.9,11.1c2.1,2.5,4.2,5,6.2,7.5c0.5-0.2,0.9-0.4,1.4-0.6c-0.6-2.6-0.6-5.5-1.9-7.6c-2.9-4.5-6.3-8.6-9.8-12.6
		c-4.9-5.7-11-9.1-18.8-8.3c-2.3,0.2-4.7,0.3-7-0.1c-1.2-0.2-2.1-1.8-3.5-3.1c18.7-4.5,30.6,3.8,40.5,17.4c-0.1-3.5-0.5-6.4-1.9-8.8
		c-1.8-3.2-4.3-5.9-6.6-8.8c-5.2-6.3-10.7-11.9-19.9-11.6c-0.8,0-1.8-2.1-3.2-3.8c7.9-0.7,13.5,1.1,18.4,4.9
		c4.8,3.7,9.8,7.3,14.7,10.9c-0.4,0.6-0.7,1.2-1.1,1.7c-0.5-2.5-0.4-5.3-1.7-7.3c-3.1-4.7-6.8-9.1-10.5-13.4
		c-4.7-5.4-10.5-7.9-18-7.9c-38.7,0.2-77.3,0.1-116,0.1c-1.9,0-3.8,0-5.7,0c-1-5.6,2.7-4.2,4.9-4.2c38.5-0.1,77,0.1,115.5-0.2
		c9.8-0.1,17.4,3.4,23.6,10.8c2.2,2.6,4.4,5.3,6.6,7.9c0.4-0.1,0.8-0.3,1.2-0.4c-0.4-2.5-0.1-5.4-1.4-7.3c-3.7-5.3-7.6-10.6-12.3-15
		c-3.1-2.9-7.6-4.3-11.5-6.4c-1.2-0.7-2.3-1.5-3.5-2.3c1.3-0.5,2.7-1.6,4-1.5c7.6,0.6,12.6,5.5,17.3,10.7c2.1,2.4,4.1,4.9,6.5,7.7
		c0.3-1.1,0.5-1.4,0.5-1.7c1.2-7.2-4.7-11-8.2-15.8c-5.7-8-12.8-13.6-23.5-12.3c-1.1,0.1-2.3-1.1-3.4-1.7c1.2-0.7,2.4-1.9,3.7-2.1
		c10-1.3,17.8,3,24,10.5c2.2,2.6,4.4,5.2,6.5,7.8c0.4-0.2,0.9-0.4,1.3-0.6c-0.6-2.6-0.6-5.6-2-7.7c-2.8-4.3-6.1-8.3-9.4-12.3
		c-5.1-6-11.4-9.6-19.7-8.9c-2.3,0.2-4.7,0.2-7-0.1c-0.8-0.1-1.5-1.2-2.2-1.8c0.8-0.6,1.5-1.7,2.3-1.8c12.5-1.4,23.6,0.8,31.4,11.9
		c1.6,2.2,3.5,4.2,5.2,6.4c0.4-0.2,0.9-0.3,1.3-0.5c-0.5-2.5-0.2-5.5-1.5-7.3c-3.6-5.2-7.6-10.1-11.9-14.8
		c-3.8-4.2-8.6-6.7-14.5-6.9c-1.1,0-2.1-1.2-3.2-1.9c1.1-0.6,2.2-1.7,3.3-1.8c8.7-0.5,14.7,4.5,20,10.5c2.3,2.5,4.3,5.2,6.5,7.8
		c0.4-0.2,0.9-0.4,1.3-0.5c-0.5-2.5-0.3-5.4-1.6-7.4c-3.3-4.9-7.2-9.6-11.2-14.1c-4.7-5.3-10.6-7.6-17.8-7.5c-20,0.2-40,0.1-60,0
		c-1.6,0-3.1-1.3-4.7-2c1.6-0.6,3.2-1.8,4.8-1.8c19.7-0.1,39.3,0.3,59-0.2c10.4-0.3,17.9,3.9,24.2,11.5c1.9,2.4,3.9,4.7,5.8,7.1
		c0.4-0.2,0.9-0.4,1.3-0.6c-0.5-2.5-0.3-5.4-1.6-7.3c-3.4-4.9-7.2-9.6-11.2-14.1c-4.7-5.3-10.6-7.8-17.8-7.5
		c-6.2,0.2-12.3,0.2-18.5,0c-1.7-0.1-3.3-1.2-4.9-1.8c1.6-0.7,3.1-1.9,4.7-2c5.5-0.2,11,0.3,16.5-0.2c11.6-1.1,19.9,4,26.7,12.7
		c1.6,2,3.2,3.9,4.9,5.9c0.4-0.2,0.9-0.4,1.3-0.6c-0.5-2.5-0.4-5.4-1.7-7.4c-3.2-4.8-7-9.3-10.8-13.7c-4.6-5.3-10.5-8.1-17.7-7.6
		c-2.5,0.2-5,0.1-7.5-0.1c-0.8-0.1-1.6-1.2-2.4-1.9c0.7-0.7,1.4-1.9,2.1-2c11.6-1.1,22.3,0.5,30.1,10.5c2.1,2.7,4.3,5.2,6.5,7.8
		c0.4-0.2,0.9-0.4,1.3-0.6c-0.5-2.5-0.4-5.4-1.7-7.3c-3.2-4.8-7-9.3-10.8-13.7c-4.6-5.3-10.4-7.9-17.7-7.6
		c-9.8,0.3-19.7,0.1-29.5,0.1c-2.9,0-4.7-0.6-2.7-4.2c10.1,0,20.3,0.4,30.4-0.1c10.5-0.5,18.3,3.7,24.7,11.5c1.9,2.4,3.9,4.7,5.9,7
		c0.4-0.2,0.8-0.3,1.2-0.5c-0.4-2.3,0-5.2-1.2-6.9c-4-5.5-8.3-10.9-12.9-15.9c-3.9-4.2-8.9-6.2-14.8-5.8c-4,0.2-8,0.2-12-0.1
		c-1.1-0.1-2.2-1.3-3.3-1.9c1-0.8,2-2,3.1-2.2c2.6-0.3,5.3,0.1,8-0.1c11.8-1.2,20.6,4,27.5,13.1c1.5,1.9,3,3.7,4.6,5.6
		c0.5-0.2,1-0.4,1.5-0.5c-0.6-4.3-0.4-8.9-2.2-12.7c-2-4.3-5.6-7.8-8.7-11.5c-5.3-6.4-12-9.3-20.5-9.3c-41.2,0.2-82.3,0.1-123.5,0.1
		c-2.1,0-4.2,0.2-6.6,0.3C311.9,364.3,311.9,462.9,311.9,562.5z M476,311.5c0.6,0.2,1.2,0.5,1.8,0.7c3-3.3,5.8-6.7,9-9.8
		c4.5-4.5,10-7.3,16.5-7.1c1.2,0,2.4,1.3,3.6,2.1c-1.1,0.7-2.2,1.9-3.3,1.9c-6.6-0.1-11.5,3.1-15.6,7.7c-3.2,3.6-6.4,7.3-9,11.3
		c-1.5,2.4-1.9,5.5-2.8,8.3c0.6,0.5,1.1,1.1,1.7,1.6c9.7-17.8,25.1-20.4,44.2-17.2c-1.9,1.5-2.9,2.9-4.1,3c-2.4,0.4-5,0.4-7.5,0.1
		c-12.4-1.6-21.1,4-27.8,13.8c-1.2,1.8-2.9,3.3-3.8,5.3c-1.2,2.6-1.8,5.5-2.7,8.3c0.5,0.2,1,0.5,1.6,0.7c2-2.3,3.9-4.7,6-7
		c5.1-5.6,10.8-10.1,18.8-10.1c40.5-0.1,81-0.1,121.5,0c1.3,0,2.6,1.2,3.8,1.8c-1.3,0.7-2.4,1.6-3.8,2c-1.2,0.3-2.6,0.1-4,0.1
		c-36.8,0-73.7,0.3-110.5-0.2c-11.2-0.2-19.3,3.7-25.6,12.4c-1.9,2.6-4.2,4.9-5.6,7.7c-1.2,2.3-1.3,5.2-1.9,7.8
		c4.1-2.8,6.7-6.1,9.6-9c4.7-4.7,10.3-8,17.3-7.6c1.2,0.1,2.3,1.1,3.4,1.7c-1.1,0.7-2.1,2-3.2,2c-6.3,0.2-11.3,3-15.3,7.4
		c-3.5,3.8-6.8,7.8-9.6,12.1c-1.5,2.3-1.6,5.4-2.4,8.1c0.5,0.1,1,0.3,1.4,0.4c2.9-3.2,5.3-7,8.7-9.5c4.2-3,9-6.3,13.9-7.1
		c7.3-1.2,14.9-0.4,22.4-0.3c0.9,0,1.9,1.2,2.8,1.8c-0.9,0.7-1.8,1.8-2.7,1.9c-4,0.2-8,0.5-12,0c-12.6-1.6-21.5,4.1-28.3,14
		c-1.2,1.8-2.9,3.3-3.8,5.3c-1.2,2.6-1.8,5.5-2.7,8.3c0.5,0.2,1,0.4,1.4,0.6c3-3.3,5.8-6.7,9-9.8c4.8-4.7,10.4-7.8,17.4-7.1
		c1,0.1,1.9,1.2,2.8,1.9c-1,0.6-1.9,1.8-2.9,1.8c-6.9-0.1-12.1,3.4-16.4,8.2c-3,3.3-5.9,6.8-8.3,10.6c-1.6,2.6-2.1,5.8-3.1,8.7
		c0.4,0.2,0.9,0.4,1.3,0.6c0.5-0.4,1.1-0.6,1.4-1.1c8.9-14.8,22.8-17.6,38.5-15.8c1.2,0.1,2.3,1.2,3.4,1.9c-1.1,0.7-2.1,1.8-3.2,1.9
		c-3.8,0.2-7.7,0.3-11.5,0.1c-6-0.4-11.5,1-15.6,5.3c-4.6,4.8-8.8,10-12.7,15.4c-1.2,1.7-0.9,4.5-1.2,6.8c3.7-2.5,6.2-5.5,9-8.4
		c4.8-5,10.4-8.4,17.6-8.1c1.2,0.1,2.4,1.4,3.6,2.1c-1.1,0.6-2.2,1.8-3.4,1.8c-5.8-0.1-10.4,2.4-14.2,6.3c-3.8,4-7.3,8.2-10.4,12.8
		c-1.5,2.3-1.8,5.4-2.7,8.2c0.5,0.2,1.1,0.4,1.6,0.7c2-2.4,4-4.7,6-7.1c6.4-7.5,14.5-10.9,24.3-10.1c2.8,0.2,4.2,0.9,2.9,4.4
		c-8.3-0.7-16.3,0-22.7,6.8c-9.5,10-12.4,14.9-10.6,21.4c8.3-11.8,17.9-20.4,33.4-17.2c1.6,4.1-1.4,4-3.9,3.7
		c-9.7-1.1-16.6,3.5-22.3,10.7c-2.2,2.8-4.6,5.4-6.3,8.4c-1.3,2.4-1.7,5.4-2.5,8.2c0.5,0.2,1,0.4,1.6,0.6c1.9-2.2,3.8-4.5,5.7-6.7
		c6.1-7.1,13.5-10.8,23.2-10.5c12.5,0.4,25,0,37.5,0.2c1.5,0,3,1.4,4.5,2.1c-1.6,0.7-3.2,2-4.8,2c-12,0.2-24,0.6-36-0.1
		c-10.1-0.6-17.3,3.4-23.2,11.1c-2,2.6-4.4,5.1-5.9,8c-1.4,2.5-1.8,5.5-2.7,8.3c0.5,0.4,1.1,0.8,1.6,1.1c8.3-11.8,18-20.7,33.6-17
		c1,4.1-2,3.5-4.2,3.3c-9.5-0.8-16.3,3.5-21.9,10.6c-2.3,2.9-4.8,5.6-6.6,8.8c-1.4,2.4-1.7,5.4-2.5,8.2c0.5,0.2,1,0.3,1.5,0.5
		c0.5-0.6,1.2-1.1,1.6-1.7c9.1-14.9,23.3-16.8,38.8-15.2c0.9,0.1,1.7,1.1,2.5,1.6c-0.9,0.7-1.7,1.9-2.6,2c-2.5,0.3-5,0.4-7.5,0.1
		c-12.4-1.6-21.1,4-27.9,13.8c-1.3,1.9-3.1,3.6-4,5.7c-1.2,2.6-1.6,5.4-2.6,9c1.7-0.6,1.9-0.6,2-0.7c1.2-1.4,2.4-2.7,3.6-4.2
		c6.7-8.7,15.1-12.9,26.6-12.7c30.5,0.6,61,0.2,91.5,0.1c1.8,0,4.3-0.5,5.2-1.7c1.9-2.5,3-5.7,4.7-9c-2-0.1-3.4,0-4.6-0.4
		c-1.4-0.4-2.7-1.1-4-1.7c1.4-0.7,2.9-2.2,4-2c8.8,1.7,11.9-5,17.1-11.1c-2.9,0-4.7,0-6.4,0c-8.3,0-16.7,0.1-25-0.1
		c-1.4,0-2.7-1.4-4-2.1c0.2-0.5,0.5-1,0.7-1.5c1.1-0.1,2.3-0.3,3.4-0.3c11,0,22,0,33,0c8.1,0,14.2-6,14.2-13.8
		c0-57.8,0-115.6,0-173.5c0-2.1-0.2-4.2-0.3-6.8c-2.7,0-4.8,0-6.9,0c-40,0-80,0.3-120-0.2c-12-0.2-20.6,4-27.2,13.4
		c-1.2,1.8-2.4,3.6-3.9,5.2c-4,4.1-3.2,8.9-1.9,14.1c1-0.5,1.4-1.4,2-2.2c7.8-11.6,18.5-16.8,32.5-15c1.5,0.2,2.8,1.4,4.2,2.1
		c-1.4,0.7-2.7,1.7-4.2,2.1c-1.2,0.3-2.7,0.2-4,0c-10.5-1.4-17.9,3.4-23.9,11.4c-1.7,2.3-3.7,4.3-5.1,6.8
		C477.9,305.5,477.1,308.6,476,311.5z M228,612.2c2.3,0.2,4.2,0.3,6.1,0.5c16.2,1.8,32.6,2.5,48.5,5.7c27.4,5.5,49.2,19.6,59.7,46.8
		c6.3,16.2,15.6,30.4,25,44.8c13.6,20.8,31.1,37.3,53.9,47.6c14.4,6.5,29.5,10.2,45.1,11.9c23.7,2.6,47.3,2.1,70.1-5.5
		c20.5-6.8,36.5-18.9,44.7-39.7c5-12.8,3.8-25.2-3.1-36.9c-6.2-10.4-18.9-10.8-26.2-1.1c-1.6,2.1-3,4.4-4.5,6.6
		c-4,6.3-9.5,10.1-17,11c-20.6,2.5-41.2,2.6-61.5-2.8c-21.7-5.7-39.7-16.9-52-36.2c-5.6-8.8-11.7-17.4-17.1-26.4
		c-7.8-12.9-18.4-22.4-31.3-30.2c-8.4-5.1-15.9-11.9-23.5-18.3c-4.3-3.6-7.9-8.1-12-12c-8.8-8.5-19.2-13.3-31.6-12.4
		c-11.9,0.9-23.8,2-35.6,3.8c-8.5,1.3-16.9,3.4-25.2,5.7c-4.5,1.3-9,4-9.8,9.1C229.5,593.2,229,602.5,228,612.2z M483.7,903.7
		c0,0.5,0,0.9,0.1,1.4c12.9-1.4,25.9-2,38.6-4.5c19.4-3.8,38.6-8.8,57.7-13.7c11.4-2.9,22.9-5.9,33.7-10.4
		c10.5-4.3,15.6-15.9,11.9-26.1c-1.9-5.3-6.3-10.1-10.3-14.3c-7.3-7.6-9.7-16.6-9.8-26.8c-0.1-6-0.6-12-1.4-17.9
		c-0.6-4.4-3.8-6.2-8.1-5.1c-3.4,0.9-6.8,1.9-9.8,3.5c-7.4,4-15.2,5.9-23.6,4.8c-13.9-1.7-26.7,1.7-39.1,7.7
		c-6.1,2.9-12.5,5.8-19.1,7.1c-22.4,4.3-44.8,2.9-67-1.5c-25.3-5-50.4-10.6-75.7-15.8c-5-1-10.2-1.5-15.3-1.8
		c-3.3-0.2-4.4,1.9-3.7,4.9c0.3,1.5,0.6,3,1.4,4.2c3.9,5.8,1.8,10.8-1.4,16.1c-5.6,9-11.2,18.1-16.2,27.5c-2.1,3.8-3.6,8.4-3.8,12.7
		c-0.8,17.2,8.5,29.6,26.4,32.8c13.5,2.4,27.5,2.1,41.2,3.3c14.2,1.3,28.6,2.3,42.6,5C449.8,900.4,466.2,905.8,483.7,903.7z
		 M729.9,555.8c2,12.7-0.3,23.9-6.6,34.2c-4.2,6.9-10.2,10.6-18.7,10.1c-8.6-0.5-17.3-0.2-26-0.6c-26.2-1-52.1-3.8-76.8-13.2
		c-18.3-7-37.3-9.5-56.7-9.4c-4.9,0-9.9,0.9-14.7,2.1c-4.4,1.1-7.8,4-8.7,8.7c-2.2,12.1-0.7,23.8,4.1,35.1c0.3,0.8,1.3,1.5,2.2,1.7
		c9.5,3.2,19,6.8,28.7,9.4c19.8,5.2,39.5,10.4,59.6,14.5c25.9,5.3,52,9.8,78.7,7.6c18.9-1.6,35-8.7,45.6-24.9
		c7.4-11.4,13.3-23.8,19.8-35.7c3.9-7.2,4.1-14.9,0.6-22.1c-3-6.1-6.9-11.7-10.7-17.3c-0.7-1.1-2.8-2-4.1-1.9
		C740.7,554.4,735.5,555.2,729.9,555.8z M670.5,456.7c-0.4-0.6-0.7-1.3-1.1-1.9c-2,0.1-3.9,0.5-5.9,0.4c-3.3-0.3-6.9-0.1-9.7-1.6
		c-3.5-1.9-6.3-1.6-9.4,0c-3.1,1.6-6.3,3.1-9.2,5.1c-15.8,10.6-28.2,24.4-29.9,43.9c-1.1,11.9,0.6,24.3,3.1,36.1
		c5.1,25.1,18.7,34.2,44.1,31.5c10.4-1.1,19.5-5.2,28.3-10.6c6.5-4,12.9-8.3,19.6-12c7-3.9,14.8-4.8,21.2,0.4c7.5,6,14.8,2.2,22.7,1
		c-6.4-6.3-12.9-12.1-20-17.2c-4.8-3.5-10.7-4.8-16.7-3.2c-13.5,3.4-27.1,6.6-40.4,10.8c-11.7,3.6-23.2,5.8-35.3,3.3
		c-11.4-2.4-18.4-10.5-19.8-22.8c-1.3-10.6,3.6-20.3,13.3-24.6c13.4-5.9,26.8-6.2,39.2,3c9.1,6.7,19.3,10.3,30.4,11.6
		c13.9,1.6,24.1-5.6,34.2-13.6c7.9-6.3,16.2-12.2,24.3-18.3c1.6-1.2,3.2-2.3,4.9-3.5c11.9-8.3,7.9-25.1,0.4-32.8
		c-0.2,0.9-0.4,1.7-0.6,2.5c-1.8,9.4-6.9,15.4-16.7,17.6c-3.8,0.8-7.2,3.3-10.8,4.9c-1.2,0.6-2.6,1-4.9,1.9
		c0.3-6.5,0.7-11.9,0.9-17.3c0.5-12.9-4.6-20.3-16.8-24.6c-1.8-0.6-3.6-1.3-5.4-2c1.9-3.2,3.8-5.8,5-8.6c1.8-4.5-0.4-8.1-5.2-7.5
		c-3.1,0.4-7.5,2.1-8.6,4.4c-1.3,2.9-0.7,7.5,0.7,10.6c1.7,3.7,5,6.6,7.8,9.7c6,6.8,8.8,14.8,9.5,23.7c0.1,1.2-0.5,2.7-1.3,3.8
		c-2.9,4.2-6.5,8-8.7,12.5c-2.5,5-6.2,7.2-11.4,7.4c-3,0.1-6,0-9-0.3c-10.6-0.8-21.1-2.6-31.5,1.9c-2,0.9-6.3,0.1-7.6-1.6
		c-1.7-2.1-2.3-5.9-1.8-8.6c1.1-5.2,5.1-8.6,10.2-9.9c4-1.1,8.2-1.2,12.3-2.2C667,459.4,668.7,457.8,670.5,456.7z M269.5,713.9
		c-2.2,5.4-4,9.7-5.5,14.1c-0.3,0.9,0.1,2.8,0.8,3.4c11.2,9.5,22.2,19.2,33.8,28.1c5.4,4.2,11.9,7,18.2,10.6
		c3.1-7.4,6.2-13.9,8.6-20.6c2.9-8.1,7.5-10.1,14.8-5.6c2,1.2,4,2.5,5.5,4.3c4.4,5.3,10,7.9,16.6,9.1c7.2,1.4,9.4,5.1,7.3,12.4
		c-1.7,6.1-4.2,12.1-6.4,18.4c19.5,4.2,38.8,8.4,58.5,12.6c1.4-11,2.7-21.6,4.2-32.1c0.5-3.4-0.5-5-3.7-6.3
		c-16.7-6.9-31.1-17.3-43.2-30.7c-1.1-1.2-1.7-2.8-2.5-4.3c-0.6,0.4-1.1,0.8-1.7,1.2c-1.5,7.3-2.9,14.5-4.3,21.8
		c-0.5,2.7-1.4,4.4-4.6,2.5c1.7-8.9,3.6-17.7,5-26.5c0.3-1.9-0.3-4.2-1.3-5.9c-8-12.8-16.2-25.6-24.5-38.2c-0.9-1.4-3.3-2.5-5.1-2.5
		c-1.1,0-2.9,1.9-3.3,3.3c-2.5,8.1-4.7,16.3-7.1,24.4c-1.2,4.3,0.4,7.7,3.5,10.6c1-0.6,1.9-1.2,2.7-1.7c5.3-2.8,9.8-2,12.9,2.2
		c3.6,4.8,3.5,12.3-0.2,16.2c-3.4,3.5-7,3.5-12.6-0.1c-3.8-2.5-7.5-5.2-11.7-8.1c-3.4,11.7-6.7,22.7-9.6,33.8
		c-0.9,3.4-2.2,3.6-4.7,1.6c3.3-11.7,6.6-23.4,9.8-35.1c0.4-1.3,0.6-3.4-0.1-4.1c-6.1-5.5-12.4-10.7-19.7-16.8
		c-1.2,5.1-3.8,9.8-2.6,13c3.7,10,4.5,20.1,4,30.4c-0.1,1.6-1.6,3.2-2.5,4.8c-1-1.7-2.9-3.3-3-5c-0.5-6.3-2.6-11.8-6.9-16.2
		C283.1,726.7,276.6,720.7,269.5,713.9z M475.8,520c0.6,0.3,1.2,0.6,1.8,0.9c2.7-3.1,5.3-6.3,8.2-9.2c4.5-4.5,9.5-7.8,16.2-7.8
		c12.8,0,25.7-0.1,38.5,0.1c1.3,0,2.5,1.3,3.8,1.9c-1.3,0.6-2.6,1.7-3.9,1.8c-10.3,0.1-20.7,0.7-31-0.1
		c-11.3-0.8-19.2,3.8-25.6,12.5c-1.6,2.2-3.5,4.1-4.7,6.4c-1.4,2.7-2.1,5.8-3.3,9.5c1.8-0.5,2.2-0.5,2.3-0.7c0.7-0.7,1.4-1.4,2-2.2
		c7.4-10.5,17.1-16.1,30.3-14.2c2,0.3,5.8,1.3,5.7,1.7c-0.4,4.1-4,2.2-5.8,2c-12.3-1.6-20.8,4.1-27.5,13.6c-1.3,1.9-3.1,3.6-4.1,5.7
		c-1.2,2.6-1.7,5.4-2.5,8.1c0.5,0.2,1.1,0.4,1.6,0.6c1.9-2.2,3.7-4.6,5.7-6.7c4.3-4.7,9-9.5,15.7-9.7c15.5-0.5,31-0.4,46.5-0.3
		c1,0,2.1,1.7,3.1,2.6c-0.3,0.4-0.7,0.9-1,1.3c-14.5,0-29,0.1-43.4-0.1c-5.5-0.1-10.4,1.4-14.1,5.3c-4.6,4.8-8.8,10-12.7,15.4
		c-1.2,1.7-0.9,4.5-1.2,6.8c0.4,0.2,0.9,0.3,1.3,0.5c1.1-1.3,2.3-2.6,3.3-4c6.9-9.1,15.5-13.4,27.4-13.2c30.3,0.6,60.7,0.2,91,0.2
		c2.1,0,4.2-0.2,6.8-0.4c-1-3.8-1.8-6.9-2.8-10.5c-2,0-3.8,0-5.6,0c-13.2,0-26.3,0.1-39.5-0.1c-1.4,0-2.9-1.2-4.3-1.8
		c1.4-0.7,2.8-2,4.2-2c12.8-0.2,25.7-0.1,38.5-0.1c1.9,0,3.8-0.3,5.7-0.4c-0.3-9.7-0.3-9.6-8.1-10.6c-1-0.1-1.8-1.3-2.7-1.9
		c1-0.6,1.9-1.6,2.9-1.8c1.9-0.3,3.9-0.1,5.7-0.1c1.6-10.7,1.3-11.1-8.2-11.1c-11,0-21.9,0-32.9,0c-0.2-0.6-0.4-1.3-0.7-1.9
		c1.4-0.7,2.8-1.9,4.1-1.9c9.5-0.2,19-0.1,28.5-0.1c9.5,0,9.5,0,11.1-9.1c0.1-0.5-0.1-0.9-0.2-1.9c-2,0-4,0-6,0
		c-28.8,0-57.7,0.4-86.5-0.2c-11.4-0.3-19.6,3.8-26,12.6c-1.4,1.9-3.1,3.6-4.1,5.6C478.1,513.8,477.1,516.9,475.8,520z M613.9,563.2
		c-2.7-7.8-6.6-11.1-15-10.9c-30.3,0.6-60.7,0.6-91,0.1c-10.1-0.2-17.3,3.6-23.1,11.1c-1.9,2.5-4.2,4.9-5.7,7.6
		c-1.4,2.6-2,5.7-3,8.5c0.5,0.2,1.1,0.5,1.6,0.7c2.1-2.5,4.2-5,6.4-7.4c5.3-5.9,11.7-9.8,20-9.8c12,0.1,24-0.1,36,0.1
		c1.4,0,2.8,1.3,4.2,2c-1.4,0.7-2.8,2-4.2,2c-11.3,0.2-22.7,0.5-34,0c-8.1-0.4-14.2,2.8-19.2,8.6c-3,3.5-6.1,7.1-8.5,11.1
		c-1.3,2.2-1.4,5.1-2,7.8c0.4,0.1,0.9,0.2,1.3,0.3c2.9-3.2,5.6-6.5,8.7-9.5c5.2-5.2,11.5-8,18.9-7.4c1.4,0.1,2.8,1.3,4.1,2
		c-1.4,0.7-2.8,2.1-4.2,2.1c-7.5-0.4-13.2,2.8-17.9,8.2c-3.1,3.5-6.1,7.1-8.6,11c-1.5,2.3-1.7,5.4-2.5,8.1c0.5,0.2,1,0.4,1.5,0.7
		c7-8.4,13.6-17.6,26.8-16.4c-0.7,1.5-1.7,2.7-2.9,3.4c-4.4,2.4-9.4,4.1-13.2,7.3c-3.9,3.2-6.9,7.7-9.7,12c-1.5,2.3-1.7,5.4-2.4,8.1
		c0.5,0.2,1,0.3,1.5,0.5c2.1-2.5,4.2-5.1,6.4-7.5c5.3-5.7,11.3-9.9,19.5-9.5c1.3,0.1,2.6,1.1,4,1.7c-1.2,0.7-2.4,2.1-3.6,2.1
		c-6,0.2-11.1,2.4-15.1,6.8c-3.7,4-7.3,8.3-10.3,12.8c-1.5,2.2-1.6,5.4-2.4,8c6.9-5.4,12.6-12.1,19.8-14.8
		c7.4-2.8,16.3-1.6,25.3-2.2c-2.4-3.8-0.7-9.6-7.1-10.8c-0.4-0.1-0.7-3-0.5-3c6.6-2.4,1.4-7.3,3.2-10.6c-6.7-1.3-6.7-1.3-6.4-4.7
		c1.9-0.1,3.9-0.2,5.8-0.3c0.7-3.5,1.4-6.6,1.9-8.9c-1.6-1.9-2.7-3.3-4.4-5.3c4.4-0.6,7.3-0.9,10.2-1.4c6.8-1.4,13.6-4.4,20.2-4
		c19.5,1,39,3.2,58.5,5c-0.3,0.5-0.5,1-0.8,1.6c2.2,1.5,4.2,3.6,6.7,4.5c4,1.6,8.2,2.7,12.4,3.8c5.4,1.3,10.8,2.4,16.8,3.7
		c0-5.4-0.1-9.7,0-14c0.1-2.8-1.1-3.6-3.7-4.2c-3.5-0.8-6.9-2.4-10.3-3.5c-3.4-1-6.9-2.4-10.4-2.5c-13.8-0.3-27.7-0.1-41.5-0.1
		c-4.3,0-8.6,0-12.7,0c-1.4-4.8,1.6-4.3,4.1-4.3C580.1,563.2,596.8,563.2,613.9,563.2z M472.8,184c-0.2,0.3-0.5,0.7-0.7,1
		c-19.5-6.3-39-12.6-58.5-18.9c0.6,2,1.7,3.2,2.8,4.3c6.1,6,11.7,12.5,18.3,17.7c7.3,5.7,8.8,12,6.5,20.7
		c-2.5,9.5-3.4,19.4-5.1,29.1c0.4,0.1,0.7,0.3,1.1,0.4c12.2-16.7,24.3-33.4,37.3-51.2c0,10.2,0.2,18.9-0.1,27.7
		c-0.1,3.6,1.2,5.3,4.2,6.9c9.1,4.6,18,9.4,27,14.1c2.1,1.1,4.3,2.1,6.5,3.2c0.2-0.3,0.4-0.5,0.6-0.8
		c-12.1-16.7-24.3-33.5-37.2-51.3c9.8,3.2,18.3,6,26.8,8.6c1.5,0.5,3.8,0.9,4.6,0.2c4.8-4.5,9.2-9.4,14.1-14.6
		c-12.8,1.3-25.3,2.6-37.8,3.9c0-0.4-0.1-0.7-0.1-1.1c17.6-5.7,35.1-11.5,53.3-17.4c-1.2-0.7-1.6-1.2-2-1.2
		c-12.7-1.9-25.3-3.8-38-5.4c-1.5-0.2-3.7,1.3-4.7,2.6c-3.8,4.8-7.3,9.9-11,14.9c-1.7,2.3-3.4,4.5-5.1,6.8c-0.4-0.2-0.8-0.4-1.1-0.6
		c0-20.5,0-41,0-61.6c-6.3,10.8-11.6,21.9-17.3,32.7c-1.9,3.6-1.8,6.2,0.7,9.4C463.2,170.5,467.9,177.3,472.8,184z M255.7,566
		c9.8-0.1,10.1-0.3,10.1-6.3c0-96.4,0-192.9,0.1-289.3c0-3.9-0.9-5.5-5.2-5.6c-5.2-0.2-5,2.7-5,6.3c0,96.6,0,193.2,0,289.8
		C255.7,562.5,255.7,564.1,255.7,566z M269.6,563.6c9.3,0.8,10.1,0.1,10.1-8.4c0-94.1,0-188.2,0-282.3c0-1.7,0.4-3.5-0.2-5
		c-0.4-1.2-1.8-2.7-3-2.9c-6-1.1-6.9-0.2-6.9,5.9c0,95.8,0,191.5,0,287.3C269.6,560.1,269.6,561.9,269.6,563.6z M283.9,561.6
		c9.8,0,9.8,0,9.8-9c0-55.7,0-111.3,0-167c0-38.3,0-76.6,0-115c0-3.2,0.2-5.8-4.5-5.8c-4.2,0-5.7,1-5.7,5.6
		c0.1,95.5,0.1,190.9,0.1,286.4C283.6,558.3,283.8,559.7,283.9,561.6z M307.3,560.9c0.1-2,0.3-3.7,0.3-5.5c0-94.8,0-189.7,0.1-284.5
		c0-5.1-1.8-6.6-6.4-5.9c-1.1,0.2-2.2,0.4-3.5,0.6c0,98.5,0,196.7,0,295.3C301.1,560.9,304,560.9,307.3,560.9z M643.1,845.7
		c-1.2-5-2.6-8.9-3-13c-1.1-12.6-6.6-23.2-14.5-32.8c-3.7-4.5-7.4-9-10.7-13.8c-3.4-4.8-3-7.6,1.2-11.8c4.4-4.4,9.2-8.6,13.4-13.2
		c1.2-1.3,1.9-4,1.4-5.5c-0.5-1.6-2.7-3.1-4.4-3.8c-1.6-0.6-3.6-0.1-5.4,0.3c-11.4,2.8-22.9,5.8-34.3,8.7c-1.4,0.4-2.8,1-4.2,1.6
		c-5.5,2.5-6.1,4.8-2.2,9.4c2.8,3.3,6,6.2,9.4,8.9c1.3,1.1,3.6,1.5,5.3,1.4c7.9-0.8,12.5,2.5,13.5,10.4c0.6,4.9,1.1,10,1,14.9
		c-0.2,11.4,2.9,21.1,11.8,28.9c3.8,3.3,6.3,7.9,9.9,12.6C634.6,848,638.7,846.9,643.1,845.7z M683.8,370.9
		c0,33.1,0.1,66.3-0.1,99.4c0,4.2,0.7,6.3,5.5,6.5c5.6,0.2,4.6-3.4,4.6-6.6c0-12.7,0.1-25.3-0.1-38c0-2.5-0.9-5.1-1.9-7.5
		c-1.9-4.7-2.4-9.1-0.2-13.9c1.2-2.6,2.1-5.6,2.1-8.4c0.1-34.6,0.1-69.3,0.1-103.9c0-9.7,0.1-19.3-0.1-29c0-1.5-0.9-3.9-2-4.3
		c-5.3-2-8,0.1-8,5.7C683.8,304.3,683.8,337.6,683.8,370.9z M679.9,476c0-2.7,0-4.6,0-6.6c0-47.5,0-95,0-142.5c0-19-0.1-38,0.1-57
		c0-3.5-0.8-5-4.6-5.1c-4.5-0.1-5.6,1.5-5.6,5.8c0.1,35.2,0.1,70.3,0.1,105.5c0,23.2,0,46.3,0,69.5c0,1.7,0.3,4.7,1.1,4.9
		c7,2.3,4,6.4,1.5,9.6c-3.8,4.7-2.4,9.6-2.4,14.8C673.4,475.3,676.2,475.6,679.9,476z M317.6,850.3c7.2-12.3,13.6-23.7,20.5-34.8
		c3.2-5.2,5.3-9.7,1.9-15.9c-2.4-4.4-3.1-9.7,3-12.9c0.6-0.3,0.9-1.6,1.1-2.6c1.1-7.2,3.1-9.4,10.1-11c2.9-0.7,6.1-0.9,8.6-2.4
		c1.6-0.9,2.7-3.6,3.1-5.6c0.2-1-1.6-3.2-2.7-3.4c-9.5-1.3-16.6-6.2-22.9-13.1c-0.7-0.7-1.6-1.2-2.5-1.7c-4.9-2.8-8-1.6-8.1,4
		c-0.1,7.6-0.2,15.5,1.7,22.7c2.7,10.3,0.2,18.1-6.9,25.4c-3.6,3.8-7.4,8.2-9,13c-3.7,11.4-6.2,23.3-9.3,35.3
		C310.3,848.5,314.5,849.5,317.6,850.3z M665.6,451.1c0.1-1.8,0.3-2.8,0.3-3.8c0-59.3,0-118.5,0.1-177.8c0-3.4-1-4.5-4.5-4.7
		c-5-0.3-5.7,1.9-5.7,6.2c0.1,57.9,0.1,115.9,0.1,173.8c0,0.8,0.1,1.7,0,2.5c-0.1,2.8,1.2,4,3.9,3.8
		C661.6,451,663.4,451.1,665.6,451.1z M551.1,637.1c-3.6-1.7-7-3-10.1-4.8c-10.8-6.3-19.8-5.2-28.2,3.9c-0.5,0.5-0.9,1-1.3,1.5
		c-8.7,10.4-7.8,20.9,2.6,29.6c7.5,6.2,16.4,9.1,25.6,11.9c7.3,2.3,13.5,1.5,19.3-4C550.2,664,544.6,651.8,551.1,637.1z
		 M641.9,449.6c3.8-0.8,6.6-1.5,9.6-2.2c0-60.7,0-121.3,0-181.9c-9.3-1.7-9.6-1.4-9.6,7.2c0,56.6,0,113.2,0,169.8
		C641.9,444.7,641.9,446.9,641.9,449.6z M261.5,679.7c0.4,3.3,1.1,6.2,1,9.1c-0.3,8.8,3.3,15.8,9.4,21.8
		c8.4,8.2,16.9,16.3,25.3,24.4c0.3,0,0.6,0,0.9,0c-2.1-6.2-4.2-12.5-6.3-18.6c2.5-5.3,5.1-10.8,7.9-16.9c2.8,2.6,5,4.8,7.5,6.8
		c10.5,8.5,21,16.9,31.6,25.2c2.2,1.8,4.7,2.7,7.1,0.2c2.2-2.3,2.1-7.8-0.2-10.7c-2-2.5-4.4-2.9-7-1.3c-2.1,1.3-4,2.8-7,4.9
		c-2.8-5.3-5.3-10.3-7.9-15.2c-1.7-3.2-3.2-6.4-7.8-6.8c-6.2-0.6-9.1-3.6-10-9.8c-0.6-4.2-0.8-8.5-1.3-13
		C290.2,679.7,276,679.7,261.5,679.7z M547.2,684.9c-7.9-1.9-15.5-4.4-23.3-5.3c-8.2-0.9-16.6-0.3-24.9-0.2c-1.5,0-3.4,0.4-4.5,1.3
		c-8.6,6.6-28,8.6-36.3,2.1c-7-5.5-14-2.4-21.1-2.8c6.6,6.7,14.7,10.6,23.2,13.9c21.7,8.4,44.3,7.9,66.9,6.3
		C537.1,699.6,543.2,694,547.2,684.9z M251.7,668.1c0-6.8,0.1-14-0.2-21.3c0-0.8-2.3-2-3.6-2.1c-4.3-0.3-8.7,0-13-0.3
		c-7.3-0.5-9.3-2.5-8.9-9.7c0.3-5.9,1.5-11.7,2.4-18.7c-2.6,0.9-5.2,1-6.8,2.4c-6.1,5-10.1,11.3-11.7,19.2
		c-3.9,18.7,4.7,29.8,23.7,30.5C239.5,668.2,245.3,668.1,251.7,668.1z M397.2,626.9c3.2,4.9,5.3,8.9,8.1,12.3
		c1.5,1.7,4.1,3.4,6.3,3.5c10,0.4,20,0.6,30,0c9.8-0.5,17.6,2.7,23.7,10.2c1.9,2.4,4.4,3.2,6.3,1.2c1-1.1,0.7-4.5-0.3-6.1
		c-2.7-4.2-5.9-8-9.1-11.9c-5.3-6.4-11.8-10-20.5-9.3c-4.6,0.3-9.3,0.1-14,0.1C418,626.9,408.2,626.9,397.2,626.9z M712.4,596.1
		c3.1-3.4,6.5-5.8,7.8-9c2.8-7,5.3-14.3,6.4-21.8c1.3-8.5-4.2-14.6-12.6-16.4c-5.1-1.1-15.7,2.4-15.9,5.8
		c-0.4,5.6-1.2,11.8,0.7,16.7C702,579.7,707.3,587.2,712.4,596.1z M471.8,641.3c0.5-0.2,1-0.5,1.5-0.7c-0.6-2.5-0.5-5.4-1.8-7.4
		c-3.1-4.7-6.8-9-10.5-13.3c-4.8-5.6-11-8.1-18.6-8c-18,0.2-36,0.1-54,0.1c-1.5,0-3.1,0.2-5.6,0.3c2.9,2.6,5.2,4.3,6.9,6.4
		c2.8,3.5,6.1,4.4,10.4,4.3c14-0.2,28,0.3,42-0.2c10-0.4,17.3,3.7,23.4,10.9C467.7,636.2,469.7,638.8,471.8,641.3z M341.5,674.8
		c-0.2-4.4-3.3-3.6-5.8-3.7c-21.3,0-42.6-0.2-63.9,0.1c-4.7,0.1-6.3-1.2-6.2-6.1c0.3-14,0.1-28,0.1-41.9c0-3-0.7-4.8-4.1-4.7
		c-1.8,0.1-3.5-0.3-5.7-0.5c0,19.1,0,37.8,0,56.8C284.7,674.8,313,674.8,341.5,674.8z M338,666.8c-0.1-4-2.7-3.8-5.3-3.8
		c-15.7,0-31.3,0-47,0c-1.9,0-3.8-0.2-6.1-0.3c0-2.4,0-4.3,0-6.1c0-10.2-0.1-20.3,0.1-30.5c0.1-3.6-1.1-5.3-4.7-5.4
		c-1.6-0.1-3.2-0.4-5.1-0.7c0,15.8,0,31.2,0,46.9C292.8,666.8,315.4,666.8,338,666.8z M621.7,501.7c0.2,0.6,0.5,1.3,0.7,1.9
		c1,0.1,2,0,2.9,0.3c0.9,0.3,1.6,1.2,2.4,1.8c-0.9,0.7-1.7,1.5-2.7,2c-0.7,0.3-1.6,0.1-2.5,0.1c-5,0.1-6.3,1.7-6.5,7.5
		c-0.2,5,3.5,3.1,6,3.5c1.1,0.2,2.4-0.2,3.5,0.2c0.9,0.3,1.5,1.3,2.2,1.9c-0.8,0.6-1.6,1.6-2.4,1.7c-2.6,0.2-5.2,0.1-7.9,0.1
		c0.7,6.9,2.6,9.3,8.4,11c0.7,0.2,1.7,0.6,1.9,1.2c1.9,4.7,6,3.7,9.9,4.2c0-14.5,0-28.7,0-44.4C631.9,497.3,626.8,499.5,621.7,501.7
		z M562.8,671.2c-0.2,0.8-0.3,1.6-0.5,2.4c2.3,0.5,4.7,1.5,7,1.5c40.1,0.1,80.2,0.1,120.3,0.1c1.3,0,2.5-0.3,3.7-0.4
		c0-4.9,0-9.4,0-14.3c-3.4,0.2-6.3,0.4-9.2,0.5c-0.2,1.2-0.4,1.8-0.4,2.5c-0.4,7.7-0.4,7.7-8.4,7.7c-35.6,0-71.2,0-106.8,0
		C566.7,671.2,564.8,671.2,562.8,671.2z M474.5,682.7c4.5-0.8,9-1.3,13.1-2.7c1.6-0.5,3.3-3.2,3.3-5c0.1-9.4-7.1-16.5-16.2-16.5
		c-9.1,0-16.3,7-16.2,16.5c0,1.7,1.8,4.5,3.3,5C465.9,681.4,470.2,681.9,474.5,682.7z M679.7,660.6c-3,0-6.4-1.1-8.1,0.2
		c-4.5,3.3-9.2,2-13.8,2c-31.6,0.1-63.3,0.1-94.9,0.1c-2,0-4,0.3-6,0.5c-0.1,0.7-0.2,1.4-0.3,2.1c2.1,0.5,4.1,1.5,6.2,1.5
		c37.3,0.1,74.6,0.1,111.9,0.1c1.6,0,3.2-0.2,5.1-0.3C679.7,664.8,679.7,663.2,679.7,660.6z M283.9,658.7c16.8,0,33.4,0,49.9,0
		c0.2-0.5,0.4-1,0.6-1.4c-1.7-0.8-3.4-2.3-5.2-2.4c-7.8-0.3-15.6-0.1-23.4-0.1c-3.9,0-7.8,0-12.2,0c0-7.8,0-14.7,0-21.7
		c0-8.6-0.4-9.1-9.7-9.8C283.9,635,283.9,646.7,283.9,658.7z M251.8,617.5c-5.7-0.3-11-0.6-16.2-0.7c-0.9,0-2.5,1.3-2.7,2.2
		c-1.1,5.7-1.9,11.4-2.6,17.1c-0.3,2.4,0.9,4,3.8,4c5,0,9.9,0.4,14.9,0.3c1,0,2.7-1.6,2.7-2.5C251.9,631.3,251.8,624.7,251.8,617.5z
		 M515.3,627.1c-9.5-0.5-18.8-1.8-25.8,6c-4.1,4.5-8.1,9.3-11.5,14.3c-1.1,1.6-1.2,5.4,0,6.6c2.1,2.3,4.6,0.8,6.6-1.5
		c4.5-5,9.6-9.1,16.8-9.7c1-0.1,2.2-0.9,2.8-1.7C507.8,636.7,511.3,632.2,515.3,627.1z M642.2,495.7c-0.1,2-0.3,3.8-0.3,5.6
		c0,10.8,0,21.6,0,32.4c0,6.3,0.4,6.6,6.5,5.7c1.1-0.2,2.2-0.5,3.5-0.9c0-13.4,0.1-26.5-0.1-39.6c0-1.1-1.7-2.8-2.8-3.1
		C647,495.4,644.8,495.7,642.2,495.7z M309.7,679.7c0,4.3-0.6,8,0.2,11.5c0.6,2.5,2.5,5.4,4.7,6.7c3.7,2.2,8.1,3.4,12.4,5
		c2-7.1,4.2-15,6.5-23.3C325,679.7,317.5,679.7,309.7,679.7z M656.3,498.6c0,13.1,0,26,0,39c8.5-0.2,9.7-1.3,9.7-8.8
		c0-6,0-12,0-17.9C665.9,503.5,664.1,501.1,656.3,498.6z M693.6,557c-9.4,4-9.8,4.5-9.8,13.6c0,6.2,0,12.3,0,18.5
		c0,7.1,0,7.1,7.3,6.9c0.8,0,1.6-0.3,2.6-0.4C693.6,582.6,693.6,570,693.6,557z M647.8,658.8c-31.3-6.8-62.8-2.7-94.1-4.2
		c-0.6,5.2,2.5,4.4,4.8,4.4c28.1,0,56.2,0,84.3,0C644.5,659,646.1,658.8,647.8,658.8z M307.6,645.8c0-2.5,0-5.1,0-7.8
		c0-7.4-1.5-9-9.6-10.1c0,7.5,0,15,0,22.7c10.5,0,20.6,0,30.6,0C323.1,643.6,315,648.6,307.6,645.8z M679.5,595.4
		c0-10.3,0-19.9,0-31.1c-3.9,3-8.8,4.9-9.2,7.5c-1.1,7.5-0.4,15.2-0.4,23.1C673.4,595.1,676.3,595.2,679.5,595.4z M670.1,533.1
		c9.8-1.4,9.8-1.4,9.8-15.8c0-7.2-1.3-8.4-9.8-9.7C670.1,516,670.1,524.4,670.1,533.1z M698.3,440.3c0,11.9,0,22.2,0,32.7
		c3.3-4.7,5.8-9.5,9.3-13.2c2.5-2.7,2.7-5.2,1-7.4C705.8,448.4,702.3,444.9,698.3,440.3z M665.6,571.7c-2.3,0.6-4.5,0.8-6.4,1.6
		c-1.3,0.5-3,1.9-3.1,2.9c-0.3,5.7-0.1,11.5-0.1,17.5c3.5,0.3,6.4,0.6,9.7,0.9C665.6,586.9,665.6,579.5,665.6,571.7z M411,646.8
		c0.2,3.8,2.5,4.2,5.2,4.1c7.6-0.1,15.3,0.3,22.9-0.1c8.6-0.4,16.5,0.7,23.2,6.6c0.1,0,0.5-0.3,1-0.7c-4.1-4.8-8.5-9.5-15-9.8
		C436,646.5,423.6,646.8,411,646.8z M642,574.9c0,5.3-0.1,10.4,0.1,15.4c0,0.9,1.5,2.2,2.5,2.4c2.2,0.5,4.5,0.4,6.9,0.6
		c0-6.5,0-12.4,0-18.4C648.3,574.9,645.5,574.9,642,574.9z M602,650.9c-15.6-6.3-31.8-3.7-47.7-4c-0.6,0-1.6,1.2-1.6,1.9
		c0,0.7,0.9,1.4,1.6,2c0.2,0.2,0.6,0.1,1,0.1C570.8,650.9,586.4,650.9,602,650.9z M715.9,523.5c-1.3-1.9-2.6-3.2-3.3-4.8
		c-2.6-5.4-7-5.9-12-4.7c-1.1,0.3-2.5,1.6-2.7,2.6c-0.4,2.9-0.1,5.8-0.1,8.9C704.1,524.9,709.7,524.3,715.9,523.5z M459,659.6
		c-3.4-1.5-6.6-4.1-9.8-4.3c-10.9-0.5-21.8-0.2-32.8-0.2c1.5,3.8,1.5,3.8,5.2,3.9C433.9,659.2,446.1,659.4,459,659.6z M684.1,528.8
		c10.4-0.8,11.7-3,9.1-15c-2.9-0.4-5.8-0.9-9.1-1.4C684.1,518.3,684.1,523.4,684.1,528.8z M456.1,667c0-0.7,0-1.4-0.1-2.1
		c-11.1-3.7-22.6-1.3-34-1.3c0.8,1.6,1.8,3.2,2.9,3.2C435.3,667.1,445.7,667,456.1,667z M363.1,775.9c-11.1,1.4-16.5,2.4-14.1,9.7
		C359.4,787.6,358.1,790.2,363.1,775.9z M665.7,464.7c-10.4-0.4-12,1.6-8.8,11.3c2.8-0.4,5.7-0.9,8.8-1.4
		C665.7,471.3,665.7,468.2,665.7,464.7z M428.6,671.5c-0.2,0.5-0.4,0.9-0.6,1.4c1.4,0.8,2.9,2.1,4.4,2.2c6.5,0.2,13,0.2,19.4,0
		c0.8,0,1.7-1.1,2.5-1.7c-0.8-0.6-1.6-1.8-2.3-1.8C444.1,671.4,436.3,671.5,428.6,671.5z M707.6,596c-3.2-5.6-5.8-10.1-8.5-14.7
		c-0.4,0.2-0.9,0.3-1.3,0.5c0,3.9-0.2,7.8,0.1,11.7c0.1,0.9,1.6,2.2,2.7,2.4C702.5,596.3,704.5,596,707.6,596z M515.8,674.2
		c-6.4-4.9-13.5-2.6-20.7-2.3C496.7,675.5,504.1,676.3,515.8,674.2z M651.9,467.8c-0.7-0.2-1.3-0.5-2-0.7c-1.4,2.6-3.1,5.1-4,7.9
		c-0.3,0.9,1.9,2.5,2.9,3.7c1-1,2.7-1.9,2.9-3.1C652.2,473.1,651.9,470.5,651.9,467.8z M311.8,642.3c3.5,0,6.5,0,9.4,0
		c0.1-0.3,0.3-0.7,0.4-1c-3-2.3-6-4.6-9.8-7.4C311.8,637.4,311.8,639.7,311.8,642.3z M579.6,788.5c3-1.5,5.2-2.7,7.9-4
		c-3-2.7-5.5-4.9-9.1-8.1C578.8,781,579.1,784.2,579.6,788.5z M486.9,657.5c2.7-1.6,5.5-3.1,8-4.9c2.2-1.6,7.2,0.1,6.6-5.7
		C494.6,647.9,490.2,652,486.9,657.5z M506.6,666.8c-2.4-4.9-8.6-5-13.8,0C497.8,666.8,502.1,666.8,506.6,666.8z M568.3,642.5
		c-8.7-5-12.9-5-13.9,0C558.9,642.5,563.4,642.5,568.3,642.5z M325.2,762.4c-5.4,9.2-5.3,9.7,1.8,13
		C326.5,771.3,325.9,767.5,325.2,762.4z M634.9,769.9c-0.6-2.3-1.1-3.8-1.7-6.2c-3.1,2.3-5.8,4.3-8.4,6.2c0.2,0.4,0.4,0.8,0.6,1.3
		C628.3,770.8,631.3,770.4,634.9,769.9z M502.8,658.4c-0.8-1.2-1.8-3.1-2.1-3c-3.4,1.2-6.7,2.7-10,4.2c0.2,0.5,0.4,0.9,0.6,1.4
		C494.9,660.2,498.5,659.4,502.8,658.4z"/>
	<path class="st0" d="M157.9,142.9c-5.4-0.1-9.3-4.2-9.1-9.6c0.2-5,4.3-9.1,9.3-9.1c5.1,0,9.5,4.5,9.4,9.6
		C167.5,139,163.3,143,157.9,142.9z"/>
	<path class="st0" d="M791.5,142.9c-5.4,0.1-9.6-4-9.5-9.3c0-5.1,4.4-9.6,9.5-9.5c5,0.1,9.1,4.2,9.2,9.2
		C800.8,138.8,796.9,142.8,791.5,142.9z"/>
	<path class="st0" d="M852.8,755.8c-5.3,0-9.6-4.1-9.6-9.3c0-5.1,4.6-9.5,9.6-9.4c5,0.1,9.1,4.2,9.2,9.2
		C862.1,751.7,858.2,755.8,852.8,755.8z"/>
	<path class="st0" d="M324.8,912.1c0,5.4-4.1,9.5-9.3,9.5c-5.1,0-9.5-4.5-9.4-9.6c0.1-5,4.2-9.1,9.3-9.2
		C320.8,902.8,324.8,906.7,324.8,912.1z"/>
	<path class="st0" d="M96.9,755.8c-5.4,0-9.4-4-9.4-9.4c0.1-5.1,4.1-9.2,9.1-9.3c5.1-0.2,9.6,4.2,9.7,9.3
		C106.4,751.5,102.2,755.8,96.9,755.8z"/>
	<path class="st0" d="M937.8,371.2c0,5.4-4.1,9.5-9.4,9.4c-5.2-0.1-9.5-4.5-9.4-9.6c0.1-5,4.3-9,9.3-9.1
		C933.8,361.8,937.8,365.8,937.8,371.2z"/>
	<path class="st0" d="M11.7,371.3c0-5.5,3.9-9.4,9.3-9.4c5.3,0,9.6,4.3,9.5,9.5c-0.1,4.9-4.3,9.1-9.3,9.3
		C16,380.8,11.8,376.7,11.7,371.3z"/>
	<path class="st0" d="M923.9,394c0-5.4,4-9.3,9.4-9.3c5.1,0.1,9.2,4,9.3,9.1c0.1,5.1-4.2,9.6-9.3,9.7
		C928.1,403.6,923.9,399.3,923.9,394z"/>
	<path class="st0" d="M97,193.9c5.3,0.1,9.5,4.4,9.4,9.5c-0.2,5.1-4.8,9.4-9.8,9.2c-5-0.2-9-4.4-9-9.4
		C87.5,197.8,91.5,193.8,97,193.9z"/>
	<path class="st0" d="M852.9,193.9c5.4,0.1,9.3,4.2,9.1,9.6c-0.2,5.1-4.3,9.1-9.3,9.1c-5.1,0-9.6-4.5-9.5-9.5
		C843.3,197.9,847.6,193.8,852.9,193.9z"/>
	<path class="st0" d="M13,542c-5.5,0-9.3-3.9-9.3-9.4c0.1-5.1,4-9.2,9-9.4c5-0.2,9.6,4.3,9.7,9.3C22.5,537.7,18.3,541.9,13,542z"/>
	<path class="st0" d="M945.9,532.8c-0.1,5.4-4.1,9.3-9.6,9.1c-5.1-0.1-9.2-4.2-9.2-9.2c0-5,4.5-9.6,9.5-9.6
		C941.8,523.2,945.9,527.5,945.9,532.8z"/>
	<path class="st0" d="M324.8,37.5c0,5.4-4,9.4-9.5,9.3c-5.1-0.1-9.2-4.1-9.3-9.1c-0.1-5.1,4.3-9.5,9.4-9.6
		C320.8,28,324.9,32.1,324.8,37.5z"/>
	<path class="st0" d="M11.7,578.6c-0.1-5.4,3.9-9.6,9.2-9.6c5.1,0,9.6,4.4,9.6,9.5c0,5-4.1,9.1-9.2,9.3
		C15.9,587.9,11.8,584,11.7,578.6z"/>
	<path class="st0" d="M929.7,440c0-5.5,3.9-9.3,9.4-9.3c5.1,0,9.2,4,9.4,9c0.2,5-4.3,9.7-9.3,9.8C933.9,449.6,929.7,445.4,929.7,440
		z"/>
	<path class="st0" d="M19.9,439.9c0.1,5.3-4,9.6-9.2,9.7c-5,0-9.6-4.5-9.5-9.6c0-5,4.1-9.1,9.2-9.2
		C15.9,430.6,19.8,434.4,19.9,439.9z"/>
	<path class="st0" d="M60.6,677.9c5.4,0,9.3,4,9.2,9.5c-0.1,5.1-4.1,9.1-9.1,9.2c-5.1,0.1-9.6-4.3-9.6-9.4
		C51,682.1,55.3,677.9,60.6,677.9z"/>
	<path class="st0" d="M69.8,262.6c0,5.4-4.1,9.3-9.5,9.2c-5.1-0.1-9.2-4.2-9.2-9.2c-0.1-5.1,4.4-9.6,9.5-9.6
		C65.8,253,69.9,257.2,69.8,262.6z"/>
	<path class="st0" d="M945.9,417c0,5.3-4.3,9.6-9.4,9.5c-5.1-0.1-9.5-4.7-9.4-9.7c0.2-5,4.2-9,9.4-9
		C942,407.6,945.9,411.5,945.9,417z"/>
	<path class="st0" d="M18.7,463.1c0,5.4-4,9.5-9.3,9.5c-5.1,0-9.5-4.4-9.4-9.6c0.1-5,4.1-9.1,9.2-9.2
		C14.7,453.8,18.7,457.7,18.7,463.1z"/>
	<path class="st0" d="M930.8,463c0.1-5.4,4.1-9.2,9.6-9.1c5.1,0.1,9.1,4.2,9.1,9.3c0,5.1-4.4,9.5-9.5,9.5
		C934.7,472.6,930.7,468.4,930.8,463z"/>
	<path class="st0" d="M3.7,416.8c0.1-5.4,4.1-9.2,9.6-9c5.1,0.2,9.1,4.3,9.1,9.3c0,5-4.6,9.5-9.6,9.5C7.6,426.4,3.6,422.1,3.7,416.8
		z"/>
	<path class="st0" d="M9.6,495.7c-5.3,0.1-9.6-4.1-9.6-9.3c0-5.1,4.4-9.5,9.6-9.4c5.1,0.1,9.1,4,9.2,9.1
		C18.9,491.7,15,495.7,9.6,495.7z"/>
	<path class="st0" d="M930.8,486.6c-0.1-5.4,4-9.5,9.3-9.6c5.2,0,9.5,4.4,9.5,9.5c-0.1,5-4.1,9.1-9.2,9.2
		C934.9,495.9,930.9,492,930.8,486.6z"/>
	<path class="st0" d="M184.8,118.4c-0.1,5.4-4.3,9.4-9.6,9.2c-5-0.2-9.1-4.4-9.2-9.3c-0.1-5.2,4.2-9.4,9.5-9.4
		C181,109,184.9,113,184.8,118.4z"/>
	<path class="st0" d="M19.9,509.5c0.1,5.5-3.8,9.4-9.3,9.4c-5.3,0-9.6-4.2-9.5-9.4c0.1-4.8,4.4-9.2,9.2-9.4
		C15.5,500,19.8,504.2,19.9,509.5z"/>
	<path class="st0" d="M938.9,518.9c-5.5,0-9.3-4-9.2-9.4c0.1-5.1,4.1-9.2,9.1-9.3c5-0.1,9.6,4.4,9.7,9.4
		C948.5,514.7,944.2,518.9,938.9,518.9z"/>
	<path class="st0" d="M727.7,90.4c0-5.4,3.9-9.4,9.3-9.4c5.2,0,9.6,4.4,9.5,9.5c-0.1,4.9-4.3,9.1-9.3,9.2
		C732,99.8,727.8,95.7,727.7,90.4z"/>
	<path class="st0" d="M221.8,90.1c0.1,5.4-3.9,9.6-9.2,9.6c-5.2,0-9.6-4.3-9.6-9.4c0-5,4.1-9.1,9.1-9.3
		C217.6,80.8,221.7,84.6,221.8,90.1z"/>
	<path class="st0" d="M697.4,56.8c5.4,0,9.3,4.1,9.3,9.5c-0.1,5.1-4.1,9.2-9.1,9.3c-5.1,0.1-9.5-4.2-9.6-9.4
		C687.9,60.8,692.1,56.8,697.4,56.8z"/>
	<path class="st0" d="M252.1,56.8c5.4,0,9.5,4.1,9.5,9.3c0,5.2-4.5,9.5-9.6,9.4c-5-0.1-9.1-4.2-9.2-9.3
		C242.8,60.8,246.7,56.8,252.1,56.8z"/>
	<path class="st0" d="M634,46.7c-5.4,0-9.4-4-9.3-9.4c0.1-5.2,4-9.2,9-9.3c5.2-0.1,9.6,4.1,9.8,9.3C643.6,42.4,639.3,46.7,634,46.7z
		"/>
	<path class="st0" d="M16.3,564.9c-5.3,0-9.4-4.3-9.3-9.5c0.1-4.9,4.3-9.1,9.3-9.3c5.1-0.1,9.4,4.2,9.5,9.5
		C25.7,561,21.7,565,16.3,564.9z"/>
	<path class="st0" d="M933,564.9c-5.4-0.1-9.3-4.1-9.2-9.6c0.1-5.1,4.2-9.2,9.2-9.2c5.1-0.1,9.5,4.4,9.5,9.5
		C942.6,560.9,938.4,565,933,564.9z"/>
	<path class="st0" d="M567.1,27.9c-5.5,0.1-9.4-3.8-9.4-9.3c0-5.1,3.9-9.2,8.9-9.5c5-0.2,9.7,4.2,9.8,9.3
		C576.7,23.5,572.4,27.8,567.1,27.9z"/>
	<path class="st0" d="M391.8,18.6c0,5.5-3.9,9.4-9.4,9.3c-5.1-0.1-9.2-4-9.4-9c-0.2-5,4.3-9.7,9.3-9.8
		C387.5,9,391.8,13.3,391.8,18.6z"/>
	<path class="st0" d="M937.8,578.4c0,5.5-4,9.4-9.4,9.3c-5.1-0.1-9.2-4.1-9.4-9.1c-0.1-5.1,4.2-9.6,9.4-9.7
		C933.7,568.9,937.8,573.1,937.8,578.4z"/>
	<path class="st0" d="M25.7,393.9c0,5.3-4.2,9.6-9.4,9.6c-5.1,0-9.4-4.5-9.4-9.7c0.1-5.1,4.1-9,9.2-9.1
		C21.7,384.6,25.7,388.5,25.7,393.9z"/>
	<path class="st0" d="M284.7,903.8c0-5.3,4.1-9.6,9.3-9.6c5,0,9.6,4.6,9.5,9.6c-0.1,5-4.2,9.1-9.3,9.2
		C288.7,913.1,284.7,909.2,284.7,903.8z"/>
	<path class="st0" d="M148.9,815.9c0.1-5.4,4.1-9.3,9.6-9.1c5.1,0.1,9.1,4.1,9.1,9.2c0,5.1-4.3,9.6-9.4,9.6
		C153,825.5,148.8,821.2,148.9,815.9z"/>
	<path class="st0" d="M791.6,806.8c5.4,0.1,9.3,4.2,9.1,9.6c-0.2,5-4.3,9.1-9.3,9.2c-5.1,0-9.5-4.4-9.4-9.6
		C782,810.7,786.2,806.7,791.6,806.8z"/>
	<path class="st0" d="M664.9,903.9c-0.1,5.4-4.1,9.3-9.6,9.1c-5.1-0.1-9.1-4.3-9.2-9.2c0-5,4.5-9.6,9.6-9.6
		C660.8,894.2,664.9,898.5,664.9,903.9z"/>
	<path class="st0" d="M697.2,892.9c-5.3-0.1-9.4-4.4-9.2-9.6c0.2-5,4.4-9.1,9.4-9.1c5.2,0,9.4,4.2,9.4,9.5
		C706.7,889.1,702.6,893,697.2,892.9z"/>
	<path class="st0" d="M634.3,902.9c5.2,0.2,9.5,4.7,9.1,9.8c-0.3,5-4.6,9-9.5,9c-5.3,0-9.3-4.2-9.2-9.6
		C624.8,906.6,628.9,902.8,634.3,902.9z"/>
	<path class="st0" d="M252.2,892.9c-5.4,0-9.4-4-9.3-9.4c0-5.1,4-9.2,9-9.4c5.1-0.2,9.6,4.1,9.7,9.3
		C261.7,888.7,257.6,892.9,252.2,892.9z"/>
	<path class="st0" d="M221.8,859.4c0,5.4-4,9.4-9.4,9.3c-5.2-0.1-9.5-4.4-9.4-9.6c0.1-4.9,4.4-9.1,9.4-9.1
		C217.7,849.9,221.8,854,221.8,859.4z"/>
	<path class="st0" d="M915.8,335.9c-5.4-0.1-9.2-4.2-9-9.7c0.2-5.1,4.3-9.1,9.3-9.1c5,0,9.5,4.6,9.5,9.6
		C925.4,331.9,921.1,336,915.8,335.9z"/>
	<path class="st0" d="M567.1,921.8c5.3,0.1,9.6,4.4,9.4,9.5c-0.2,4.8-4.5,9.2-9.4,9.3c-5.2,0.1-9.4-4.2-9.4-9.5
		C557.7,925.6,561.7,921.7,567.1,921.8z"/>
	<path class="st0" d="M42.8,326.6c0,5.5-4,9.3-9.5,9.2c-5.1-0.1-9.2-4.1-9.3-9.1c-0.1-5,4.4-9.6,9.4-9.7
		C38.7,317,42.8,321.3,42.8,326.6z"/>
	<path class="st0" d="M391.8,931.2c-0.1,5.3-4.4,9.5-9.5,9.3c-4.8-0.2-9.1-4.5-9.2-9.4c-0.1-5.2,4.2-9.4,9.5-9.4
		C388,921.8,391.9,925.7,391.8,931.2z"/>
	<path class="st0" d="M727.7,859.6c-0.1-5.4,3.9-9.5,9.2-9.6c5.2,0,9.6,4.3,9.6,9.4c0,5-4.2,9.1-9.2,9.3
		C731.9,868.9,727.8,865,727.7,859.6z"/>
	<path class="st0" d="M764.7,118.1c0.1-5.4,4.1-9.3,9.5-9.2c5.1,0.1,9.2,4.2,9.2,9.2c0.1,5.1-4.3,9.5-9.5,9.5
		C768.7,127.7,764.7,123.5,764.7,118.1z"/>
	<path class="st0" d="M451,948.9c-5.1-0.2-9.1-4.4-9-9.4c0.1-5.1,4.7-9.5,9.7-9.4c5.2,0.2,9.2,4.5,9,9.8
		C460.7,945.5,456.6,949.2,451,948.9z"/>
	<path class="st0" d="M497.8,949c-5.5-0.1-9.2-4.1-9-9.7c0.2-5.1,4.3-9.1,9.3-9.1c5,0,9.6,4.6,9.5,9.6
		C507.4,945,503.1,949.1,497.8,949z"/>
	<path class="st0" d="M222.8,872c0-5.5,3.9-9.4,9.4-9.3c5.1,0.1,9.2,4,9.4,9c0.1,5-4.3,9.7-9.3,9.8
		C227.1,881.6,222.8,877.3,222.8,872z"/>
	<path class="st0" d="M898.8,304.6c0.1-5.3,4.4-9.5,9.5-9.3c4.9,0.2,9.1,4.5,9.2,9.4c0.1,5.1-4.2,9.4-9.5,9.4
		C902.6,314.1,898.7,310.1,898.8,304.6z"/>
	<path class="st0" d="M42.8,623.1c0,5.3-4.2,9.6-9.4,9.5c-5-0.1-9.5-4.7-9.4-9.7c0.1-5,4.2-9,9.3-9
		C38.9,613.7,42.8,617.6,42.8,623.1z"/>
	<path class="st0" d="M717.7,86.9c-5.4,0.1-9.6-4-9.6-9.2c0-5.1,4.5-9.6,9.5-9.5c5,0,9.1,4.1,9.2,9.2
		C726.9,82.8,723.1,86.9,717.7,86.9z"/>
	<path class="st0" d="M232,86.9c-5.5,0-9.3-4-9.2-9.5c0.1-5.1,4.1-9.2,9.1-9.3c5-0.1,9.6,4.4,9.6,9.4C241.6,82.8,237.3,87,232,86.9z
		"/>
	<path class="st0" d="M451.4,0.7c5.5-0.1,9.4,3.8,9.4,9.3c0,5.1-3.9,9.2-8.9,9.5c-5,0.2-9.7-4.2-9.8-9.3
		C441.9,5.1,446.1,0.8,451.4,0.7z"/>
	<path class="st0" d="M488.7,9.8c0.1-5.5,4.1-9.3,9.6-9.1c5.1,0.1,9.2,4.2,9.2,9.2c0,5-4.5,9.6-9.5,9.6
		C492.8,19.4,488.7,15.1,488.7,9.8z"/>
	<path class="st0" d="M677,884.9c5.4,0.1,9.2,4.3,9,9.7c-0.2,5.1-4.3,9-9.4,9c-5.1-0.1-9.5-4.6-9.4-9.6
		C667.3,888.8,671.7,884.8,677,884.9z"/>
	<path class="st0" d="M282.4,894.3c-0.1,5.1-4.5,9.4-9.7,9.3c-5.2-0.1-9.3-4.4-9.1-9.7c0.1-5.2,4-9,9.3-9
		C278.1,884.9,282.4,889.1,282.4,894.3z"/>
	<path class="st0" d="M676.8,64.8c-5.3,0.1-9.6-4.1-9.6-9.3c0-5.1,4.4-9.5,9.6-9.4c5.1,0,9.1,4,9.2,9.1
		C686.1,60.6,682.2,64.7,676.8,64.8z"/>
	<path class="st0" d="M520.4,21c-5.3-0.3-9-4.6-8.6-10.1c0.3-5,4.8-8.9,9.7-8.6c5.1,0.3,9.3,5,9,10C530.2,17.4,525.8,21.3,520.4,21z
		"/>
	<path class="st0" d="M664.9,46c0,5.3-4.3,9.6-9.5,9.4c-5-0.1-9.5-4.8-9.3-9.8c0.2-5,4.3-9,9.4-9C661,36.6,664.9,40.5,664.9,46z"/>
	<path class="st0" d="M414.7,14.4c0.1,5.5-3.8,9.5-9.2,9.5c-5.4,0-9.5-4.1-9.5-9.3c0-4.9,4.2-9.2,9.1-9.4
		C410.2,4.9,414.6,9.1,414.7,14.4z"/>
	<path class="st0" d="M284.7,45.8c0.1-5.4,4.1-9.3,9.6-9.1c5.1,0.1,9.2,4.3,9.2,9.2c0,5-4.5,9.6-9.5,9.6
		C288.7,55.4,284.6,51.1,284.7,45.8z"/>
	<path class="st0" d="M544.2,23.8c-5.5,0-9.4-3.9-9.3-9.4c0-5.1,4-9.2,9-9.4c5.1-0.1,9.6,4.2,9.7,9.3
		C553.7,19.7,549.6,23.8,544.2,23.8z"/>
	<path class="st0" d="M764.7,831.6c-0.1-5.4,3.9-9.6,9.2-9.6c5.2,0,9.6,4.3,9.6,9.4c0,5-4.1,9.1-9.1,9.3
		C768.9,840.9,764.8,837,764.7,831.6z"/>
	<path class="st0" d="M906.7,623.2c-0.1-5.5,3.8-9.4,9.3-9.4c5.3,0,9.6,4.2,9.5,9.4c-0.1,4.8-4.4,9.2-9.2,9.3
		C911.1,632.7,906.8,628.5,906.7,623.2z"/>
	<path class="st0" d="M717.8,862.7c5.4,0.1,9.2,4.2,9,9.7c-0.2,5-4.4,9.1-9.3,9.1c-5.1,0-9.5-4.6-9.4-9.6
		C708.1,866.6,712.4,862.6,717.8,862.7z"/>
	<path class="st0" d="M838.9,193.9c-5.3,0.1-9.7-3.9-9.7-9.1c-0.1-5,4.4-9.6,9.5-9.6c5,0,9.1,4,9.3,9.1
		C848.2,189.7,844.4,193.8,838.9,193.9z"/>
	<path class="st0" d="M111,193.9c-5.5,0.1-9.5-3.8-9.5-9.3c0-5.3,4.3-9.6,9.4-9.5c4.9,0.1,9.2,4.3,9.4,9.2
		C120.6,189.5,116.3,193.8,111,193.9z"/>
	<path class="st0" d="M879.7,687c0.1-5.4,4.1-9.2,9.6-9.1c5.1,0.2,9.1,4.3,9.1,9.3c0,5.1-4.5,9.5-9.6,9.5
		C883.7,696.6,879.6,692.3,879.7,687z"/>
	<path class="st0" d="M543.9,925.8c5.4-0.1,9.6,3.9,9.6,9.2c0.1,5.1-4.4,9.6-9.5,9.6c-5,0-9.1-4.1-9.3-9.1
		C534.7,929.9,538.5,925.9,543.9,925.8z"/>
	<path class="st0" d="M50.8,304.7c0,5.5-3.9,9.4-9.3,9.4c-5.1,0-9.2-4-9.4-9c-0.2-5,4.2-9.7,9.3-9.8
		C46.5,295.1,50.7,299.4,50.8,304.7z"/>
	<path class="st0" d="M889.8,666.5c-0.1-5.5,3.8-9.5,9.2-9.5c5.3,0,9.6,4.3,9.5,9.4c-0.1,4.9-4.2,9.1-9.2,9.3
		C894,675.8,889.8,671.8,889.8,666.5z"/>
	<path class="st0" d="M59.8,666.1c0.1,5.4-3.9,9.6-9.2,9.6c-5.2,0-9.6-4.3-9.6-9.4c0-5,4.1-9.1,9.1-9.3
		C55.6,656.8,59.7,660.7,59.8,666.1z"/>
	<path class="st0" d="M405.6,925.8c5.4,0.1,9.2,4.1,9.1,9.6c-0.2,5-4.3,9.1-9.3,9.1c-5.1,0-9.5-4.5-9.4-9.6
		C396.1,929.7,400.2,925.7,405.6,925.8z"/>
	<path class="st0" d="M889,271.8c-5.4,0-9.4-3.9-9.3-9.4c0.1-5.1,4-9.2,9-9.3c5.1-0.2,9.6,4.2,9.7,9.3
		C898.6,267.5,894.4,271.8,889,271.8z"/>
	<path class="st0" d="M71.5,716.8c-5.3-0.1-9.5-4.5-9.3-9.6c0.2-4.9,4.6-9.1,9.4-9.2c5.2,0,9.4,4.2,9.4,9.5
		C80.9,713,76.9,716.9,71.5,716.8z"/>
	<path class="st0" d="M120.4,765c0,5-4.6,9.6-9.6,9.5c-5.2-0.1-9.3-4.4-9.2-9.7c0.1-5.2,3.9-9,9.2-9
		C116.1,755.7,120.4,759.8,120.4,765z"/>
	<path class="st0" d="M838.4,755.8c5.5-0.1,9.5,3.7,9.5,9.2c0,5.3-4.2,9.6-9.3,9.6c-4.8,0-9.2-4.3-9.5-9.1
		C828.9,760.3,833.2,755.9,838.4,755.8z"/>
	<path class="st0" d="M908.3,635.6c5.3,0.1,9.5,4.5,9.3,9.6c-0.2,4.9-4.6,9.1-9.4,9.2c-5.2,0-9.4-4.2-9.3-9.5
		C898.8,639.4,902.8,635.5,908.3,635.6z"/>
	<path class="st0" d="M59.8,283.3c0,5.4-4,9.4-9.4,9.4c-5.2,0-9.5-4.4-9.4-9.5c0.1-5,4.3-9.1,9.3-9.2
		C55.7,273.9,59.8,277.9,59.8,283.3z"/>
	<path class="st0" d="M50.8,645c0,5.3-4.3,9.5-9.5,9.4c-5.1-0.1-9.5-4.8-9.3-9.8c0.2-5,4.4-9,9.4-9C46.9,635.5,50.8,639.5,50.8,645z
		"/>
	<path class="st0" d="M889.8,283.5c-0.1-5.4,3.9-9.5,9.2-9.5c5.2,0,9.6,4.3,9.5,9.4c0,5-4.2,9.1-9.2,9.3
		C893.9,292.9,889.8,288.9,889.8,283.5z"/>
	<path class="st0" d="M437.7,11.6c0,5.4-4,9.4-9.4,9.3c-5.1-0.1-9.2-4-9.3-9c-0.2-5.1,4.2-9.6,9.3-9.7
		C433.5,2.1,437.7,6.3,437.7,11.6z"/>
	<path class="st0" d="M877.6,716.8c-5.4-0.1-9.2-4.2-9-9.7c0.2-5.1,4.4-9.1,9.3-9.1c5.1,0,9.5,4.6,9.4,9.6
		C887.3,712.9,883,716.9,877.6,716.8z"/>
	<path class="st0" d="M887.4,242.3c-0.2,5.1-4.8,9.5-9.8,9.3c-5.2-0.2-9.2-4.6-9-9.9c0.2-5.4,4.4-9.1,9.9-8.8
		C883.5,233.1,887.5,237.4,887.4,242.3z"/>
	<path class="st0" d="M71.8,232.8c5.4,0.1,9.3,4.1,9.1,9.6c-0.1,5.1-4.3,9.2-9.2,9.2c-5,0-9.6-4.5-9.6-9.5
		C62.2,236.9,66.5,232.8,71.8,232.8z"/>
	<path class="st0" d="M369.4,24c-0.1,5.2-4.6,9.2-9.8,9.1c-5.4-0.2-9.2-4.3-8.9-9.8c0.2-5.1,4.4-9.1,9.4-9
		C365.1,14.4,369.5,19,369.4,24z"/>
	<path class="st0" d="M589.7,33.1c-5.3,0-9.6-4.3-9.6-9.4c0.1-5.1,4.6-9.5,9.7-9.4c5,0.1,9,4.2,9.1,9.3
		C599,29,595.1,33.1,589.7,33.1z"/>
	<path class="st0" d="M337.7,20.8c5.4,0,9.3,4,9.2,9.5c-0.1,5.1-4.1,9.2-9.1,9.3c-5,0.1-9.6-4.4-9.6-9.4
		C328,25,332.4,20.8,337.7,20.8z"/>
	<path class="st0" d="M589.6,916.6c5.4,0,9.4,4,9.3,9.5c-0.1,5.1-4,9.2-9,9.3c-5,0.2-9.6-4.2-9.7-9.3
		C580.1,920.9,584.4,916.6,589.6,916.6z"/>
	<path class="st0" d="M602.7,30.1c0-5.5,3.9-9.4,9.4-9.3c5.1,0.1,9.2,4,9.4,9c0.2,5-4.3,9.6-9.3,9.8C607,39.7,602.7,35.4,602.7,30.1
		z"/>
	<path class="st0" d="M369.4,926.1c-0.1,5.1-4.8,9.5-9.8,9.3c-5.2-0.2-9.2-4.6-9-9.9c0.2-5.2,4.1-8.9,9.3-8.9
		C365.2,916.6,369.5,921,369.4,926.1z"/>
	<path class="st0" d="M611.7,928.9c-5.4-0.1-9.2-4.2-9-9.7c0.2-5.1,4.3-9.1,9.3-9.1c5,0,9.5,4.6,9.5,9.6
		C621.4,924.9,617,929,611.7,928.9z"/>
	<path class="st0" d="M337.7,928.9c-5.3,0-9.6-4.1-9.6-9.3c0-5,4.6-9.5,9.6-9.5c5,0.1,9,4.1,9.2,9.2
		C347,924.8,343.1,928.9,337.7,928.9z"/>
	<path class="st0" d="M184.8,831.4c0,5.4-4,9.4-9.4,9.3c-5-0.1-9.2-4.1-9.3-9.1c-0.1-5.1,4.2-9.5,9.4-9.6
		C180.8,821.9,184.9,826.1,184.8,831.4z"/>
	<path class="st0" d="M272.9,64.8c-5.4,0-9.4-4-9.3-9.4c0.1-5.1,4-9.2,9.1-9.3c5.1-0.1,9.6,4.2,9.7,9.3
		C282.4,60.5,278.2,64.7,272.9,64.8z"/>
	<path class="st0" d="M511.8,938.1c-0.1-5.5,3.8-9.4,9.3-9.4c5.3,0,9.5,4.2,9.5,9.4c-0.1,4.9-4.3,9.2-9.2,9.4
		C516.2,947.7,511.9,943.4,511.8,938.1z"/>
	<path class="st0" d="M798.7,149.6c0.1-5.3,4.4-9.5,9.6-9.3c4.9,0.2,9.1,4.5,9.2,9.4c0.1,5.1-4.3,9.4-9.5,9.4
		C802.5,159.1,798.6,155.1,798.7,149.6z"/>
	<path class="st0" d="M798.7,799.9c0-5.4,4-9.5,9.3-9.4c5.2,0.1,9.6,4.4,9.4,9.5c-0.1,4.9-4.4,9.1-9.3,9.3
		C803,809.5,798.7,805.2,798.7,799.9z"/>
	<path class="st0" d="M150.9,150c-0.1,5.4-4.1,9.4-9.5,9.2c-5-0.2-9.2-4.3-9.2-9.3c-0.1-5,4.4-9.6,9.5-9.5
		C146.9,140.4,150.9,144.6,150.9,150z"/>
	<path class="st0" d="M150.9,799.7c0.1,5.4-4,9.6-9.2,9.6c-5.1,0-9.6-4.5-9.5-9.5c0-4.9,4.2-9.1,9.2-9.3
		C146.7,790.3,150.8,794.3,150.9,799.7z"/>
	<path class="st0" d="M875.2,727.4c0,5.3-4.2,9.4-9.5,9.3c-5.3-0.1-9.5-4.4-9.3-9.6c0.2-5,4.3-9.1,9.3-9.1
		C870.9,717.9,875.2,722.2,875.2,727.4z"/>
	<path class="st0" d="M135.2,782.9c-0.1,5.2-4.5,9.4-9.7,9.3c-5.2-0.1-9.4-4.6-9.2-9.8c0.2-5,4.4-9.1,9.4-9.1
		C131,773.4,135.3,777.8,135.2,782.9z"/>
	<path class="st0" d="M125.6,176.3c-5.2-0.1-9.4-4.5-9.2-9.7c0.2-5,4.3-9.1,9.4-9.1c5.2,0,9.5,4.3,9.5,9.5
		C135.2,172.1,130.8,176.4,125.6,176.3z"/>
	<path class="st0" d="M875.2,222.3c0,5.2-4.3,9.4-9.5,9.4c-5.2-0.1-9.5-4.5-9.3-9.6c0.2-5,4.2-9,9.3-9.1
		C871,212.9,875.2,217,875.2,222.3z"/>
	<path class="st0" d="M437.7,938.1c0,5.3-4.3,9.6-9.5,9.4c-5.1-0.2-9.4-4.7-9.2-9.8c0.2-5,4.3-8.9,9.4-9
		C433.8,928.7,437.8,932.6,437.7,938.1z"/>
	<path class="st0" d="M484.2,940.5c-0.1,5.2-4.5,9.3-9.7,9.2c-5.2-0.2-9.3-4.6-9.1-9.8c0.3-5.1,4.3-8.9,9.5-8.9
		C480.2,931,484.3,935.2,484.2,940.5z"/>
	<path class="st0" d="M923,339.3c5.1,0.1,9.5,4.6,9.3,9.7c-0.2,5.2-4.6,9.3-9.8,9.1c-5.2-0.2-8.9-4.2-8.9-9.4
		C913.5,343.5,917.8,339.2,923,339.3z"/>
	<path class="st0" d="M26.5,358.2c-5.2-0.1-9.5-4.6-9.3-9.7c0.2-5,4.5-9.1,9.4-9.2c5.2-0.1,9.4,4.2,9.4,9.5
		C36,354.2,31.9,358.3,26.5,358.2z"/>
	<path class="st0" d="M83.9,231.7c-5.2,0.1-9.5-4.2-9.5-9.4c0-5,4-9.2,9.1-9.3c5.3-0.2,9.6,3.9,9.8,9.1
		C93.4,227.2,89.1,231.6,83.9,231.7z"/>
	<path class="st0" d="M84,736.7c-5.3,0.1-9.6-4-9.6-9.3c0-5.2,4.2-9.5,9.5-9.4c5,0,9.2,4.1,9.4,9.1C93.4,732.3,89.2,736.6,84,736.7z
		"/>
	<path class="st0" d="M833.1,782.6c0.1,5.3-4,9.6-9.3,9.6c-5.2,0-9.5-4.3-9.5-9.5c0-4.9,4.2-9.2,9.2-9.4
		C828.6,773.2,833,777.4,833.1,782.6z"/>
	<path class="st0" d="M755.9,836.5c5.3,0.1,9.5,4.4,9.4,9.6c-0.1,5.1-4.7,9.5-9.8,9.2c-5-0.2-9-4.4-9-9.4
		C746.4,840.6,750.6,836.4,755.9,836.5z"/>
	<path class="st0" d="M923.2,591.5c5.2,0.2,9.4,4.8,9.1,9.9c-0.3,5-4.6,9-9.6,9c-5.2-0.1-9.3-4.4-9.2-9.7
		C913.7,595.3,917.9,591.3,923.2,591.5z"/>
	<path class="st0" d="M475,0c5.2,0.1,9.4,4.5,9.2,9.7c-0.2,5.3-4.5,9.2-9.8,9c-5.1-0.2-9-4.3-9-9.4C465.4,4.1,469.7-0.1,475,0z"/>
	<path class="st0" d="M26.9,610.3c-5.1,0.1-9.6-4.2-9.7-9.3c-0.1-4.9,4-9.2,9-9.5c5.3-0.3,9.6,3.7,9.8,9
		C36.2,605.8,32.2,610.2,26.9,610.3z"/>
	<path class="st0" d="M823.8,176.3c-5.2,0-9.6-4.4-9.5-9.5c0.1-5.2,4.5-9.5,9.6-9.4c5.1,0.1,9.1,4.2,9.1,9.2
		C833.2,172,829,176.2,823.8,176.3z"/>
	<path class="st0" d="M756,113.1c-5.3,0.1-9.5-4-9.6-9.3c0-5.2,4.3-9.6,9.4-9.5c4.9,0,9.2,4.2,9.4,9.2
		C765.5,108.6,761.3,113,756,113.1z"/>
	<path class="st0" d="M193.6,113.1c-5.3-0.1-9.5-4.4-9.4-9.6c0.2-4.9,4.4-9.1,9.3-9.2c5.1-0.1,9.4,4.2,9.5,9.4
		C203.1,109.1,199,113.2,193.6,113.1z"/>
	<path class="st0" d="M203.1,845.8c0,5.3-4.2,9.6-9.4,9.6c-5.1,0-9.5-4.5-9.4-9.6c0.1-5,4.2-9.1,9.2-9.2
		C198.9,836.4,203,840.4,203.1,845.8z"/>
	<path class="st0" d="M579.6,788.5c-0.4-4.3-0.7-7.5-1.2-12.2c3.6,3.2,6.1,5.4,9.1,8.1C584.8,785.9,582.6,787,579.6,788.5z"/>
	<path class="st0" d="M634.9,769.9c-3.6,0.5-6.6,0.9-9.6,1.3c-0.2-0.4-0.4-0.8-0.6-1.3c2.6-1.9,5.3-3.9,8.4-6.2
		C633.8,766.1,634.2,767.6,634.9,769.9z"/>
	<path class="st0" d="M224.9,198.7c5.5,6.3,10,11.5,15.1,17.3c-2.7,2.3-6.2,5.4-9,7.7c-11.9-14.2-23.5-28.1-36.1-43.1
		c9.9-7.3,19.6-14.5,29.3-21.6c1.4-1,3.4-1.5,5.2-1.8c5.7-0.9,11.1-0.3,15.1,4.4c3.9,4.7,3.9,10.1,1.8,15.5
		c-0.7,1.8-1.7,3.6-2.8,6.1c5.3,0.9,10.3,1.7,15.2,2.5c4.9,0.8,7.4,3.3,6.8,6.8c-0.7,3.7-4,5.3-9.1,4.4c-7.1-1.1-14.1-2.7-21.2-2.9
		C232,194,228.8,196.8,224.9,198.7z M218.3,190.6c5-4.5,9.8-8.1,13.8-12.6c2-2.2,2.4-5.8,3.5-8.7c-3.1,0.5-6.7,0.1-9.2,1.6
		c-5.2,3.2-9.7,7.4-14.9,11.5C213.9,185.2,215.8,187.6,218.3,190.6z"/>
	<path class="st0" d="M835.2,567c-4.5,2.5-8.8,4.9-13.1,7.3c-4.3,2.4-7.9,2-9.7-1.1c-1.9-3.3-0.4-6.7,4.2-9.2c5.1-2.8,10-6,15.3-8.3
		c5.3-2.3,7.6-6,7.4-12.3c-6.6-1.4-13.5-2.9-20.9-4.6c0.8-3.6,1.8-7.9,2.6-11.8c5.2,1.3,10,2.6,14.7,3.7c11.6,2.7,23.3,5.5,35,7.9
		c3.5,0.7,4.2,1.9,3.3,5.4c-2.1,7.7-3.2,15.7-5.7,23.2c-1.6,4.9-4.3,9.9-7.9,13.5c-7.8,7.9-19.3,4.9-23.2-5.6
		C836.4,572.9,836,570.2,835.2,567z M850.6,546.3c-1.1,7.5-2.4,14.3-3,21.2c-0.2,2,1.6,4.1,2.4,6.1c1.7-1.3,4.4-2.3,5-4.1
		c2.3-6.2,3.9-12.6,5.6-19c0.2-0.7-0.9-2.2-1.7-2.4C856.6,547.3,854,547,850.6,546.3z"/>
	<path class="st0" d="M140.8,368.6c0.5,8.1-3.8,12.9-12.6,15.6c-11.1,3.4-21.7,8.3-32.6,13.7c11.9,2.9,23.7,5.9,36.1,8.9
		c-1,4.3-2,8.2-2.6,11.2c-18-4.3-35.7-8.6-53.8-12.9c0.5-2.2,0.9-5.8,2.2-9.1c0.6-1.5,2.6-2.9,4.2-3.6c11.5-4.7,23.2-9.2,34.8-13.7
		c1.5-0.6,3-1.3,5.7-2.5c-10.8-2.6-20.4-5-30-7.3c-1.3-0.3-2.6-0.8-3.9-0.9c-3.3-0.3-3.7-2-2.8-4.8c0.9-2.7,1.4-5.4,1.8-7.4
		C105.2,360,122.8,364.2,140.8,368.6z"/>
	<path class="st0" d="M831.7,623.1c-10.9-5.1-21.9-10.1-33.4-15.4c1.8-4.1,3.6-7.9,4.8-10.5c16.9,7.8,33.4,15.3,50.3,23.1
		c0-0.8,0.1-0.4,0-0.1c-2,8.2-6.9,11.9-15.6,12.8c-11.5,1.2-22.7,4-34.4,7.3c11,5.1,22,10.1,33.5,15.4c-1.8,4-3.5,7.7-4.7,10.5
		c-16.8-7.7-33.3-15.2-49.9-22.8c1.7-8.8,3.9-10.8,13-12.4c12.1-2.1,24.1-4.3,36.1-6.5C831.5,624.1,831.6,623.6,831.7,623.1z"/>
	<path class="st0" d="M256.6,143.5c2.4-4.2,4.1-9,7.3-12.5c6.1-6.6,14.1-10.5,22.9-12.5c5.6-1.3,10.1,1.4,10.9,6.6
		c0.3,1.9-0.6,4.7-2,6c-1.2,1.1-4.5,1.7-5.8,0.8c-3-2-5.4-1.2-7.8,0.4c-3.8,2.5-7.7,5.1-11.2,8.1c-1,0.9-1.6,3.8-0.9,4.8
		c0.7,1.1,3.3,1.7,4.8,1.4c3-0.7,5.8-2.5,8.8-3.3c4.7-1.4,9.5-3.3,14.3-3.4c11-0.2,17.3,10,13.1,20.2c-3.6,8.8-20.7,19.7-30.3,19.5
		c-4.7-0.1-7.7-2.7-8.5-6.9c-0.4-1.9,0.8-4.7,2.2-6c1.2-1.1,4.4-1.5,5.8-0.7c2.8,1.8,5.1,1.3,7.4-0.2c4-2.6,8-5.3,11.6-8.4
		c1-0.9,1.6-3.8,0.9-4.8c-0.7-1.1-3.3-1.7-4.8-1.3c-3.3,0.9-6.5,2.4-9.7,3.8c-5.6,2.5-11.2,4.2-17.4,2.5
		c-6.4-1.8-10.5-6.9-10.5-13.5C257.5,144,257,143.7,256.6,143.5z"/>
	<path class="st0" d="M157.9,668.6c6.8-3.9,12.6-7.3,18.9-10.9c1.7,3,3.9,7,5.8,10.2c-16.1,9-31.9,17.8-48.2,26.9
		c-1.7-2.9-3.9-6.8-5.8-10.1c6.3-3.5,12.5-6.9,19.2-10.6c-4.6-8.2-8.9-15.8-13.5-24.1c-6.4,3.7-12.6,7.2-19,10.9
		c-1.7-3.1-4-7.1-5.8-10.3c16.1-8.9,31.9-17.7,48.1-27.1c1.6,2.9,4,7,5.8,10.3c-6.3,3.5-12.4,6.8-19.2,10.5
		C148.9,652.6,153.3,660.5,157.9,668.6z"/>
	<path class="st0" d="M879.4,482.6c0.1,15-12.5,27.7-27.6,27.8c-15,0.1-27.7-12.5-27.8-27.6c-0.1-15.1,12.5-27.7,27.6-27.8
		C866.7,455,879.3,467.5,879.4,482.6z M851.7,466.7c-8.9,0-16.1,7.3-16,16.2c0.1,8.6,7.3,15.9,15.9,16c8.7,0.1,16.3-7.3,16.4-16.1
		C867.9,474,860.6,466.6,851.7,466.7z"/>
	<path class="st0" d="M541,109.7c0-15.2,12.3-27.7,27.5-27.7c15.3,0,27.5,12.2,27.6,27.6c0,15.3-12.2,27.7-27.5,27.7
		C553.4,137.4,541,124.9,541,109.7z M552.5,109.7c0,8.9,7.4,16.2,16.2,16.1c8.6-0.1,15.9-7.4,16-16c0.1-8.8-7.2-16.2-16.1-16.2
		C559.6,93.6,552.5,100.7,552.5,109.7z"/>
	<path class="st0" d="M178.1,198.9c3.4,2.9,6.5,5.4,9,7.5c-6.4,7.5-12.7,14.9-19.3,22.6c2.8,2.3,5.1,4.3,7.9,6.7
		c4.4-5.2,8.6-10.1,13.2-15.4c2.9,2.3,5.7,4.6,8.8,7.1c-4.3,5.3-8.5,10.4-12.9,15.8c2.6,2.2,5,4.2,7.8,6.6
		c6.4-7.6,12.6-15,19.1-22.8c2.2,1.9,5.4,4.5,8.9,7.4c-9.3,11.1-18.3,21.9-26.7,31.8c-13.9-12.2-27.9-23.6-42.2-35.6
		C159.7,220.9,168.7,210.1,178.1,198.9z"/>
	<path class="st0" d="M125.5,568c2.9-1,6.5-2.1,10.9-3.6c4.5,13.5,8.8,26.6,13,39.2c-17.5,5.7-34.8,11.4-52.5,17.3
		c-4-12.2-8.4-25.4-12.9-39.2c4-1.3,7.8-2.6,11-3.7c3.1,9.5,6,18.6,9.1,28.3c3.3-1.1,6.2-2,9.7-3.2c-2-6.5-4-12.7-6.1-19.4
		c3.6-1.2,7-2.3,10.7-3.5c2.2,6.4,4.2,12.5,6.5,19.2c3.2-1,6.1-1.9,9.8-3C131.7,586.8,128.6,577.6,125.5,568z"/>
	<path class="st0" d="M804,239.3c3.2,4.8,6.9,10.1,10.5,15.4c-7.2,6.7-33.6,43.1-34.3,47.8c-3.1-4.5-5.7-8.3-7.9-11.6
		c3.3-3.8,6.5-7.3,9.4-10.9c0.5-0.6,0.1-2.3-0.5-3.1c-3.8-5.8-7.8-11.5-11.9-17.5c-5,1.8-9.8,3.5-14.9,5.3c-2.2-3.2-4.7-6.9-6.6-9.7
		C766.3,249.9,784.7,244.7,804,239.3z M789.6,268.6c4.5-5.9,8.4-11,12.3-16.2c-0.3-0.3-0.6-0.7-0.9-1c-6.2,1.8-12.5,3.6-19.2,5.6
		C784.5,261.1,786.8,264.5,789.6,268.6z"/>
	<path class="st0" d="M719.4,725.9c2.3-2.6,5.2-6,8-9.1c4.2,2.2,8.1,4.4,12.2,6.2c0.8,0.4,2.7-0.1,3.3-0.8c4.7-5.1,9.3-10.5,14.1-16
		c-2.9-4.3-5.7-8.4-8.9-13.1c2.3-2.7,5.5-6.3,8.2-9.3c8.4,17.5,19.2,33.5,28.9,50.9c-3.6,4.1-7.9,9.1-12,13.7
		C755.2,740.6,737.5,732.9,719.4,725.9z M772,735.8c0.3-0.3,0.6-0.6,0.9-0.9c-3.3-5.7-6.6-11.3-10.3-17.6c-3.2,3.7-6,6.9-9.2,10.6
		C760,730.8,766,733.3,772,735.8z"/>
	<path class="st0" d="M69,481.9c0.3-4.3,0.6-8.8,0.9-12.3c11.3,0.1,22.5,2.5,33.8,0.6c6.9-1.2,10.7-6.5,10.6-13.1
		c-0.1-6.6-4.5-12.3-11.5-13.1c-9.2-1.1-18.6-1.3-27.9-1.7c-1.2-0.1-2.4,0.7-4,1.3c0.3-4.9,0.6-9.5,0.8-13.9
		c2.4,0.5,4.4,1.1,6.4,1.3c7.1,0.4,14.3,0.7,21.4,1.1c15.9,0.7,26.5,11.3,26.2,26.1c-0.3,14.2-11.7,24.5-27.4,24.4
		c-7.5,0-15-0.6-22.5-0.9C73.8,481.4,71.8,481.7,69,481.9z"/>
	<path class="st0" d="M754.1,235c-11.4,5.6-25.4,1.9-33.1-8.6c-7.9-10.7-6.9-25.8,2.2-35.3c9.3-9.7,24.1-11.4,35.2-4
		c11.2,7.4,15.4,21.6,9.7,34.5c-3.8-4.6-9.2-7-9.4-14.4c-0.1-7.6-8.5-13.7-16.2-13.2c-8.2,0.5-14.7,6.9-15.3,15.1
		c-0.6,7.9,4.9,16.3,12.6,16.6C747.1,225.9,749.9,231,754.1,235z"/>
	<path class="st0" d="M665.7,117.5c-1.8,3.9-3.5,7.5-4.9,10.5c-8.8-4.2-17.5-8.4-26.7-12.8c-1.9,3.8-3.6,7.3-5.5,11.4
		c7.5,3.6,14.8,7.1,22.6,10.8c-1.6,3.6-3.1,6.8-4.7,10.4c-7.5-3.5-14.7-6.9-22.7-10.6c-2.7,5.9-5.3,11.6-8.2,17.7
		c-3.1-1.4-7-3.3-10.6-4.9c7.8-16.6,15.6-33.1,23.5-50C640,105.4,652.7,111.3,665.7,117.5z"/>
	<path class="st0" d="M842.1,436c-1.1-7.3-2.3-13.8-3.1-20.4c-0.4-3.3-1.5-4.4-4.7-3.8c-5,1-10,1.8-15.2,2.7
		c-0.6-3.9-1.3-8.2-1.8-11.8c18.3-2.7,36.3-5.4,54.6-8.2c1.9,12.7,3.9,26.6,6,40.8c-4.6,0.7-8.5,1.3-11.6,1.8
		c-0.9-6.9-1.6-13.7-2.7-20.5c-1.5-9.6-1.6-9.5-11-7.5c-0.8,0.2-1.6,0.5-2.8,0.9c1.1,8,2.2,16,3.4,24.3
		C849.5,434.9,846.1,435.4,842.1,436z"/>
	<path class="st0" d="M106.9,304.2c0.6-1.4,0.8-2,1.1-2.6c2-5.6,5.2-7.9,11.9-7c11.5,1.6,23.2,1.7,34.8,2.4c1.3,0.1,2.6,0,4.9,0
		c-1.2-2-2-3.3-2.9-4.6c-6.5-9.2-13-18.5-19.5-27.7c-5.3-7.5-5.3-7.9,1.4-15.9c2.2,3,4.3,5.9,6.4,8.9c8.7,12.4,17.2,24.9,26.3,37
		c3.5,4.8-0.6,7.2-1.8,10.6c-1.1,3-3.3,2.9-6,2.7c-16.7-1.3-33.5-2.3-50.3-3.5C111.2,304.5,109.4,304.4,106.9,304.2z"/>
	<path class="st0" d="M202.6,694c2.3,2.7,5.2,6.1,7.6,9c-11.2,9.2-22.3,18.3-33.8,27.8c4.5,5.1,7.8,10.5,13.1,14.5
		c-2.8,2.3-5.9,4.9-9.5,7.9c-10.8-13-21.5-25.7-32.3-38.8c3.3-2.8,6.4-5.5,8.9-7.6c4.1,5,8,9.8,12.4,15.2
		C180.3,712.7,191.3,703.5,202.6,694z"/>
	<path class="st0" d="M362.9,97.9c-6.6,1.9-12.4,3.7-18.7,5.5c-0.9-3.1-2-6.9-3.2-11.2c13.2-3.7,26.1-7.4,39-11.1
		c9.8-2.8,9.8-2.8,12.5,7.2c0.2,0.6,0.2,1.3,0.3,1.6c-6.1,1.6-12.2,3.1-18.9,4.8c4.1,14.4,8.1,28.1,12.1,42.1
		c-3.3,0.9-7.6,2.1-11.4,3.2C370.7,126.1,366.9,112.4,362.9,97.9z"/>
	<path class="st0" d="M786.9,316.1c17-7.3,33.7-14.5,50.7-21.8c1.2,2.8,2.8,6.4,4.5,10.6c-13.4,5.8-26.5,11.4-40.2,17.3
		c4.6,10.6,9,20.8,13.6,31.5c-2.6,1.1-6.3,2.7-10.6,4.6C798.7,343.6,792.6,329.3,786.9,316.1z"/>
	<path class="st0" d="M435.1,96.7c3.9-9.2,7.2-17.1,10.8-25.7c3.4-0.4,8-0.8,11.6-1.2c-5,11.8-11.1,23.4-14.8,35.8
		c-1.8,6.2,0.7,13.8,1.4,21.1c-3,0.3-7.4,0.8-11.7,1.2c-0.5-6.3-0.9-12.2-1.6-18.1c-0.3-2-1.5-4-2.7-5.8
		c-5.4-7.8-10.9-15.5-16.3-23.3c-1.5-2.1-2.8-4.4-3.6-5.8c2.6-0.3,7.1-0.8,10.9-1.2C424.3,81.5,429.3,88.6,435.1,96.7z"/>
	<path class="st0" d="M764.7,670c1.9-3,4.4-6.8,6.3-9.7c15.6,10.1,30.8,20,46.3,30.1c-2.1,3.2-4.5,7-6.3,9.7
		C795.5,690,780.2,680.1,764.7,670z"/>
	<path class="st0" d="M96.9,329.9c1.4-3.5,3.1-7.8,4.4-10.8c17.1,6.9,34,13.6,51.2,20.6c-1.4,3.5-3.1,7.8-4.3,10.7
		C131.1,343.6,114.3,336.9,96.9,329.9z"/>
	<path class="st0" d="M808.5,371.2c17.9-5.2,35.3-10.3,53-15.4c1,3.4,2.2,7.6,3.2,11.1c-17.7,5.2-35.1,10.3-52.9,15.5
		C810.8,379.1,809.5,374.6,808.5,371.2z"/>
	<path class="st0" d="M311.4,104.7c3.2-1.4,7.2-3.1,10.7-4.6c7.2,16.9,14.3,33.6,21.6,50.8c-3.1,1.3-7.3,3.1-10.7,4.6
		C325.7,138.4,318.6,121.8,311.4,104.7z"/>
	<path class="st0" d="M498,107.8c-5.4,0.1-9.6-3.9-9.6-9.2c0-5.2,4.3-9.6,9.4-9.5c5,0,9.2,4.1,9.4,9.1
		C507.4,103.4,503.3,107.7,498,107.8z"/>
	<path class="st0" d="M91.7,524.3c-0.1-5.5,3.7-9.5,9.2-9.5c5.3,0,9.6,4.2,9.6,9.3c-0.1,4.8-4.3,9.2-9.2,9.4
		C96.2,533.8,91.8,529.6,91.7,524.3z"/>
	<path class="st0" d="M245.3,783.4c-5.2,0-9.4-4.3-9.4-9.6c0-5.1,3.9-9.1,9.1-9.2c5.4-0.1,9.6,3.8,9.6,9.1
		C254.7,779,250.5,783.4,245.3,783.4z"/>
	<path class="st0" d="M681.8,165.9c0-5.4,4-9.3,9.5-9.2c5.1,0.1,9.2,4.1,9.3,9.1c0.1,5-4.4,9.6-9.5,9.6
		C685.9,175.5,681.7,171.2,681.8,165.9z"/>
	<path class="st0" d="M704.1,783.4c-5.2-0.1-9.3-4.5-9.2-9.8c0.1-5.3,4.4-9.2,9.8-9c5.2,0.2,9,4.2,8.9,9.4
		C713.6,779.3,709.2,783.6,704.1,783.4z"/>
	<path class="st0" d="M623.8,197.8c-1.4,0.6-2.9,1.8-4.3,1.7c-9-0.5-17.9-1.3-26.8-2c-16.2-1.3-32.5-2.6-48.7-4
		c-2.3-0.2-6.4,1-5.8-4.6c28.6,2.3,56.8,4.6,85.1,7C623.4,196.5,623.6,197.1,623.8,197.8z"/>
	<path class="st0" d="M369.9,343.9c-15.4,0-30.2,0.1-45-0.1c-1.1,0-3.1-1.7-3.1-2.6c-0.2-15.1-0.1-30.2-0.1-45.7
		c16.3,0,32.1,0,48.3,0C369.9,311.5,369.9,327.3,369.9,343.9z M326,299.6c0,13.6,0,26.8,0,40.1c13.4,0,26.5,0,39.7,0
		c0-13.5,0-26.7,0-40.1C352.3,299.6,339.4,299.6,326,299.6z"/>
	<path class="st0" d="M397.5,522.7c-11.8,0-23.7,0.1-35.5-0.1c-1.3,0-2.5-1.2-3.8-1.9c1.3-0.6,2.6-1.9,3.9-1.9
		c23.5-0.1,47-0.1,70.5,0c1.3,0,2.7,1.1,4,1.7c-1.3,0.7-2.7,2-4,2C420.9,522.8,409.2,522.7,397.5,522.7z"/>
	<path class="st0" d="M383.5,373.7c-10.2,0-20.3,0.1-30.5-0.1c-1.3,0-2.6-1-4-1.6c1.3-0.7,2.7-2.1,4-2.1c20.2-0.1,40.3-0.1,60.5,0
		c1.4,0,2.9,1.2,4.3,1.9c-1.5,0.6-2.9,1.8-4.4,1.8C403.5,373.8,393.5,373.7,383.5,373.7z"/>
	<path class="st0" d="M372,490.6c-1.1,0.7-2.1,2.1-3.2,2.1c-15,0.1-30,0.1-45,0c-1.1,0-2.1-1.4-3.2-2.2c0.3-0.4,0.5-0.9,0.8-1.3
		c16.6,0,33.2,0,49.8,0C371.4,489.7,371.7,490.1,372,490.6z"/>
	<path class="st0" d="M400,430.7c-1.1,0.9-2.2,2.6-3.3,2.6c-10.3,0.2-20.6,0.2-30.9,0c-1.1,0-2.1-1.8-3.2-2.7
		c0.3-0.4,0.6-0.8,0.9-1.2c11.8,0,23.5,0,35.3,0C399.2,429.8,399.6,430.2,400,430.7z"/>
	<path class="st0" d="M320.6,506.2c1-0.8,2-2.2,3.1-2.2c13.5-0.1,26.9-0.1,40.4,0c0.9,0,1.7,1.3,2.6,2c-0.8,0.6-1.6,1.6-2.5,1.6
		c-14.3,0.1-28.5,0.1-42.8,0.1C321.2,507.2,320.9,506.7,320.6,506.2z"/>
	<path class="st0" d="M349.7,474c12.6,0,25.2,0,37.8,0.1c0.9,0,1.8,1.3,2.6,2c-0.8,0.6-1.7,1.7-2.5,1.7c-12.1,0.1-24.2,0.1-36.3,0
		c-0.9,0-1.9-1.6-2.8-2.4C349,474.9,349.3,474.5,349.7,474z"/>
	<path class="st0" d="M360.3,444.1c4.3,0,8.6-0.1,12.9,0.1c1.1,0.1,2.1,1.4,3.1,2.1c-0.9,0.7-1.9,2-2.8,2c-8.8,0.2-17.6,0.2-26.4,0
		c-1,0-1.9-1.3-2.8-2c1-0.7,2-2,3.1-2.1C351.6,444,356,444.1,360.3,444.1z"/>
	<path class="st0" d="M405.5,578.3c10.1,0,20.2,0,32.2,0c-1.7,1.9-2.7,3.9-3.6,3.9c-8.8,0.2-17.6,0.2-26.4,0c-1.1,0-2.2-1.6-3.3-2.4
		C404.8,579.3,405.2,578.8,405.5,578.3z"/>
	<path class="st0" d="M427.1,567.5c-9.6,0-19.1,0.1-28.7-0.1c-0.9,0-1.8-1.3-2.6-2c0.9-0.7,1.8-2,2.7-2c8.8-0.2,17.5-0.2,26.3,0
		c1.1,0,2.2,1.8,3.2,2.7C427.7,566.5,427.4,567,427.1,567.5z"/>
	<path class="st0" d="M384.9,552.6c-11.1,0-22.2,0-33.3-0.1c-0.9,0-1.7-1.3-2.6-2c0.8-0.6,1.6-1.8,2.3-1.8c10.6-0.1,21.2-0.1,31.8,0
		c0.9,0,1.9,1.6,2.8,2.5C385.6,551.7,385.2,552.1,384.9,552.6z"/>
	<path class="st0" d="M390.8,507.7c-5,0-10,0.1-14.9-0.1c-1.2-0.1-2.4-1.3-3.7-2c1.1-0.6,2.3-1.7,3.4-1.7c9.8-0.1,19.6-0.2,29.4,0
		c1.2,0,2.4,1.3,3.6,2c-1.3,0.6-2.6,1.6-3.9,1.7C400.1,507.9,395.4,507.7,390.8,507.7z"/>
	<path class="st0" d="M427,537.4c-11.9,0-23.8,0-35.7,0c-0.3-0.4-0.5-0.9-0.8-1.3c1-0.8,2.1-2.3,3.1-2.3c10.5-0.2,20.9-0.2,31.4,0
		c1,0,1.9,1.7,2.9,2.6C427.6,536.7,427.3,537,427,537.4z"/>
	<path class="st0" d="M413.8,474c5,0,10-0.1,14.9,0.1c1,0,2,1,3,1.6c-1,0.7-2,2.1-3.1,2.1c-10,0.2-19.9,0.2-29.9,0c-1,0-2-1.4-3-2.1
		c1-0.5,2-1.5,3.1-1.6C403.9,473.9,408.8,474,413.8,474z"/>
	<path class="st0" d="M321.5,429.2c8.1,0,16.2-0.1,24.3,0.1c0.9,0,1.8,1.3,2.6,2c-0.9,0.7-1.8,2-2.7,2c-7.3,0.2-14.6,0.2-21.9,0
		c-1.1,0-2.2-1.8-3.2-2.7C320.9,430.1,321.2,429.6,321.5,429.2z"/>
	<path class="st0" d="M391.5,444.1c7.9,0,15.9-0.1,23.8,0.1c0.9,0,1.8,1.3,2.6,2c-0.9,0.7-1.8,2-2.8,2c-7.1,0.2-14.3,0.2-21.4,0
		c-1.1,0-2.1-1.8-3.2-2.8C390.9,445,391.2,444.6,391.5,444.1z"/>
	<path class="st0" d="M378.7,295.2c7.8,0,15.5-0.1,23.3,0.1c0.9,0,1.7,1.3,2.6,2c-0.9,0.7-1.8,2-2.7,2c-7.1,0.2-14.2,0.2-21.3,0
		c-1.1,0-2.1-1.6-3.1-2.5C377.9,296.2,378.3,295.7,378.7,295.2z"/>
	<path class="st0" d="M387.9,388.7c-4.3,0-8.6,0.1-12.9-0.1c-1,0-1.9-1.2-2.8-1.8c0.9-0.7,1.8-1.9,2.8-1.9c8.8-0.1,17.6-0.1,26.3,0
		c0.9,0,1.9,1.2,2.8,1.9c-0.9,0.6-1.8,1.8-2.8,1.8C396.9,388.8,392.4,388.7,387.9,388.7z"/>
	<path class="st0" d="M421.2,354.9c4.1,0,8.3-0.1,12.4,0.1c1,0,2,1.1,2.9,1.7c-1,0.7-2,2-3.1,2c-8.4,0.2-16.9,0.2-25.4,0
		c-1.1,0-2.1-1.2-3.2-1.9c1.1-0.6,2.2-1.7,3.3-1.8C412.6,354.8,416.9,354.9,421.2,354.9z"/>
	<path class="st0" d="M400,579.4c-1,1-2.1,2.7-3.2,2.8c-5.6,0.3-11.3,0.3-16.9,0c-1.2-0.1-2.3-1.7-3.4-2.6c0.3-0.4,0.6-0.8,0.8-1.3
		c7.2,0,14.5,0,21.7,0C399.4,578.7,399.7,579.1,400,579.4z"/>
	<path class="st0" d="M437.1,431c-1.2,0.8-2.4,2.3-3.6,2.3c-5.5,0.3-10.9,0.2-16.4,0c-1,0-2-1.4-3-2.1c1-0.7,2.1-1.9,3.1-2
		c6.3-0.2,12.6-0.1,18.8-0.1C436.4,429.8,436.7,430.4,437.1,431z"/>
	<path class="st0" d="M372.5,283.1c1.1-1,2.1-2.7,3.2-2.7c5.6-0.3,11.3-0.2,17,0c0.9,0,1.8,1.3,2.8,2c-0.9,0.7-1.7,2.1-2.6,2.1
		c-6.5,0.2-12.9,0.1-19.4,0.1C373.1,284,372.8,283.6,372.5,283.1z"/>
	<path class="st0" d="M380.2,567.5c-6.4,0-12.9,0.1-19.3-0.1c-0.9,0-1.8-1.3-2.6-2c0.9-0.7,1.8-2,2.7-2c5.6-0.2,11.3-0.2,16.9,0
		c1.1,0.1,2.2,1.8,3.3,2.7C380.8,566.5,380.5,567,380.2,567.5z"/>
	<path class="st0" d="M411.5,284.5c-2.8,0-5.7,0.1-8.4-0.1c-0.8-0.1-1.5-1.3-2.2-1.9c0.7-0.7,1.3-2.1,2-2.1c6.1-0.2,12.3-0.2,18.4,0
		c0.7,0,1.3,1.4,2,2.2c-0.8,0.6-1.5,1.8-2.3,1.8C417.8,284.6,414.7,284.5,411.5,284.5z"/>
	<path class="st0" d="M405,326.3c-0.9,0.9-1.7,2.5-2.6,2.5c-7.3,0.2-14.6,0.2-21.9,0c-0.8,0-1.7-1.4-2.5-2.1
		c0.8-0.6,1.6-1.6,2.5-1.6c7.9-0.1,15.8-0.1,23.8-0.1C404.5,325.4,404.7,325.8,405,326.3z"/>
	<path class="st0" d="M335.2,537.3c0.4-3.8,0.4-3.9,17.1-3.6c2.1,0,5.9-1.6,5.1,3.6C350,537.3,342.6,537.3,335.2,537.3z"/>
	<path class="st0" d="M321.5,474c6.6,0,13.2-0.1,19.7,0.1c0.8,0,1.6,1.1,2.3,1.7c-0.7,0.7-1.4,1.9-2.1,1.9c-6.1,0.2-12.2,0.2-18.3,0
		c-0.8,0-1.6-1.7-2.4-2.6C320.9,474.8,321.2,474.4,321.5,474z"/>
	<path class="st0" d="M418.7,312c-4.2,4.7-10.3,1.4-15.4,2c-2.4,0.3-6.9,2.2-7.4-3.6c7.7,0,15.1,0,22.4,0
		C418.4,310.9,418.5,311.5,418.7,312z"/>
	<path class="st0" d="M411.3,552.6c-3,0-6,0.1-8.9-0.1c-0.8-0.1-1.5-1.2-2.2-1.8c0.7-0.7,1.4-1.9,2.2-1.9c5.9-0.2,11.9-0.2,17.8,0
		c0.8,0,1.7,1.4,2.5,2.2c-0.8,0.6-1.6,1.6-2.4,1.6C417.2,552.7,414.2,552.6,411.3,552.6z"/>
	<path class="st0" d="M321.4,373.4c0.2-3.7,0.2-3.7,16.9-3.5c2,0,5.9-1.7,5,3.5C335.9,373.4,328.7,373.4,321.4,373.4z"/>
	<path class="st0" d="M320.6,521.3c1-0.8,2-2.3,3-2.3c5.8-0.2,11.6-0.2,17.3,0c0.9,0,1.7,1.3,2.6,2c-0.8,0.6-1.5,1.7-2.3,1.7
		c-6.6,0.1-13.2,0.1-19.7,0.1C321.2,522.2,320.9,521.7,320.6,521.3z"/>
	<path class="st0" d="M358.6,284.5c-2.2,0-4.4,0.2-6.5-0.1c-0.9-0.1-1.6-1.2-2.4-1.8c0.7-0.8,1.3-2.2,2-2.2c4.7-0.2,9.3-0.2,14,0
		c0.6,0,1.5,1.4,1.7,2.3c0.1,0.5-1.1,1.6-1.8,1.7C363.2,284.6,360.9,284.5,358.6,284.5z"/>
	<path class="st0" d="M421.2,388.7c-2.8,0-5.7,0.2-8.5-0.1c-1-0.1-1.9-1.1-2.9-1.7c0.9-0.7,1.8-2,2.7-2c5.5-0.2,11-0.2,16.4,0
		c1,0,1.9,1.2,2.9,1.8c-1.1,0.7-2.1,1.8-3.2,1.9C426.2,388.9,423.6,388.7,421.2,388.7z"/>
	<path class="st0" d="M380.9,358.7c-2.1,0-4.3,0.2-6.4-0.1c-0.8-0.1-1.5-1.2-2.2-1.9c0.6-0.6,1.2-1.7,1.9-1.7
		c4.8-0.1,9.6-0.1,14.4,0c0.6,0,1.6,1.2,1.6,1.9c0,0.6-1.1,1.7-1.8,1.7C385.8,358.8,383.3,358.7,380.9,358.7z"/>
	<path class="st0" d="M357.8,358.7c-2.1,0-4.3,0.2-6.4-0.1c-0.8-0.1-1.5-1.1-2.3-1.8c0.7-0.7,1.4-1.8,2.2-1.9
		c4.5-0.2,8.9-0.2,13.4,0c0.7,0,1.4,1.3,2.1,2c-0.7,0.6-1.3,1.6-2,1.6C362.4,358.8,360.1,358.7,357.8,358.7
		C357.8,358.7,357.8,358.7,357.8,358.7z"/>
	<path class="st0" d="M412.1,403.4c-0.6-5,3.1-3.8,5.4-3.8c11.7-0.2,11.7-0.1,11.7,3.8C423.6,403.4,418,403.4,412.1,403.4z"/>
	<path class="st0" d="M320.6,387.4c0.9-0.9,1.7-2.4,2.7-2.5c4.3-0.3,8.6-0.2,12.9,0c0.9,0,1.7,1.4,2.5,2.1c-0.8,0.5-1.7,1.5-2.5,1.6
		c-4.8,0.2-9.6,0.1-14.4,0.1C321.4,388.2,321,387.8,320.6,387.4z"/>
	<path class="st0" d="M328,285.7c-2.3-1.3-4.3-2.4-6.2-3.5c2.1-0.6,4.3-1.9,6.3-1.8c2.2,0.1,5.8-2.1,6.3,2
		C334.4,283.2,330.6,284.4,328,285.7z"/>
	<path class="st0" d="M328.4,354.2c2,0.9,4,1.7,6,2.6c-2,0.7-4,1.5-6.1,1.9c-1.6,0.3-3.3,0.2-4.9,0c-0.8-0.2-1.5-1.1-2.3-1.7
		c0.7-0.7,1.3-1.7,2.1-1.9c1.6-0.3,3.3-0.1,4.9-0.1C328.2,354.7,328.3,354.4,328.4,354.2z"/>
	<path class="st0" d="M334.6,402.4c0.9-0.9,1.6-2.6,2.6-2.7c2.9-0.4,6-0.3,8.9,0c0.8,0.1,1.5,1.3,2.3,1.9c-0.9,0.7-1.8,1.8-2.7,1.9
		c-3.3,0.2-6.6,0.1-9.9,0.1C335.4,403.2,335,402.8,334.6,402.4z"/>
	<path class="st0" d="M357.1,388.7c-3.5,0-6.9,0.1-10.4-0.1c-0.8,0-1.6-1.1-2.4-1.7c0.7-0.7,1.4-1.9,2.2-2c3-0.2,6-0.3,8.9,0
		c0.9,0.1,1.7,1.7,2.5,2.6C357.7,387.9,357.4,388.3,357.1,388.7z"/>
	<path class="st0" d="M369.7,538.5c-2.6-1-6.4-1.9-6.4-2.5c0.3-4.4,4-2.1,6.2-2.2c2.2-0.1,4.5,1.2,6.8,1.9
		C374.1,536.6,371.9,537.6,369.7,538.5z"/>
	<path class="st0" d="M327.4,553.5c-2.2-1.1-4.3-2.1-6.3-3.1c2.3-0.7,4.5-1.9,6.8-1.8c2.2,0,4.4,1.3,6.6,2.1
		C332.2,551.6,330,552.5,327.4,553.5z"/>
	<path class="st0" d="M381.5,404.6c-2.6-1.1-6.4-2.1-6.3-2.7c0.4-4.2,4-2.1,6.2-2.2c2.1-0.1,4.2,1.2,6.3,1.8
		C385.6,402.5,383.6,403.5,381.5,404.6z"/>
	<path class="st0" d="M378.4,310.3c3.9,0,7.8,0,11.7,0c0.1,3.8,0.1,3.8-5.1,3.9C378.4,314.2,378.4,314.2,378.4,310.3z"/>
	<path class="st0" d="M321.3,444.3c2.8,0,5.2,0,7.8,0c1.2,2.8,0.5,4.3-2.5,4C324.2,448.1,320.2,449.9,321.3,444.3z"/>
	<path class="st0" d="M330.1,403.5c-3.6,0-5.9,0-9,0c0.2-1.3,0.2-3.3,0.6-3.3c2.2-0.4,4.6-0.5,6.8-0.2
		C329,400,329.4,401.9,330.1,403.5z"/>
	<path class="st0" d="M321.5,538.4c-1.1-5.8,2.4-4.7,4.6-4.6c1.2,0.1,2.4,1.3,3.5,2.1C327,536.7,324.3,537.5,321.5,538.4z"/>
	<path class="st0" d="M362.6,401.7c1.4-0.7,2.7-1.8,4.1-2c0.8-0.1,1.7,1.3,2.6,2c-1.8,0.9-3.5,1.7-5.3,2.6
		C363.5,403.5,363.1,402.6,362.6,401.7z"/>
	<path class="st0" d="M591.2,444.1c11,0,21.9-0.1,32.9,0.1c1.3,0,2.5,1.3,3.7,1.9c-1.2,0.7-2.4,2.1-3.6,2.1
		c-22.1,0.1-44.2,0.1-66.3,0c-1.3,0-2.5-1.3-3.7-2.1c1.2-0.7,2.4-2,3.6-2C568.9,444,580.1,444.1,591.2,444.1z"/>
	<path class="st0" d="M542.3,295.2c8.6,0,17.3-0.1,25.9,0.1c1.3,0,2.6,1.1,4,1.7c-1.3,0.8-2.6,2.3-4,2.3c-17.3,0.2-34.6,0.2-51.9,0
		c-1.3,0-2.6-1.5-4-2.3c1.3-0.6,2.6-1.7,4-1.7C525,295.1,533.6,295.2,542.3,295.2z"/>
	<path class="st0" d="M517.7,459c17.1,0,34.2,0,51.3,0.1c1,0,2,1,3.1,1.6c-1,0.8-2,2.2-3,2.2c-16.5,0.1-32.9,0.1-49.4,0
		c-1.1,0-2.2-1.5-3.2-2.3C516.9,460.1,517.3,459.6,517.7,459z"/>
	<path class="st0" d="M587.5,295.2c12.5,0,24.9,0,37.4,0.1c1,0,1.9,1.2,2.9,1.8c-0.8,0.8-1.7,2.2-2.5,2.2c-12,0.1-24,0.2-36,0
		c-0.9,0-1.8-1.8-2.7-2.8C586.9,296,587.2,295.6,587.5,295.2z"/>
	<path class="st0" d="M553.1,403.6c-12.8,0-25.6,0-38.4-0.1c-0.8,0-1.6-1.1-2.4-1.8c0.9-0.7,1.7-2.1,2.7-2.1c3.6-0.3,7.3-0.1,11-0.1
		c8,0,16-0.1,24,0.1c1.3,0,2.6,1.5,4,2.3C553.7,402.5,553.4,403.1,553.1,403.6z"/>
	<path class="st0" d="M533,343.9c-5.6,0-11.3,0.1-16.9-0.1c-1.3,0-2.5-1.3-3.7-2c1.1-0.6,2.3-1.7,3.4-1.7c11.5-0.1,22.9-0.1,34.4,0
		c1.1,0,2.3,1.1,3.4,1.7c-1.2,0.7-2.4,2-3.6,2C544.3,344,538.7,343.9,533,343.9z"/>
	<path class="st0" d="M586.6,402.1c1.1-0.9,2.2-2.5,3.4-2.5c11.6-0.2,23.2-0.2,34.9,0c1,0,2,1.2,2.9,1.8c-0.8,0.7-1.7,2-2.5,2
		c-12.6,0.1-25.2,0.1-37.8,0.1C587.2,403.1,586.9,402.6,586.6,402.1z"/>
	<path class="st0" d="M607.3,340c5.8,0,11.7-0.1,17.5,0.1c1,0,2,1.1,3,1.6c-1,0.7-2.1,2-3.1,2.1c-11.5,0.2-23,0.1-34.5,0
		c-1.1,0-2.1-1.3-3.2-1.9c1.1-0.6,2.2-1.7,3.3-1.8C596,339.9,601.6,340,607.3,340z"/>
	<path class="st0" d="M572.5,283.1c1.1-0.9,2.1-2.7,3.2-2.7c8.7-0.2,17.3-0.2,26,0c1.1,0,2.3,1.7,3.4,2.6c-0.3,0.4-0.6,0.9-0.9,1.3
		c-10.3,0-20.5,0-30.8,0C573.2,283.9,572.8,283.5,572.5,283.1z"/>
	<path class="st0" d="M573.5,429.2c7.8,0,15.6-0.1,23.3,0.1c1,0,2,1.4,3,2.2c-0.9,0.7-1.9,1.9-2.8,1.9c-7.1,0.2-14.3,0.2-21.4,0
		c-1.1,0-2.1-1.9-3.1-2.8C572.9,430,573.2,429.6,573.5,429.2z"/>
	<path class="st0" d="M570.3,314.1c-4.5,0-9,0.1-13.5-0.1c-0.9,0-1.8-1.3-2.7-2.1c0.9-0.6,1.8-1.8,2.8-1.8c8.8-0.1,17.6-0.1,26.4,0
		c0.9,0,1.8,1.2,2.7,1.9c-0.9,0.7-1.8,1.9-2.8,2C579,314.2,574.7,314.1,570.3,314.1z"/>
	<path class="st0" d="M547.2,354.9c4.1,0,8.3-0.1,12.4,0.1c1,0,2,1.1,3,1.6c-1,0.7-2,2-3.1,2c-8.6,0.2-17.2,0.1-25.9,0
		c-0.9,0-1.8-1.2-2.7-1.9c0.9-0.6,1.8-1.7,2.8-1.8C538.3,354.8,542.8,354.9,547.2,354.9z"/>
	<path class="st0" d="M583.7,358.7c-4.3,0-8.6,0.1-12.9-0.1c-0.9,0-1.7-1.3-2.6-2c0.8-0.6,1.6-1.7,2.4-1.7c9-0.1,17.9-0.1,26.9,0
		c0.8,0,1.6,1.1,2.4,1.7c-0.9,0.7-1.8,1.9-2.7,1.9C592.6,358.9,588.2,358.7,583.7,358.7z"/>
	<path class="st0" d="M609.1,373.7c-9.6,0-19.2,0-28.8-0.1c-0.8,0-1.7-1-2.5-1.6c0.9-0.7,1.7-2,2.6-2c8.8-0.2,17.6-0.2,26.4,0
		c1.1,0,2.1,1.4,3.2,2.2C609.7,372.7,609.4,373.2,609.1,373.7z"/>
	<path class="st0" d="M595.9,475.3c-0.9,0.8-1.8,2.4-2.7,2.4c-9,0.2-17.9,0.2-26.9,0c-0.9,0-1.7-1.4-2.5-2.1
		c0.9-0.5,1.7-1.5,2.6-1.5c9.6-0.1,19.2-0.1,28.8-0.1C595.4,474.4,595.7,474.9,595.9,475.3z"/>
	<path class="st0" d="M517.7,429.4c7.1,0,14.2,0,21.3,0c1.2,2.9,0.5,4.1-2.6,4.1c-5.5-0.1-11,0.1-16.4-0.1c-1.2-0.1-2.4-1.6-3.5-2.5
		C516.9,430.3,517.3,429.8,517.7,429.4z"/>
	<path class="st0" d="M616.4,433.4c-2.5,0-5,0.2-7.4-0.1c-1.2-0.1-2.2-1.3-3.3-1.9c1-0.7,2-2.1,3-2.1c5.4-0.2,10.9-0.2,16.4,0
		c0.9,0,1.8,1.2,2.8,1.9c-1,0.8-1.9,2.1-3,2.2C622,433.6,619.2,433.4,616.4,433.4z"/>
	<path class="st0" d="M600.5,387.3c0.9-0.9,1.8-2.4,2.7-2.4c7.3-0.2,14.7-0.2,22,0c0.9,0,1.7,1.4,2.5,2.2c-0.9,0.5-1.7,1.5-2.6,1.5
		c-7.8,0.1-15.6,0.1-23.4,0.1C601.3,388.2,600.9,387.8,600.5,387.3z"/>
	<path class="st0" d="M561.9,388.7c-7.8,0-15.6,0.1-23.4-0.1c-0.9,0-1.8-1.3-2.6-2c0.8-0.6,1.6-1.7,2.4-1.7c7.3-0.1,14.6-0.2,22,0
		c1,0,1.9,1.6,2.8,2.4C562.7,387.7,562.3,388.2,561.9,388.7z"/>
	<path class="st0" d="M533.1,373.7c-2.8,0-5.7,0.2-8.5-0.1c-0.9-0.1-1.8-1.2-2.7-1.9c0.8-0.6,1.6-1.7,2.4-1.7
		c5.8-0.2,11.7-0.2,17.5,0c0.8,0,1.7,1.1,2.5,1.7c-0.9,0.7-1.8,1.8-2.7,1.9C538.8,373.8,535.9,373.7,533.1,373.7z"/>
	<path class="st0" d="M581.9,341.5c-1,0.8-2,2.2-3.1,2.3c-5.8,0.2-11.6,0.2-17.3,0c-0.9,0-1.7-1.3-2.5-2c0.8-0.6,1.6-1.6,2.4-1.6
		c6.6-0.1,13.2-0.1,19.7-0.1C581.4,340.5,581.7,341,581.9,341.5z"/>
	<path class="st0" d="M559.1,403.3c0.6-4.4,0.6-4.4,18.2-3.8c2.3,0.1,5.1-0.3,3.9,3.8C574,403.3,566.8,403.3,559.1,403.3z"/>
	<path class="st0" d="M537.9,474c2.8,0,5.7-0.1,8.5,0.1c0.8,0.1,1.5,1.2,2.3,1.8c-0.8,0.6-1.5,1.8-2.3,1.8c-5.8,0.2-11.7,0.2-17.5,0
		c-0.9,0-1.7-1.1-2.5-1.7c0.9-0.7,1.7-1.9,2.6-2C531.9,473.9,534.9,474,537.9,474z"/>
	<path class="st0" d="M609.5,283.1c1-0.9,1.9-2.6,3-2.7c4.3-0.3,8.6-0.3,12.8,0c0.9,0,1.7,1.4,2.5,2.2c-0.9,0.7-1.8,1.9-2.8,1.9
		c-4.8,0.2-9.5,0.1-14.3,0.1C610.3,284,609.9,283.5,609.5,283.1z"/>
	<path class="st0" d="M576.9,388.6c-2.3,0-4.7,0.1-6.9-0.1c-0.7-0.1-1.7-1.1-1.7-1.7c0-0.7,1-1.9,1.6-1.9c4.8-0.2,9.6-0.2,14.4,0
		c0.6,0,1.2,1.2,1.8,1.8c-0.7,0.7-1.4,1.8-2.2,1.9C581.6,388.8,579.2,388.6,576.9,388.6C576.9,388.6,576.9,388.6,576.9,388.6z"/>
	<path class="st0" d="M610,311.4c-1,0.9-1.9,2.5-3,2.5c-4.3,0.3-8.6,0.2-12.9,0c-0.8,0-1.6-1.5-2.4-2.3c0.9-0.5,1.7-1.5,2.6-1.5
		c4.9-0.1,9.8-0.1,14.8-0.1C609.4,310.5,609.7,311,610,311.4z"/>
	<path class="st0" d="M568.2,418.6c-4.6,0-8.2,0.1-11.8-0.1c-0.8,0-1.8-1.1-2.1-1.9c-0.2-0.5,0.9-1.9,1.5-2
		c3.5-0.2,6.9-0.3,10.4,0.1C566.8,414.7,567.3,416.7,568.2,418.6z"/>
	<path class="st0" d="M516.5,417.4c0.9-1,1.7-2.8,2.7-2.9c2.9-0.4,5.9-0.3,8.9,0c0.8,0.1,1.5,1.3,2.2,2c-0.9,0.7-1.7,1.9-2.6,2
		c-3.4,0.2-6.9,0.1-10.3,0.1C517.2,418.2,516.9,417.8,516.5,417.4z"/>
	<path class="st0" d="M552.4,279.3c2,1.1,3.9,2.2,5.9,3.3c-2.1,0.6-4.1,1.4-6.3,1.9c-1.4,0.3-3,0.3-4.4,0c-1-0.2-1.7-1.3-2.6-2
		c0.8-0.7,1.5-1.9,2.5-2.1c1.4-0.4,2.9-0.1,4.4-0.1C552.1,279.9,552.2,279.6,552.4,279.3z"/>
	<path class="st0" d="M545.4,429.2c3.4,0,6.8-0.1,10.2,0.1c0.9,0.1,1.7,1.3,2.6,2.1c-0.9,0.7-1.8,1.9-2.7,2c-2.6,0.3-5.3,0.4-7.8,0
		c-1.2-0.2-2.1-1.8-3.2-2.8C544.8,430.1,545.1,429.6,545.4,429.2z"/>
	<path class="st0" d="M603.9,418.6c-3.1,0-6.3,0.1-9.4-0.1c-1-0.1-1.9-1.2-2.8-1.8c0.8-0.8,1.6-2.1,2.5-2.2c2.6-0.3,5.3-0.4,7.9,0
		c1.1,0.2,2,1.7,3.1,2.7C604.7,417.6,604.3,418.1,603.9,418.6z"/>
	<path class="st0" d="M532.6,315.2c-2.2-1.2-4.3-2.3-6.3-3.4c2.1-0.6,4.3-1.8,6.3-1.6c2.3,0.2,5.9-2.2,6.6,2
		C539.3,312.8,535.3,314,532.6,315.2z"/>
	<path class="st0" d="M621.7,354c2.2,1,4.1,1.8,6,2.6c-2,0.7-4.1,2-6.1,2c-2.2,0-4.5-1.2-6.7-1.8C617.1,355.9,619.3,355,621.7,354z"
		/>
	<path class="st0" d="M621,374.6c-2.3-1-4.2-1.8-6.1-2.6c2-0.7,4-2,6-2c2.3,0,4.5,1.2,6.8,1.8C625.6,372.7,623.4,373.6,621,374.6z"
		/>
	<path class="st0" d="M556.7,374.7c-2.5-1.1-4.7-2-6.8-2.9c2.3-0.6,4.5-1.7,6.8-1.8c2-0.1,4,1,6,1.6
		C560.8,372.6,558.9,373.5,556.7,374.7z"/>
	<path class="st0" d="M621,309.1c2.7,1.1,6.5,2,6.5,2.7c-0.3,4.2-4,2.2-6.2,2.2c-2.1,0.1-4.2-1.1-6.3-1.8
		C616.9,311.2,618.9,310.2,621,309.1z"/>
	<path class="st0" d="M540.2,284.4c-3.7,0-6,0-8.8,0c0-1.3-0.2-3.4,0-3.5c2.2-0.4,4.6-0.7,6.8-0.4
		C538.9,280.6,539.3,282.6,540.2,284.4z"/>
	<path class="st0" d="M623.6,419.6c-1.7-1.2-2.9-2.1-4.2-3c1.3-0.8,2.7-2.2,4-2.1c1.5,0.1,3,1.4,4.4,2.2
		C626.6,417.5,625.3,418.4,623.6,419.6z"/>
	<path class="st0" d="M523.1,752.6c-3.8-9.5-7.5-18.7-11.5-28.8c6.8-2,13.2-4.7,20-5.8c6.3-1,9.1,2.3,9.2,8.6c0,1.2,0.4,2.6,1.1,3.4
		c5,5.5,4.7,10.7-1.8,14.6C534.7,747.8,528.8,750,523.1,752.6z M539.8,737.7c-0.3-0.8-0.7-1.6-1-2.3c-5.4-1.5-9.7,1.7-14.6,3.8
		c1,2,1.7,3.4,2.8,5.5C531.5,742.2,535.6,739.9,539.8,737.7z M535.3,724.7c-6.3-2.4-10.4,1.4-15.5,3.1c0.9,2.1,1.6,3.6,2.4,5.4
		C526.9,730.7,532.4,730.4,535.3,724.7z"/>
	<path class="st0" d="M448.4,735.4c-1.4,4.9-2.4,8.4-3.6,12.5c-1.9-0.4-3.9-0.8-5.9-1.2c2.4-8.8,4.7-17.1,6.9-25.4
		c0.6-2.3,1.3-3.8,3.9-3.1c4.8,1.4,9.7,2.6,14.3,4.4c4,1.6,7.2,4.5,6.8,9.4c-0.4,5-4,6.5-8.2,7.2c-0.4,0.1-0.8,0.5-1.7,0.9
		c1.2,2.4,2.7,4.6,3.3,7.1c0.4,1.6-0.6,3.5-1,5.2c-1.4-0.8-3.4-1.3-4.2-2.5c-1.9-2.9-3-6.3-4.9-9.2
		C452.9,738.7,450.8,737.5,448.4,735.4z M449.5,730.6c5.4,0.8,10,4.1,15.1,1.3c0.2-0.7,0.4-1.4,0.6-2.1c-4.5-1.7-9-3.5-13.9-5.3
		C450.6,726.9,450.2,728.3,449.5,730.6z"/>
	<path class="st0" d="M395.3,719.4c-1.4-1.7-2.7-3.2-3.9-4.7c3-2.6,5.9-5,9.1-7.8c-3.3-4-6.4-7.6-9.8-11.6c-3.2,2.6-6.1,4.9-9.2,7.5
		c-1.2-1.4-2.4-2.7-3.9-4.5c7.7-6.5,15.2-12.9,22.9-19.4c1.2,1.4,2.5,2.9,4,4.6c-3,2.5-5.8,4.9-9.2,7.7c3.3,3.9,6.4,7.7,9.8,11.8
		c3.2-2.7,6.1-5.1,9.2-7.7c1.2,1.5,2.5,3,3.9,4.7C410.7,706.6,403.1,712.9,395.3,719.4z"/>
	<path class="st0" d="M559.9,699.7c1.2,1.7,2.2,3.2,3.4,5c-4.6,2.9-9,5.7-13.7,8.7c0.9,1.6,1.7,3,2.9,5c3.2-1.9,6.1-3.6,9.4-5.6
		c1.1,1.5,2.1,2.9,3.4,4.7c-3.1,2.1-5.9,4-9.2,6.3c1,1.6,1.9,3.1,3,4.9c4.7-2.9,9.1-5.6,13.7-8.6c0.8,1.3,1.9,3,3.3,5.1
		c-6.4,4-12.5,7.8-19,11.9c-5.4-8.6-10.5-16.8-16-25.5C547.4,707.5,553.5,703.7,559.9,699.7z"/>
	<path class="st0" d="M439.3,721.2c-4.8-3-9.2-5.6-13.8-8.4c-1.1,1.7-2,3.1-3.1,4.8c3.1,2.1,6,4,9.2,6.1c-0.9,1.6-1.8,3.1-2.9,5
		c-3.2-1.9-6.1-3.6-9.5-5.6c-1,1.5-2,2.9-3.2,4.7c4.7,3,9,5.8,13.7,8.8c-1,1.6-2,3.2-3.2,5.1c-6.6-4.1-12.7-8-19-11.9
		c5.4-8.5,10.6-16.9,16-25.5c6.2,3.9,12.4,7.8,18.9,11.8C441.3,717.8,440.4,719.3,439.3,721.2z"/>
	<path class="st0" d="M336,617.2c-3.2-2.3-5.9-4.2-9-6.4c-1.2,1.4-2.3,2.8-3.6,4.5c4.4,3.3,8.4,6.4,12.9,9.8c-1.1,1.5-2.2,3-3.5,4.9
		c-6.1-4.6-11.9-9-17.9-13.5c6.1-8.1,11.9-15.9,18.1-24.1c5.8,4.3,11.6,8.7,17.8,13.4c-1.2,1.7-2.3,3.2-3.5,4.9
		c-4.4-3.2-8.5-6.3-12.9-9.6c-1.2,1.4-2.3,2.7-3.7,4.3c2.8,2.3,5.5,4.5,8.6,7C338.2,613.9,337.3,615.3,336,617.2z"/>
	<path class="st0" d="M481.1,748.6c5.2,0.6,10.2,1.1,15.2,1.6c0,1.8,0,3.4,0,5.7c-7.5-0.6-14.7-1.2-22.3-1.8c0.8-10.2,1.6-20,2.5-30
		c7.2,0.7,14.4,1.3,21.9,2c0,2,0,3.7,0,5.9c-4-0.3-7.8-0.4-11.5-1c-4.5-0.8-5.9,0.9-4.8,5.4c3.3,0.5,6.7,0.9,10.2,1.4
		c0,1.9,0,3.5,0,5.7c-2.4-0.2-4.5-0.2-6.5-0.5C481.3,742.2,479.9,743.9,481.1,748.6z"/>
	<path class="st0" d="M343.4,644.4c-1.3-1.9-2.4-3.4-3.5-4.9c6.4-4.6,12.5-9.2,19.2-14c-2-2.9-4-5.7-6-8.7c1.3-1,2.8-2.1,4.8-3.6
		c5.4,7.4,10.7,14.6,16.2,22.1c-1.7,1.3-3.1,2.4-4.7,3.6c-2.1-2.8-4.1-5.4-6.5-8.5C356.3,635,350,639.6,343.4,644.4z"/>
	<path class="st0" d="M383.8,652.8c5.3,7.6,10.4,14.9,15.7,22.5c-1.7,1.2-3.2,2.3-4.9,3.5c-2.1-2.9-4.1-5.6-6.3-8.7
		c-6.6,4.6-12.9,9-19.6,13.7c-1-1.4-2.2-3.1-3.5-4.9c6.4-4.5,12.7-8.9,19.5-13.7c-1.9-2.9-3.7-5.7-5.8-8.8
		C380.5,655.2,382,654.1,383.8,652.8z"/>
	<path class="st0" d="M312.8,609.1c-0.8,1.9-1.5,3.4-2.3,5.4c-7.8-3.3-15.3-6.5-23-9.7c4-9.4,7.9-18.5,11.8-27.7
		c1.9,0.8,3.5,1.6,5.4,2.5c-3.1,7.3-6,14.5-9.2,22C301.5,604.1,307.1,606.6,312.8,609.1z"/>
	<path class="st0" d="M545.5,872.7c-12.5,0-21.9-7.8-19.4-17.8c1.7-6.9,2.4-12.6,0.3-19.7c-1.9-6.3,2.4-11.9,8.3-15
		c6.5-3.5,13.2-3.6,19.3,0.8c5.4,3.8,7.5,9,6.3,15.7c-0.2,1.3,0.6,3.5,1.6,4.3c9.9,7.9,10,19.5-0.6,26.5c-4.5,3-10.1,4.3-15.3,6.4
		C545.8,873.5,545.6,873.1,545.5,872.7z M545.3,861.2c0.1,0.3,0.3,0.6,0.4,0.9c3.3-1.6,7-2.7,9.9-4.8c3.3-2.4,2.5-6.5-1.4-6.9
		c-4.5-0.5-9.3,0.5-13.7,1.7c-1.5,0.4-3.5,3.6-3.1,4.9c0.6,1.7,3.1,2.9,5,4C543.1,861.3,544.3,861.1,545.3,861.2z M542.8,840
		c2.7-3,4.4-4.8,6.1-6.7c-1.8-1.3-3.8-4-5.3-3.7c-2.2,0.4-4.1,2.8-6.1,4.4C539,835.7,540.4,837.3,542.8,840z"/>
	<path class="st0" d="M432.7,876.9c-8,0-14.3-2.2-19.2-7.5c-6.4-6.9-6.1-15.9,1.1-21.9c2.2-1.9,3-3.3,2.2-6.2
		c-1.9-6.6,0.9-13,6.8-16.7c6.7-4.2,15.9-3.3,21.8,2c5.1,4.6,7,11.7,3.9,17.6c-1.7,3.2-1.2,5,0.8,7.8c7,10,0.1,22.7-13.2,24.6
		C435.2,876.8,433.5,876.8,432.7,876.9z M430.2,853.4c-2.1,0.4-3.6,0.3-4.6,1c-1.8,1.2-4.5,2.7-4.6,4.2c-0.1,1.6,2.1,4.5,3.8,4.9
		c4,1,8.3,1.2,12.4,0.9c1.4-0.1,3.4-2.3,3.7-3.9c0.3-1.2-1.3-3.5-2.7-4.2C435.6,854.9,432.5,854.2,430.2,853.4z M433.2,831.6
		c-2.5,2.7-5.1,4.2-5.3,5.9c-0.3,3.4,2.7,5,5.7,4.4c2-0.4,3.6-2.4,5.4-3.7C437.4,836.3,435.8,834.5,433.2,831.6z"/>
	<path class="st0" d="M481,845c4.8,0,9.4-0.4,13.8,0.1c8.6,1,15.4,7.7,16,14.8c0.7,8-4.1,15.5-13.2,17.5c-5.9,1.3-12.6,1.3-18.5-0.2
		c-8.3-2-12.1-8.7-12.1-17.3c-0.1-8.3,1-16.3,5-23.7c7.7-13.9,25.5-16.9,38-5.9c-2.4,2.6-4.7,5.3-7,7.8C490.8,833,484.3,835,481,845
		z M487.7,869c0.3-0.4,0.6-0.7,0.9-1.1c1.1-0.2,2.5-0.1,3.4-0.7c2.6-1.7,5-3.7,7.4-5.6c-2.5-1.8-4.8-3.9-7.5-5.4
		c-1.1-0.6-3-0.5-4.4-0.2c-3.8,0.9-9.2,1.5-8.4,6.3C479.6,865,484.7,866.8,487.7,869z"/>
	<path class="st0" d="M389.6,870.4c-3.5-0.8-8-1.9-11.4-2.7c3.1-13.6,6.2-27,9.7-42.1c3.1-2,8-5,13.7-8.6
		C397.4,835.4,393.5,852.8,389.6,870.4z"/>
	<path class="st0" d="M591.3,842.7c-5.4,0-9.4-4.1-9.4-9.4c0.1-5.3,4.3-9.4,9.6-9.3c5.1,0.1,9,4.2,9.1,9.3
		C600.7,838.6,596.6,842.7,591.3,842.7z"/>
	<path class="st0" d="M357.8,842.7c-5.3-0.2-9.2-4.5-8.9-9.9c0.3-5.1,4.5-8.9,9.5-8.8c5.3,0.1,9.3,4.4,9.2,9.7
		C367.5,839,363.2,842.9,357.8,842.7z"/>
	<path class="st0" d="M689.9,643.5c-2.1,0-3.7,0-5.9,0c0-3.8,0-7.5,0-11.6c-5.2,0-9.9,0-15.2,0c0,3.7,0,7.5,0,11.4c-2.3,0-4,0-6,0
		c0-9.7,0-19.4,0-29.6c1.7,0,3.6,0,5.9,0c0,3.7,0,7.3,0,11.2c5.1,0,9.9,0,15,0c0-3.7,0-7.3,0-11.3c2.3,0,4.1,0,6.2,0
		C689.9,623.6,689.9,633.3,689.9,643.5z"/>
	<path class="st0" d="M644,635.3c0.5-3.5,0.9-6.1,1.4-9.3c1.9,0.4,3.9,0.7,6.1,1.1c-0.8,4.9-1.5,9.6-2.3,14.6
		c-4.7-0.7-9.2-1.2-13.5-2.1c-5.3-1.2-9-5.4-8.5-10.8c0.4-4.3,1.6-9,4-12.5c5.5-8.1,14-8.2,21.7-0.6c-1.3,1.2-2.6,2.4-4,3.7
		c-3.7-2.6-7.3-4.8-11.1-1.6c-3.6,3.1-5.7,7.1-4.5,11.9C634.6,635.2,639.6,633.5,644,635.3z"/>
	<path class="st0" d="M722.2,609.9c0.2,2.2,0.3,3.8,0.5,5.8c-3.4,0.4-6.6,0.9-10.4,1.4c0.6,7.8,1.1,15.5,1.7,23.4
		c-2,0.3-3.7,0.6-5.8,0.9c-0.7-7.9-1.5-15.6-2.2-23.5c-3.6,0-6.8,0-10.7,0c-0.1-1.7-0.2-3.5-0.3-5.6
		C704.2,611.5,712.9,610.8,722.2,609.9z"/>
	<path class="st0" d="M601.4,631c-8.5-1.2-16.5-2.3-24.7-3.4c1.4-10,2.8-19.6,4.2-29.7c2,0.3,3.7,0.6,5.9,0.9
		c-0.9,6.8-1.7,13.2-2.8,19.5c-0.6,3.2,0.2,4.5,3.6,4.8c4.8,0.4,9.5,1.3,14.5,2.1C601.9,626.9,601.7,628.5,601.4,631z"/>
	<path class="st0" d="M614,602.5c2.2,0.3,3.8,0.6,5.9,0.9c-1.7,9.9-3.4,19.4-5.2,29.4c-2.1-0.3-3.8-0.5-6-0.8
		C610.6,622,612.3,612.4,614,602.5z"/>
	<path class="st0" d="M549.7,522.7c-3.8,0-7.7,0.1-11.5-0.1c-0.8,0-1.6-1.1-2.4-1.7c0.7-0.7,1.4-1.9,2.2-1.9c7.5-0.1,15-0.1,22.4,0
		c0.7,0,1.4,1.3,2.1,2c-0.8,0.6-1.6,1.6-2.4,1.7C556.7,522.8,553.2,522.7,549.7,522.7z"/>
	<path class="st0" d="M577.4,518.9c2.3,0,4.6-0.1,6.9,0.1c0.6,0.1,1.6,1.2,1.6,1.9c0,0.6-1.1,1.7-1.7,1.8c-4.8,0.1-9.6,0.1-14.4,0
		c-0.6,0-1.6-1.2-1.6-1.8c0-0.6,1-1.7,1.7-1.8C572.4,518.7,574.9,518.9,577.4,518.9z"/>
	<path class="st0" d="M525.9,523.7c-1.7-1.1-2.8-1.9-4-2.7c1.5-0.7,3-1.9,4.6-2c1.2-0.1,2.6,1.1,3.9,1.7
		C529,521.5,527.6,522.5,525.9,523.7z"/>
	<path class="st0" d="M345.9,301.6c5.7,11.3,10.9,21.6,15.9,32.1c0.4,0.8-0.8,2.4-1.2,3.7c-0.5-0.1-1-0.2-1.5-0.4
		c-1.7-3.4-3.7-6.7-5.1-10.2c-2-5-6.1-2.8-9.4-3.2c-2.8-0.3-5.5-0.4-6.9,3.2c-1.4,3.5-3.4,6.8-6.5,10.5c-0.4-1.2-1.6-2.8-1.2-3.7
		C335,323.2,340.2,312.9,345.9,301.6z M345.8,310.8c-1.6,3.3-2.7,5.5-4.1,8.6c3.2-0.1,5.5-0.2,8.4-0.4
		C348.6,316.1,347.5,314,345.8,310.8z"/>
</g>
</svg>
