<?xml version="1.0" encoding="utf-8"?>
<!-- Generator: Adobe Illustrator 22.1.0, SVG Export Plug-In . SVG Version: 6.00 Build 0)  -->
<svg version="1.1" id="Layer_1" xmlns="http://www.w3.org/2000/svg" xmlns:xlink="http://www.w3.org/1999/xlink" x="0px" y="0px"
	 viewBox="0 0 949.8 579.7" style="enable-background:new 0 0 949.8 579.7;" xml:space="preserve">
<style type="text/css">
	.st0{fill:#F5F5F5;stroke:#EDEDED;stroke-miterlimit:10;}
</style>
<g id="BETTERHELP">
	<g>
		<path class="st0" d="M310.8,302.5c-2.8,1.2-5.2,2.6-7.7,3.1c-19.1,3.7-38.2,7.3-57.3,10.9c-8.5,1.6-17,2.9-25.4,4.6
			c-3.2,0.7-6.3,2.1-9.3,3.3c-4.7,1.8-6.5,6-6.2,10.4c0.4,4.7,4,8,8.7,8.5c5.2,0.5,10.6,0.4,15.8-0.5c21.8-3.5,43.6-7.3,65.4-11.2
			c8.2-1.5,16.2-3.4,24.4-5c1.9-0.4,4-0.8,5.9-0.4c1.9,0.4,3.5,1.7,5.3,2.6c-1.1,1.7-1.8,4-3.4,5c-2.3,1.5-5.1,2.3-7.8,3.2
			c-11.9,4-23.9,7.9-35.9,11.8c-8.2,2.7-16.5,5.1-24.6,8c-3.9,1.4-6.4,4.3-6.1,8.8s3.3,6.8,7.5,7.4c2.3,0.3,4.7,0.7,6.9,0.2
			c10.6-2.3,21.2-4.4,31.6-7.4c19.7-5.8,39.5-10.5,59.9-13c16.3-2,31.6-7.7,46.8-13.4c21.2-8,40.1-19.8,56.2-35.4
			c11.7-11.3,22.1-24,32-36.9c15.6-20.4,33.4-38.5,53.7-54.1c11.8-9.1,24.1-17.8,36.9-25.5c25.2-15.1,52.5-24.9,81.5-29.7
			c16.6-2.7,33.3-4.5,50.2-3.4c18.1,1.1,36.3,1.5,54.1,4.3c23,3.6,45.5,9.6,67.6,17c24.2,8.1,47.7,17.6,70.5,28.8
			c14,6.9,27.5,14.7,41.8,22.3c-3.6,8.2-6.9,16-10.4,23.6c-12,26.1-26.4,50.7-42.5,74.5c-19.5,28.9-41.6,55.7-67.5,79.3
			c-18.6,16.9-38.8,31.3-60.8,43.5c-24.9,13.8-51.5,22.8-79.6,26.3c-19.5,2.5-39.5,3.6-59.2,2.6c-27.7-1.4-55.2-5.6-81.8-13.8
			c-16.2-5-32.3-10.2-48.3-15.8c-4.6-1.6-7.9-0.7-12.1,1.4c-18.2,9-32.6,22.3-45,38.1c-9.8,12.4-16.7,26.5-20.8,41.7
			c-2.6,9.4-4.6,19.1-5.8,28.8c-0.7,5.8,0.6,11.9,1,17.8c0.1,1.4,0.5,2.8,0.7,4.2c-0.5,0.2-0.9,0.4-1.4,0.7c-1.3-2.2-3-4.3-3.8-6.7
			c-5.3-15.5-9.2-31.5-8.6-47.8c2-51.6,24.8-90.9,71.1-115.5c15.6-8.3,32.5-12,50.2-13.4c8.5-0.7,14.6,1.7,21,6.4
			c11.3,8.4,24.5,12.6,37.9,16c11.9,3.1,24.1,5.2,35.8,8.9c7.8,2.5,14.9,7.3,22.6,10.5c12.2,5.2,24.6,10.1,37.1,14.6
			c2.3,0.8,6.1,0.2,8.2-1.2c3.4-2.4,4.2-6.5,3.2-10.8c-2.4-9.9-8.4-17.3-17.4-21.4c-10.4-4.8-21.5-7.8-31.9-12.4
			c-6.4-2.8-12.7-6.6-18-11.1c-7.2-6-6.4-15,1.8-19.5c14.1-7.7,28.3-15.6,43.2-21.4c21-8.3,42.7-14.8,64.2-22
			c9.6-3.2,19.4-5.9,28.8-9.6c3.7-1.4,6.9-4.6,9.9-7.4c3.4-3.2,3.3-7,1.3-11.3c-2-4.1-5.3-4.6-8.7-4.1c-5.5,0.9-11,2.5-16.4,4
			c-22.9,6.7-45.8,13.7-68.8,20.3c-4.4,1.3-9.1,1.7-13.8,2.2c-1.5,0.1-3-1.1-4.6-1.7c0.8-1.5,1.2-3.7,2.4-4.2
			c5.8-2.8,11.9-5.1,17.9-7.6c25.9-10.8,51.9-21.5,77.7-32.4c3.3-1.4,6.4-3.6,9.3-5.8c5.2-4,6.7-10.4,4.1-15.5
			c-2.5-4.8-7.8-6.6-14.4-4c-14.5,5.7-28.8,12-43.4,17.8c-13,5.1-26.1,9.8-39.1,14.8c-6.4,2.4-12.6,5.2-18.9,7.6
			c-2.1,0.8-4.4,1.4-6.7,1.6c-1,0.1-2.2-1-3.3-1.6c0.6-1.1,0.9-2.7,1.8-3.2c2.4-1.5,5-2.6,7.6-3.7c24.6-10.4,49.3-20.8,73.9-31.3
			c3.4-1.5,6.7-3.7,9.6-6.1c3.7-3.1,3.8-7.5,1.8-11.4c-2.1-4.2-5.8-6.8-10.7-5.3c-8.6,2.6-17.1,5.3-25.4,8.5
			c-19.5,7.7-38.8,15.8-58.1,23.8c-5.5,2.3-11,4.7-16.5,7c-0.5,0.2-0.9,0.6-1.4,0.6c-2.8-0.1-7.2,0.8-8.1-0.6
			c-2.2-3.4,1.3-5.8,4-7.3c17.5-10.3,35-20.5,52.5-30.8c3.4-2,6.6-4.4,9.7-6.9c2.8-2.4,3-5.7,1.2-8.6c-2-3.2-5-6-9-4.6
			c-9,3.3-18.2,6.4-26.6,10.9c-22.1,11.6-44.4,22.6-67.8,31.5c-16.9,6.4-32.4,16.1-46.8,27.3c-14.6,11.3-28.2,23.5-40.2,37.3
			c-25.7,29.5-57,51.8-90.2,71.8c-21.4,12.9-44.3,22.2-68.1,29.2c-12.1,3.6-24.7,5.8-37.2,7.2c-13,1.4-26.3,1.5-39.4,1.3
			c-16.6-0.2-33.2-1.8-49.4-6.3c-16.3-4.6-32.9-8.4-48.7-14.4c-16.6-6.3-32.5-14.4-48.3-22.6c-29.5-15.3-57-33.8-82.7-54.8
			c-10.7-8.8-21-18-31.5-27c-2.1-1.8-3.1-3.6-1-6.3c8.6-12,16.8-24,26.4-34.8c15.4-17.3,31.3-34.1,47.6-50.5
			c19.4-19.4,41.4-35.7,64.4-50.5s47.3-27,73.6-35.2c19-5.9,38.2-10.1,58.1-11c19.4-0.9,38.5,0.8,57.1,5.8
			c23.8,6.3,47.6,12.8,70.7,21.1c23.3,8.3,45.8,18.8,68.5,28.6c10.2,4.4,20.1,9.6,30.1,14.5c5,2.4,6.8,8.7,3.9,15.3
			c-6.3,14-17.5,22.4-32.4,24.4c-17.1,2.3-32.7-2.2-45.3-14.6c-12-11.8-26.4-19.6-41.5-26.2c-12.1-5.3-23.2-11.8-33.6-20.2
			c-12.5-10.1-26.5-18.3-39.8-27.4c-3.1-2.1-5.8-1.3-7.9,1.3c-3.1,3.8-5,7.9-4,13.3c2.4,12.8,11.4,20.5,21,27.4
			c6.6,4.7,14.3,7.9,20.8,12.6c5.3,3.8,10.4,8.4,14.2,13.6c5.6,7.6,4.1,14-4.6,17.9c-8.9,4-18.3,7.3-27.8,9.1
			c-16.1,3.1-32.4,5.3-48.8,7.1c-19.3,2.1-38.7,3.1-58,5.3c-7,0.8-13.9,3.1-20.4,5.7c-5,2-6.8,7-5.7,11.6c1,4.2,4.7,7.1,10.3,6.9
			c9.4-0.5,18.8-1.8,28.3-2.4c22.4-1.3,44.8-2.5,67.1-3.6c3.3-0.2,8-1,8.4,3.7c0.1,1.3-4.8,4-7.6,4.5c-27.3,4.8-54.8,9.1-82.1,13.9
			c-7.7,1.3-15.2,3.5-22.6,6c-4.9,1.6-9.7,4.4-10.6,10.2c-1.3,7.8,4.4,13.6,12.5,12.6c10.4-1.4,20.6-3.4,31-5.1
			c18.4-3,36.8-5.9,55.1-8.8c7.7-1.2,15.4-2.6,23.1-3.8C303.9,299,307.4,298.1,310.8,302.5z"/>
	</g>
</g>
</svg>
