<?xml version="1.0" encoding="utf-8"?>
<!-- Generator: Adobe Illustrator 22.1.0, SVG Export Plug-In . SVG Version: 6.00 Build 0)  -->
<svg version="1.1" id="Layer_1" xmlns="http://www.w3.org/2000/svg" xmlns:xlink="http://www.w3.org/1999/xlink" x="0px" y="0px"
	 viewBox="0 0 881 200.2" style="enable-background:new 0 0 881 200.2;" xml:space="preserve">
<style type="text/css">
	.st0{fill:#F5F5F5;}
</style>
<g id="v0ACCk_1_">
	<g>
		<path class="st0" d="M510.2,130.4c-23.3-1.2-44.9-13-57-38.5c-10.5-22.2-8.3-44.2,6.3-63.9c21.8-29.5,61.3-36.7,92.3-16.9
			c21.8,13.9,32.4,34.4,30,60.3c-2.2,23.5-15,40.6-35.8,51.5C535.7,128.3,525.6,130.4,510.2,130.4z M474.9,22.7
			c-27.7,23.8-24.8,64.4-0.6,84.5c2.5-2.6,4.9-5.3,7.6-8.1c-4.5-3.8-9-7.5-13.6-11.4c4.5-4.2,8.9-8.1,13.4-12.2
			c-4.6-3.8-8.9-7.5-13.4-11.3c4.5-4.2,8.9-8.3,13.4-12.5c-4.6-3.8-8.9-7.3-13.4-11c4.5-4.1,8.9-8.1,13.5-12.3
			C479.4,26.5,477.2,24.6,474.9,22.7z M549.6,111.2c28.5-18.3,32.7-58.5,10.9-82.3c-4.3,4.7-8.5,9.4-12.9,14.2
			c4.7,2.8,9.2,5.4,13.9,8.1c-4.7,5.2-9.3,10.2-14,15.4c4.5,2.8,8.6,5.4,13.1,8.2c-4.7,5.2-9.2,10.2-13.9,15.4
			c4.7,2.8,9.1,5.5,13.7,8.2C556.6,102.9,553.1,107,549.6,111.2z M555.1,52.1c0.1-0.2,0.1-0.4,0.2-0.6c-3.4-2-6.8-4-10.3-5.9
			c-0.6-0.3-1.5-0.2-2.3-0.1c-16.7,2.2-33.4,4.7-50.2,6.7c-5.3,0.6-9.7,2.1-13.1,6.3c-1.3,1.5-2.9,2.8-4.4,4.2
			c0.1,0.2,0.2,0.3,0.3,0.5C502,59.5,528.6,55.8,555.1,52.1z M554.4,75.7c0.1-0.2,0.1-0.4,0.2-0.6c-3.2-2-6.4-4-9.7-5.9
			c-0.6-0.3-1.5-0.2-2.3-0.1c-16.2,2.2-32.4,4.4-48.6,6.7c-3.1,0.4-6.6,0.2-9,1.7c-3.8,2.3-6.8,5.8-10.1,8.8
			c0.1,0.1,0.2,0.3,0.3,0.4C501.6,83,528,79.4,554.4,75.7z M553.7,28.8c0.1-0.2,0.1-0.4,0.2-0.6c-3.4-2-6.7-4.1-10.1-6.1
			c-0.5-0.3-1.4-0.1-2.1,0c-16.3,2.3-32.6,4.7-48.9,6.7c-5.4,0.7-10,2.2-13.6,6.5c-1.2,1.4-2.7,2.6-4,3.8c0.1,0.2,0.2,0.3,0.3,0.5
			C501.6,36,527.7,32.4,553.7,28.8z M476.8,109.7c26.3-3.5,51.8-7,77.2-10.4c-2.7-2.3-5.5-4.1-8.4-5.6c-1.3-0.7-3-1.1-4.4-0.9
			c-17.9,2.4-35.7,4.9-53.6,7.4c-1,0.1-2.2,0.4-2.9,1C482.2,103.7,479.8,106.4,476.8,109.7z M540.6,117c-0.1-0.2-0.1-0.5-0.2-0.7
			c-12.4,1.6-24.7,3.3-37.1,4.9C516.3,124.1,528.8,122.6,540.6,117z M489.3,14c11-1.7,21.9-3.3,32.9-5C510.6,6.9,499.6,8.6,489.3,14
			z M558.1,26.8c0.2-0.2,0.4-0.4,0.5-0.6c-3-2.5-6-4.9-8.9-7.4c-1.4-1.2-2.2-0.6-2.8,1.1C550.6,22.2,554.4,24.5,558.1,26.8z"/>
		<path class="st0" d="M661.4,130.4c-25.3-1.4-46.9-13.3-58.9-39.2c-10.3-22.1-7.8-44,6.8-63.7c15-20.3,35.9-28.8,60.9-27.2
			c28.9,1.9,53.7,22.7,60,51c5.2,23.4-1.6,43.8-18.9,60.4C698.2,124.3,682.2,130.1,661.4,130.4z M664.2,24.3
			c-2.7,0.3-5.5,0.4-8.2,0.9c-2.5,0.5-5,1.2-7.4,2.1c-23.3,8.6-33.4,35-21.9,56.7c10.1,19,34.7,27.2,54.8,18.2
			c19.4-8.6,28.9-28.6,23.2-48.5C700,36.7,683,24.5,664.2,24.3z M709.8,101.3c0.2,0.1,0.5,0.2,0.7,0.3c0.2-0.4,0.4-0.8,0.7-1.1
			c17.6-20.7,16.6-53.6-2.2-73.1c-21.2-22-52.3-25.9-78.2-9.7c-27.5,17.2-34.6,54.5-15.5,80.6c0.8,1.1,1.7,2.1,2.5,3.1
			c0.5-1.3,0.6-2.2,0.5-3.2c0-11.1-0.3-22.3,0-33.4c0.1-4.3,0.7-8.7,2.1-12.7c6.7-18.4,20.1-28.6,39.5-30.6
			c25.5-2.7,50.5,17.2,49.9,45.5c-0.2,8.8-0.2,17.5-0.3,26.3C709.8,95.9,709.8,98.6,709.8,101.3z M697,96.6
			c-22.1,17-43.6,17.1-65.4,0.1c0,5.2-0.1,10.3,0.1,15.3c0,0.7,0.8,1.8,1.5,2.2c20.7,11.5,41.4,11.5,62.1,0.1
			c0.7-0.4,1.7-1.3,1.7-2.1C697.1,107,697,101.9,697,96.6z"/>
		<path class="st0" d="M298.3,64.7c0.8-31.4,23.4-57.9,54.5-63.3C378.4-3,400.4,4.3,418,23.6C436.4,44,438.8,76,423.5,99
			c-14.6,22-35.7,32.6-61.9,31c-27-1.7-46.7-15.3-58.3-40.1C299.7,82,298.4,73.4,298.3,64.7z M395.6,79.9c-9,0-17.3,0-26.2,0
			c4.1-7,7.8-13.5,11.7-20.3c-25.1,0-49.8,0-74.6,0c-1.3,16.9,3.5,31.6,15.1,43.7c16.3,17,36.3,22.7,59.1,17.4
			c26.7-6.1,46.4-30.6,44.9-58.6c-0.1-2.3-0.8-2.8-3-2.8c-12,0.1-24.1,0-36.1,0c-0.8,0-1.5,0.1-2.8,0.2
			C387.7,66.5,391.5,73,395.6,79.9z M424.5,55.9c-2.7-22.8-25.1-48.2-58.8-48.1c-34.1,0.1-55.9,26.1-58.4,48.1
			C346.4,55.9,385.4,55.9,424.5,55.9z"/>
		<path class="st0" d="M71.9,0.1c23.7,1.2,45,13.3,57.6,38.8c10.7,21.6,6.2,50.3-10.3,68.4c-21.6,23.6-54.8,29.7-83.4,15.3
			c-23.6-11.8-38-37.1-35.4-63.2c2.3-23.8,15-40.9,36-51.9C46.1,2.4,56.6,0.1,71.9,0.1z M62.6,122.7c18.5-0.2,30.6-4.2,41.6-12.2
			c28.6-20.6,30.9-63.3,4.6-86.9C84.9,2.3,50,2.4,26.2,23.8C9.4,39,3.4,63.8,11.5,84.8C20.4,107.7,42.5,122.7,62.6,122.7z"/>
		<path class="st0" d="M881,65.1c0.1,26.4-17.4,51.4-42.4,60.4c-24,8.7-46.7,6-67-9.4c-19.8-15.1-28.4-35.5-25-60.3
			c4-29,28.5-51.6,57.5-54.9s52,7.3,67.9,32C878.2,42.6,880.9,53.5,881,65.1z M812.7,122.7c18.3-0.4,33.3-6.7,45.5-19.7
			c21-22.4,19.4-58.6-3.4-79.2c-24-21.6-59.1-21.6-83,0.1c-16.5,15-22.5,39.7-14.6,60.3C766.1,107.6,788.2,122.7,812.7,122.7z"/>
		<path class="st0" d="M149,65c0.2-29.2,20.9-55.5,49.4-62.5c24.3-6,46.3-1.2,64.9,15.8c16.6,15.2,23.5,34.4,20,56.8
			c-5.6,36.1-41,60.1-77.2,54.3c-21-3.3-37.1-14.1-48.3-32.1C152.4,88.4,148.9,76,149,65z M215.6,122.7c19-0.4,34.2-6.9,46.3-20.2
			c22.1-24.1,18.3-62.9-8.1-82.3c-22.6-16.6-51.3-16.7-74-0.2c-17.9,13.1-26.7,37.3-21.2,58.4C165.6,104.8,189.4,122.9,215.6,122.7z
			"/>
		<path class="st0" d="M237.7,172.8c0,8.8,0,17.6,0,26.6c-2.4,0-4.5,0-6.7,0c0-13,0-25.9,0-39.1c2.1,0,4.2-0.2,6.3,0.1
			c0.7,0.1,1.6,1,2,1.8c3.6,5.4,7,10.8,10.8,16.6c1-1.5,1.9-2.8,2.8-4.1c2.5-3.9,5.1-7.7,7.4-11.6c1.2-2.1,2.6-3.1,5-2.8
			c1.2,0.2,2.4,0,3.9,0c0.1,1.1,0.2,2,0.2,3c0,11.1-0.1,22.1,0.1,33.2c0,2.5-0.6,3.6-3.2,3.3c-1.1-0.2-2.3,0-3.8,0
			c0-9.1,0-18,0-26.9c-0.2-0.1-0.4-0.1-0.7-0.2c-3.9,5.7-7.7,11.4-11.8,17.5c-4-6-7.9-11.7-11.8-17.4
			C238.1,172.7,237.9,172.7,237.7,172.8z"/>
		<path class="st0" d="M477.2,199.6c0-9.2,0-18,0-26.8c-0.2-0.1-0.5-0.2-0.7-0.3c-3.9,5.8-7.8,11.5-11.9,17.5
			c-4-6-7.9-11.7-11.7-17.3c-0.2,0-0.4,0.1-0.6,0.1c0,8.8,0,17.6,0,26.8c-2.1,0-3.9,0.2-5.5-0.1c-0.6-0.1-1.3-1.5-1.3-2.3
			c-0.1-7.4-0.1-14.9-0.1-22.3c0-4.8,0-9.5,0-14.6c2.3,0,4.5-0.1,6.5,0.1c0.7,0.1,1.4,0.9,1.9,1.6c3.1,4.7,6.2,9.5,9.3,14.2
			c0.5,0.7,1,1.4,1.7,2.5c1.9-2.9,3.6-5.5,5.3-8.2c1.5-2.3,3.2-4.5,4.4-6.9c1.4-2.7,3.3-3.9,6.3-3.4c0.9,0.2,1.9,0,3.1,0
			c0.1,1.2,0.2,2.1,0.2,3.1c0,11,0,22,0,32.9c0,3.4,0,3.4-3.5,3.4C479.5,199.6,478.5,199.6,477.2,199.6z"/>
		<path class="st0" d="M704.2,160.3c2.5,0,4.5,0,6.7,0c0,13.1,0,26,0,39c-3.3,0.6-5.8,0.4-8.1-2.8c-5.5-7.6-11.4-14.9-17.2-22.3
			c-0.5-0.6-1-1.2-2-2.3c0,9.5,0,18.4,0,26.9c-0.4,0.4-0.5,0.5-0.6,0.5c-6,1-6.3,0.8-6.3-5.2c0-10.3,0-20.5,0-30.8c0-1,0-1.9,0-2.9
			c3.9-0.8,6.8-0.4,9.3,3.1c5.1,7.2,10.7,14,16.2,21c0.5,0.6,1,1.2,1.9,2.3C704.2,177.7,704.2,169.1,704.2,160.3z"/>
		<path class="st0" d="M382.1,182.8c0,3.7,0,7,0,10.6c7.5,0,14.8,0,22.4,0c0,2.2,0,4,0,6c-9.8,0-19.4,0-29.3,0c0-13,0-25.9,0-39
			c9.6,0,19.1,0,28.9,0c0,1.9,0,3.8,0,5.9c-7.2,0-14.4,0-21.9,0c0,3.5,0,6.7,0,10.3c6.4,0,12.8,0,19.3,0c0,2.2,0,4.1,0,6.3
			C395.1,182.8,388.7,182.8,382.1,182.8z"/>
		<path class="st0" d="M600.9,160.3c2.1,0,4.1,0,6.4,0c0,5.3,0,10.6,0,16.1c6.3,0,12.4,0,18.7,0c0-5.2,0-10.5,0-16
			c2.4,0,4.4,0,6.8,0c0,12.9,0,25.8,0,39c-2,0-4.1,0-6.5,0c0-5.3,0-10.6,0-16.2c-6.4,0-12.4,0-18.9,0c0,4.2,0.1,8.4,0,12.6
			c0,1.2-0.2,3.4-0.7,3.5c-1.7,0.4-3.7,0.2-5.5,0.1c-0.3,0-0.7-1-0.7-1.5c0-12.3,0-24.6,0.1-36.9
			C600.6,160.8,600.7,160.7,600.9,160.3z"/>
		<path class="st0" d="M539,199.5c-2.1,0-3.9,0.1-5.7-0.1c-0.7-0.1-1.5-0.8-1.8-1.5c-0.9-1.9-1.8-3.9-2.5-5.9
			c-0.6-1.6-1.5-2.1-3.2-2c-4.8,0.1-9.5,0.1-14.3,0c-1.6,0-2.5,0.5-2.9,2c-0.3,1-0.8,1.9-1.2,2.9c-2.2,5.2-2.7,5.4-8.7,4.4
			c0.2-0.7,0.4-1.3,0.6-1.9c5.2-11.8,10.3-23.6,15.5-35.4c0.6-1.4,1.3-2.3,2.9-1.9c1.7,0.4,3.9-1.2,5.1,1.5
			c5.3,12.3,10.8,24.6,16.1,36.9C539,198.6,539,198.9,539,199.5z M512.2,183.8c4.6,0,8.8,0,13.4,0c-2.2-5.2-4.4-10-6.7-15.5
			C516.4,173.8,514.4,178.6,512.2,183.8z"/>
		<path class="st0" d="M294.8,187.2c0,4.1,0,8,0,12.2c-2.3,0-4.4,0-6.7,0c0-12.9,0-25.8,0-39.1c7.2,0.3,14.6-1,21.7,1.2
			c6,1.9,9,7.3,8.3,14c-0.6,5.8-5.6,10.5-12.3,11.2C302.3,186.9,298.8,187,294.8,187.2z M294.9,181c4-0.3,7.7-0.2,11.3-0.8
			c3.2-0.5,5-3.2,5.1-6.2c0.1-3.3-1.3-6.1-4.4-6.7c-3.9-0.7-7.9-0.7-12-1C294.9,171.4,294.9,175.9,294.9,181z"/>
		<path class="st0" d="M868.8,164.5c-1.3,1.8-2.4,3.4-3.5,4.9c-2.6-1.1-5-2.6-7.6-3.1c-2.1-0.5-4.6-0.4-6.7,0.3
			c-1.2,0.4-2.4,2.2-2.8,3.6c-0.6,1.9,0.5,3.5,2.4,4.2c1.9,0.8,4,1.4,6,2.1c2.3,0.8,4.8,1.4,7,2.3c4.1,1.7,6.5,4.8,6.4,9.5
			c-0.1,4.8-2.3,8.4-6.7,10.2c-6.4,2.6-12.7,1.7-18.7-1.3c-1.7-0.9-3.2-2.1-5.1-3.3c1.5-1.8,2.7-3.3,3.7-4.4
			c3.6,1.5,6.8,3.2,10.2,4.1c2.1,0.5,4.5,0,6.7-0.5c1.9-0.5,3-2.1,3-4.2c0.1-2-1-3.4-2.8-4.1c-2.3-0.9-4.7-1.5-7.1-2.2
			c-1.9-0.6-3.9-1.2-5.8-2c-4.2-1.7-6.3-4.8-6.3-9.5c0.1-4.8,2.2-8.3,6.5-10C855.2,158.2,862.1,159.8,868.8,164.5z"/>
		<path class="st0" d="M187.8,164.8c-1.1,1.6-2.2,3.1-3.4,4.9c-1.5-0.8-2.9-1.9-4.5-2.3c-2.6-0.7-5.3-1.3-8-1.3
			c-2.3,0-4.3,1.2-4.7,3.9s1,4.2,3.3,5c2.2,0.8,4.6,1.4,6.8,2.1c1.8,0.6,3.6,1.1,5.3,1.8c4.2,1.8,6.6,5,6.4,9.7
			c-0.2,4.8-2.4,8.3-6.9,10.1c-6.1,2.4-12.2,1.6-18-1.1c-1.9-0.9-3.6-2.2-5.6-3.6c1.5-1.8,2.7-3.3,3.7-4.5c3.5,1.5,6.7,3.2,10.1,4.1
			c2,0.6,4.4,0.1,6.5-0.3c2-0.5,3.2-2.1,3.3-4.3s-1.1-3.6-3-4.3c-2.3-0.9-4.7-1.5-7.1-2.2c-1.8-0.6-3.7-1.1-5.5-1.9
			c-3.9-1.6-6.2-4.5-6.3-8.9c-0.1-4.7,1.8-8.2,6-10.4C172.6,158.1,182.5,159.7,187.8,164.8z"/>
		<path class="st0" d="M752.3,193.7c0.8-1,1.6-2,2.5-3c0.4-0.5,0.9-1,1-1.1c3.6,1.5,6.8,3.2,10.2,4.1c2,0.5,4.4,0,6.5-0.4
			c1.9-0.4,3-2.1,3.2-4.1c0.1-2.1-1-3.6-2.9-4.3c-2.3-0.9-4.7-1.5-7.1-2.2c-1.8-0.6-3.7-1.1-5.5-1.9c-4.3-1.8-6.6-5-6.4-9.7
			c0.1-4.7,2.4-8,6.7-9.9c6.3-2.8,15.2-1.3,20.8,3.6c-1.1,1.6-2.3,3.2-3,4.2c-4.2-1.1-8-2.2-11.7-3c-1-0.2-2.5,0.1-3.3,0.7
			c-1.1,1-2.4,2.5-2.5,3.9c-0.1,1.2,1.1,3,2.2,3.8c1.6,1.1,3.7,1.5,5.7,2.1c1.9,0.6,3.9,1,5.8,1.7c5.9,2.2,8.2,5.5,7.9,11
			c-0.3,5.2-3.5,8.8-9.2,10.3C766.3,201.3,757.6,198.9,752.3,193.7z"/>
		<path class="st0" d="M585.3,165.8c-1.5,1.7-2.9,3.3-4.2,4.8c-8.4-6-15.2-6.3-20.4-0.8c-4.7,5-4.9,14.1-0.4,19.5
			c5.1,6,11.5,6,20.9-0.3c1.4,1.3,2.7,2.7,4.1,4.1c-5.2,7.8-19.1,9.5-27.5,3.2c-9.2-6.9-10.7-20.9-3.2-29.8
			C562,157.6,576.3,157.2,585.3,165.8z"/>
		<path class="st0" d="M808,166.6c-4.4,0-8.2,0-12.3,0c0-2.2,0-4.1,0-6.2c10.4,0,20.9,0,31.5,0c0,2,0,3.9,0,6.2c-3,0-6,0-8.9,0
			c-3.4,0-3.4,0-3.4,3.5c0,8.8-0.1,17.5,0.1,26.3c0,2.6-0.8,3.5-3.3,3.2c-1.1-0.1-2.3,0-3.7,0C808,188.5,808,177.8,808,166.6z"/>
		<path class="st0" d="M333.3,160.3c2.2,0,4.3,0,6.7,0c0,11,0,21.8,0,33c7,0,13.7,0,20.5,0c0,2.2,0,4.1,0,6.1c-9.1,0-18.1,0-27.2,0
			C333.3,186.4,333.3,173.5,333.3,160.3z"/>
		<path class="st0" d="M212.4,160.4c0,13,0,25.8,0,38.9c-2.2,0-4.3,0-6.6,0c0-12.9,0-25.8,0-38.9C208,160.4,210.2,160.4,212.4,160.4
			z"/>
		<path class="st0" d="M658.4,199.5c-2.2,0-4.3,0-6.5,0c0-13,0-26,0-39.1c2.1,0,4.2,0,6.5,0C658.4,173.3,658.4,186.2,658.4,199.5z"
			/>
		<path class="st0" d="M736.5,199.4c-2.3,0-4.3,0-6.6,0c0-13,0-25.9,0-39c2.1,0,4.3,0,6.6,0C736.5,173.3,736.5,186.2,736.5,199.4z"
			/>
		<path class="st0" d="M558.1,26.8c-3.7-2.3-7.5-4.6-11.2-6.9c0.6-1.7,1.4-2.3,2.8-1.1c3,2.5,6,4.9,8.9,7.4
			C558.5,26.4,558.3,26.6,558.1,26.8z"/>
		<path class="st0" d="M664.4,51.6c7.8-0.1,14.1,5.9,14.1,13.5c0,7.5-6.3,13.6-14.1,13.6c-7.6,0-13.9-6-14-13.4
			C650.2,57.8,656.6,51.6,664.4,51.6z M664.5,53.3c-6.8,0-12.2,5.2-12.3,11.7c-0.1,6.6,5.4,11.9,12.2,11.9c6.9,0,12.3-5.3,12.3-11.9
			C676.7,58.5,671.2,53.3,664.5,53.3z"/>
		<path class="st0" d="M67,113.6c-10.6-28.5-21.2-57-32-85.9c21.8,0,43.1,0,65.2,0c-10.8,28.9-21.4,57.4-32,85.9
			C67.8,113.6,67.4,113.6,67,113.6z"/>
		<path class="st0" d="M810.1,112.6c-18.1,0-37.2-13.5-43.6-33.3c-6.9-21,2.3-43.7,22.3-55.1c22.8-13,52.6-5.7,66.6,16.3
			c13,20.4,7.9,47.3-11.6,61.8C834.8,109.1,824.6,112.5,810.1,112.6z M813.4,21.3c-7.4,0-14.3,1.7-21,4.9
			c-21.4,10.4-30.8,36.5-20.5,57.4c12.3,24.9,44.2,33.4,67.3,17.9c15.6-10.5,23.1-28.9,18.7-46.1C852.7,35,834.6,21.2,813.4,21.3z"
			/>
		<path class="st0" d="M170.8,47.5c32.3,11.2,64.4,22.3,96.6,33.4c0,0.3,0,0.7,0,1c-0.9,0.2-1.8,0.5-2.7,0.5c-30.5,0-61,0-91.5,0
			c-1.6,0-2.8-0.1-2.8-2.2c0-10.3,0-20.5,0-30.8C170.3,48.9,170.5,48.5,170.8,47.5z"/>
		<path class="st0" d="M664.5,53.3c6.8,0,12.2,5.2,12.3,11.7c0.1,6.6-5.4,11.9-12.3,11.9c-6.9,0-12.3-5.3-12.2-11.9
			C652.3,58.4,657.7,53.3,664.5,53.3z M664.5,75.1c5.8,0,10.5-4.5,10.5-10c0.1-5.6-4.8-10.2-10.7-10.2c-5.7,0.1-10.4,4.7-10.4,10.2
			C654,70.7,658.7,75.1,664.5,75.1z"/>
		<path class="st0" d="M664.5,75.1c-5.8,0-10.5-4.5-10.5-10c-0.1-5.5,4.7-10.1,10.4-10.2c5.8-0.1,10.7,4.6,10.7,10.2
			C675,70.6,670.2,75.1,664.5,75.1z"/>
		<path class="st0" d="M813.3,51.6c7.7,0.1,13.8,6,13.9,13.5c0,7.5-6.4,13.5-14.1,13.5c-7.8-0.1-13.8-6-13.8-13.5
			C799.2,57.5,805.5,51.5,813.3,51.6z M813.1,55.2c-5.7,0.1-10.5,4.7-10.5,10.2s4.9,10.1,10.6,10.1c5.8,0,10.7-4.8,10.6-10.4
			C823.7,59.6,818.8,55.1,813.1,55.2z"/>
		<path class="st0" d="M813.1,55.2c5.8-0.1,10.6,4.4,10.7,10c0.1,5.6-4.8,10.4-10.6,10.4c-5.7,0-10.5-4.7-10.6-10.1
			C802.6,59.9,807.4,55.2,813.1,55.2z M813,74.1c5.2,0.1,9.3-3.7,9.4-8.7c0.1-4.8-3.9-8.8-8.9-8.9c-5.2-0.1-9.3,3.8-9.4,8.7
			C804,70.1,807.9,74,813,74.1z"/>
		<path class="st0" d="M813,74.1c-5.1-0.1-9-4-8.9-8.9c0-5,4.2-8.8,9.4-8.7c5,0.1,9,4.1,8.9,8.9C822.3,70.4,818.2,74.2,813,74.1z"/>
	</g>
</g>
</svg>
