<?xml version="1.0" encoding="utf-8"?>
<!-- Generator: Adobe Illustrator 22.1.0, SVG Export Plug-In . SVG Version: 6.00 Build 0)  -->
<svg version="1.1" id="Layer_1" xmlns="http://www.w3.org/2000/svg" xmlns:xlink="http://www.w3.org/1999/xlink" x="0px" y="0px"
	 viewBox="0 0 980 361" style="enable-background:new 0 0 980 361;" xml:space="preserve">
<style type="text/css">
	.st0{fill:#F5F5F5;stroke:#EDEDED;stroke-miterlimit:10;}
	.st1{font-family:'ProximaNova-Extrabld';}
	.st2{font-size:250px;}
</style>
<g id="SQTB72.tif">
	<g>
		<path class="st0" d="M716.4,196c21.6-27.7,43.1-49.2,66.1-73c3,0,6.5,0,11.3,0c12.6,12.6,26.1,26.1,39.7,39.7
			c10.3-6.4,59.5-56,64.7-64.9c-4.3-4.3-8.5-8.5-13.9-13.9C891.5,80.5,946,65,946,65l-12.7,60.1l-13.6-13.8c0,0-34,31.1-44.9,44.1
			c-8.9,10.5-41,40.4-41.2,40.4c-14.8-14.8-32.4-31.4-46.5-45.5c-20.2,21.3-59.9,63.9-59.9,63.9s-5.8-3.6-10.5-5L716.4,196z"/>
		<path class="st0" d="M670.1,175"/>
		<path class="st0" d="M557.8,236.2"/>
		<path class="st0" d="M900.1,143.5c7.5-7.6,13.3-13.4,18.2-18.3c3.8,3.8,8.5,8.5,15,15c0,42.4,0,93.2,0,140.3
			c-5,0.1-10.4,0.3-15.9,0.4c-5.6,0.1-11.2,0-17.4,0C900.1,235.7,900.1,186,900.1,143.5z"/>
		<path class="st0" d="M894.5,280.6c-11.5,0-20.2,0-31.5,0c0-32.2,0-64.5,0-98.2c9.5-9.2,31.5-33.5,31.5-33.1
			C894.5,190.9,894.5,238.6,894.5,280.6z"/>
		<polygon class="st0" points="791.1,280.6 790.6,169.9 821.6,201.6 821.6,280.4 		"/>
		<path class="st0" d="M783.7,280.6c0,0-19.3,0-29.5,0c0-26.1,0-52.2,0-79.5c8.7-10.1,28.2-31.5,28.2-31.5L783.7,280.6z"/>
		<path class="st0" d="M857.2,280.6c-10.6,0-18.3,0-29.6,0c0-25.5,0-51,0-77c10.2,11.3,24.4-8.8,29.3-13.1
			C856.8,189.9,857.8,280.9,857.2,280.6z"/>
		<path class="st0" d="M746.8,280.6c-10.2,0-19.9,0-30.1,0c0-19.3,0-35.3,0-55.5c11.6,1.1,21.8-5.8,30.1-17.3
			C746.8,233.1,746.8,256.2,746.8,280.6z"/>
	</g>
</g>
<text transform="matrix(1 0 0 1 36 281.3409)" class="st0 st1 st2">TOLM</text>
</svg>
