<?xml version="1.0" encoding="utf-8"?>
<!-- Generator: Adobe Illustrator 22.1.0, SVG Export Plug-In . SVG Version: 6.00 Build 0)  -->
<svg version="1.1" id="Layer_1" xmlns="http://www.w3.org/2000/svg" xmlns:xlink="http://www.w3.org/1999/xlink" x="0px" y="0px"
	 viewBox="0 0 1002 367" style="enable-background:new 0 0 1002 367;" xml:space="preserve">
<style type="text/css">
	.st0{fill:#F5F5F5;stroke:#EDEDED;stroke-miterlimit:10;}
</style>
<g>
	<path class="st0" d="M174,48.3h47.7L338.4,165v47.7L174,48.3z M292,97.1l46.4-48.8v95.1L292,97.1z"/>
	<g>
		<rect x="587.4" y="82.1" class="st0" width="31.8" height="1.9"/>
		<rect x="587.4" y="84" class="st0" width="31.8" height="2.9"/>
		<rect x="587.4" y="107.3" class="st0" width="31.8" height="14.5"/>
		<rect x="587.4" y="143.5" class="st0" width="31.8" height="32"/>
		<rect x="587.4" y="91.2" class="st0" width="31.8" height="6.4"/>
		<rect x="587.4" y="80.8" class="st0" width="31.8" height="1.3"/>
		<polygon class="st0" points="619.2,48.3 587.4,48.3 587.4,80.1 587.4,80.8 619.2,80.8 619.2,80.1 		"/>
		<rect x="619.2" y="48.3" class="st0" width="44.5" height="31.8"/>
		<polygon class="st0" points="581.1,48.3 549.3,80.1 587.4,80.1 587.4,48.3 		"/>
	</g>
	<path class="st0" d="M801.5,175.5V48.3h31.8v127.2H801.5z M903.3,173.9l-62-62l31.8-31.8h-42.9V48.3h122.4L889,111.9l62,62H903.3z"
		/>
	<path class="st0" d="M34.1,175.5h47.7l60.4,60.4L120,258.2"/>
	<g>
		<path class="st0" d="M162.9,312.3V185.1h31.8v127.2H162.9z M194.7,216.9v-31.8h50.9v31.8H194.7z M194.7,264.6v-31.8H236v31.8
			H194.7z M194.7,312.3v-31.8h50.9v31.8H194.7z"/>
	</g>
	<path class="st0" d="M258.3,312.3V185.1h31.8v127.2H258.3z M290.1,312.3v-31.8h47.7v31.8H290.1z"/>
	<path class="st0" d="M350.5,312.3V185.1h31.8v127.2H350.5z M379.1,216.9v-31.8h60.4v31.8H379.1z M379.1,264.6v-31.8H430v31.8H379.1
		z M386.1,312.3v-31.8h53.4v31.8H386.1z"/>
	<g>
		<rect x="430.4" y="48.3" class="st0" width="4.9" height="31.5"/>
		<rect x="415.1" y="48.3" class="st0" width="8.7" height="31.5"/>
		<rect x="387" y="143.4" class="st0" width="52.6" height="31.8"/>
		<rect x="382.3" y="95.7" class="st0" width="47.7" height="31.8"/>
		<rect x="379.1" y="95.7" class="st0" width="3.2" height="31.8"/>
		<polygon class="st0" points="382.3,143.4 382.3,127.5 379.1,127.5 379.1,95.7 382.3,95.7 382.3,48 350.5,48 350.5,175.2 
			379.1,175.2 379.1,143.4 		"/>
		<rect x="379.1" y="143.4" class="st0" width="3.2" height="31.8"/>
		<rect x="435.4" y="79.8" class="st0" width="3.7" height="1"/>
		<rect x="430.4" y="79.8" class="st0" width="4.9" height="1"/>
		<rect x="435.4" y="48.3" class="st0" width="3.7" height="31.5"/>
		<polygon class="st0" points="388.4,79.8 388.4,48.3 388,48.3 388,80.8 403.5,80.8 403.5,79.8 		"/>
		<rect x="415.1" y="79.8" class="st0" width="8.7" height="1"/>
		<rect x="388.4" y="48.3" class="st0" width="15.1" height="31.5"/>
	</g>
	<g>
		<polygon class="st0" points="511.1,185.1 558.8,185.1 495.2,248.7 566.7,313.8 519.1,313.8 447.5,248.7 		"/>
	</g>
	<g>
		<polygon class="st0" points="452.3,216.9 452.3,185.1 484.1,185.1 		"/>
	</g>
	<g>
		<polygon class="st0" points="484.1,312.3 452.3,312.3 452.3,280.5 		"/>
	</g>
	<polygon class="st0" points="447.5,111.6 511.1,48 558.8,48 495.2,111.6 	"/>
	<g>
		<polygon class="st0" points="495.2,111.6 566.7,176.8 519.1,176.8 447.5,111.6 		"/>
	</g>
	<polygon class="st0" points="452.3,79.8 452.3,48 484.1,48 	"/>
	<polygon class="st0" points="484.1,175.2 452.3,175.2 452.3,143.4 	"/>
	<g>
		<polygon class="st0" points="488.7,170.6 456.9,170.6 456.9,138.8 		"/>
	</g>
	<path class="st0" d="M550.8,216.9l31.8-31.8h6.4v31.8H550.8z M589,312.3V185.1h31.8v127.2H589z M620.8,216.9v-31.8h43.7v31.8H620.8
		z"/>
	<path class="st0" d="M801.2,312.3V185.1H833v127.2H801.2z M944.3,336.1L841,248.7l31.8-31.8h-42.9v-31.8h122.4l-63.6,63.6
		L992,336.1H944.3z"/>
	<path class="st0" d="M139.3,57.6L164.7,83l-82.9,79.7H34.1L139.3,57.6z"/>
</g>
<polygon class="st0" points="127.9,175.5 124.7,162.8 267.8,162.8 280.6,175.5 "/>
<path class="st0" d="M37.3,178.7"/>
<path class="st0" d="M161.3,293.2"/>
<polygon class="st0" points="106.5,169.2 152.6,212.1 152.6,191.4 127.9,169.2 151.8,146.9 151.8,126.2 "/>
<polygon class="st0" points="483.5,219.3 513.9,188.9 536.7,188.9 506.3,219.3 "/>
<polygon class="st0" points="506.3,270.2 550.6,309.9 539.4,309.9 495.1,270.2 "/>
<g>
	<polygon class="st0" points="317.5,96.9 341.5,71.6 341.5,121 	"/>
</g>
<rect x="625" y="220.2" class="st0" width="39.5" height="12.4"/>
<rect x="625" y="236.2" class="st0" width="39.5" height="9.5"/>
<rect x="625" y="249.2" class="st0" width="39.5" height="7.3"/>
<rect x="625" y="262" class="st0" width="39.5" height="7.3"/>
<rect x="625" y="275.7" class="st0" width="39.5" height="4.6"/>
<rect x="625" y="288.2" class="st0" width="39.5" height="4"/>
<rect x="625" y="299.5" class="st0" width="39.5" height="3.1"/>
<rect x="625" y="311.6" class="st0" width="39.5" height="1.6"/>
<g>
	<g>
		<polygon class="st0" points="699.3,91.9 674.1,64.2 674.1,175.5 776,176.1 750.6,148.2 699.3,148.2 		"/>
	</g>
	<g>
		<polygon class="st0" points="759.7,131.7 786.4,161 786.4,49.7 684.5,49.1 711.2,78.5 759.7,78.5 		"/>
	</g>
	<g>
		<polygon class="st0" points="706.3,141.2 706.3,101.6 742.4,141.2 		"/>
	</g>
	<g>
		<polygon class="st0" points="717.1,85.5 750.4,85.5 750.4,122.1 		"/>
	</g>
	<g>
		<g>
			<polygon class="st0" points="699.3,270.4 674.1,298.1 674.1,186.8 776,186.2 750.6,214.1 699.3,214.1 			"/>
		</g>
		<g>
			<polygon class="st0" points="759.7,230.6 786.4,201.3 786.4,312.6 684.5,313.2 711.2,283.8 759.7,283.8 			"/>
		</g>
		<g>
			<polygon class="st0" points="706.3,221.1 706.3,260.7 742.4,221.1 			"/>
		</g>
		<g>
			<polygon class="st0" points="717.1,276.8 750.4,276.8 750.4,240.2 			"/>
		</g>
	</g>
</g>
<polygon class="st0" points="124.5,217.9 147,240.4 54,336.6 9,336.6 "/>
</svg>
