<?xml version="1.0" encoding="utf-8"?>
<!-- Generator: Adobe Illustrator 22.1.0, SVG Export Plug-In . SVG Version: 6.00 Build 0)  -->
<svg version="1.1" id="Layer_1" xmlns="http://www.w3.org/2000/svg" xmlns:xlink="http://www.w3.org/1999/xlink" x="0px" y="0px"
	 viewBox="0 0 983 288.6" style="enable-background:new 0 0 983 288.6;" xml:space="preserve">
<style type="text/css">
	.st0{fill:#F5F5F5;}
</style>
<g>
	<path class="st0" d="M165,0.3h47.7L329.4,117v47.7L165,0.3z M283,49.1l46.4-48.8v95.1L283,49.1z"/>
	<g>
		<rect x="578.4" y="34.1" class="st0" width="31.8" height="1.9"/>
		<rect x="578.4" y="36" class="st0" width="31.8" height="2.9"/>
		<rect x="578.4" y="59.3" class="st0" width="31.8" height="14.5"/>
		<rect x="578.4" y="95.5" class="st0" width="31.8" height="32"/>
		<rect x="578.4" y="43.2" class="st0" width="31.8" height="6.4"/>
		<rect x="578.4" y="32.8" class="st0" width="31.8" height="1.3"/>
		<polygon class="st0" points="610.2,0.3 578.4,0.3 578.4,32.1 578.4,32.8 610.2,32.8 610.2,32.1 		"/>
		<rect x="610.2" y="0.3" class="st0" width="44.5" height="31.8"/>
		<polygon class="st0" points="572.1,0.3 540.3,32.1 578.4,32.1 578.4,0.3 		"/>
	</g>
	<path class="st0" d="M792.5,127.5V0.3h31.8v127.2H792.5z M894.3,125.9l-62-62l31.8-31.8h-42.9V0.3h122.4L880,63.9l62,62H894.3z"/>
	<path class="st0" d="M25.1,127.5h47.7l60.4,60.4L111,210.2"/>
	<g>
		<path class="st0" d="M153.9,264.3V137.1h31.8v127.2H153.9z M185.7,168.9v-31.8h50.9v31.8H185.7z M185.7,216.6v-31.8H227v31.8
			H185.7z M185.7,264.3v-31.8h50.9v31.8H185.7z"/>
	</g>
	<path class="st0" d="M249.3,264.3V137.1h31.8v127.2H249.3z M281.1,264.3v-31.8h47.7v31.8H281.1z"/>
	<path class="st0" d="M341.5,264.3V137.1h31.8v127.2H341.5z M370.1,168.9v-31.8h60.4v31.8H370.1z M370.1,216.6v-31.8H421v31.8H370.1
		z M377.1,264.3v-31.8h53.4v31.8H377.1z"/>
	<g>
		<rect x="421.4" y="0.3" class="st0" width="4.9" height="31.5"/>
		<rect x="406.1" y="0.3" class="st0" width="8.7" height="31.5"/>
		<rect x="378" y="95.4" class="st0" width="52.6" height="31.8"/>
		<rect x="373.3" y="47.7" class="st0" width="47.7" height="31.8"/>
		<rect x="370.1" y="47.7" class="st0" width="3.2" height="31.8"/>
		<polygon class="st0" points="373.3,95.4 373.3,79.5 370.1,79.5 370.1,47.7 373.3,47.7 373.3,0 341.5,0 341.5,127.2 370.1,127.2 
			370.1,95.4 		"/>
		<rect x="370.1" y="95.4" class="st0" width="3.2" height="31.8"/>
		<rect x="426.4" y="31.8" class="st0" width="3.7" height="1"/>
		<rect x="421.4" y="31.8" class="st0" width="4.9" height="1"/>
		<rect x="426.4" y="0.3" class="st0" width="3.7" height="31.5"/>
		<polygon class="st0" points="379.4,31.8 379.4,0.3 379,0.3 379,32.8 394.5,32.8 394.5,31.8 		"/>
		<rect x="406.1" y="31.8" class="st0" width="8.7" height="1"/>
		<rect x="379.4" y="0.3" class="st0" width="15.1" height="31.5"/>
	</g>
	<g>
		<polygon class="st0" points="502.1,137.1 549.8,137.1 486.2,200.7 557.7,265.8 510.1,265.8 438.5,200.7 		"/>
	</g>
	<g>
		<polygon class="st0" points="443.3,168.9 443.3,137.1 475.1,137.1 		"/>
	</g>
	<g>
		<polygon class="st0" points="475.1,264.3 443.3,264.3 443.3,232.5 		"/>
	</g>
	<polygon class="st0" points="438.5,63.6 502.1,0 549.8,0 486.2,63.6 	"/>
	<g>
		<polygon class="st0" points="486.2,63.6 557.7,128.8 510.1,128.8 438.5,63.6 		"/>
	</g>
	<polygon class="st0" points="443.3,31.8 443.3,0 475.1,0 	"/>
	<polygon class="st0" points="475.1,127.2 443.3,127.2 443.3,95.4 	"/>
	<g>
		<polygon class="st0" points="479.7,122.6 447.9,122.6 447.9,90.8 		"/>
	</g>
	<path class="st0" d="M541.8,168.9l31.8-31.8h6.4v31.8H541.8z M580,264.3V137.1h31.8v127.2H580z M611.8,168.9v-31.8h43.7v31.8H611.8
		z"/>
	<path class="st0" d="M792.2,264.3V137.1H824v127.2H792.2z M935.3,288.1L832,200.7l31.8-31.8h-42.9v-31.8h122.4l-63.6,63.6
		L983,288.1H935.3z"/>
	<path class="st0" d="M130.3,9.6L155.7,35l-82.9,79.7H25.1L130.3,9.6z"/>
</g>
<polygon class="st0" points="118.9,127.5 115.7,114.8 258.8,114.8 271.6,127.5 "/>
<path class="st0" d="M28.3,130.7"/>
<path class="st0" d="M152.3,245.2"/>
<polygon class="st0" points="97.5,121.2 143.6,164.1 143.6,143.4 118.9,121.2 142.8,98.9 142.8,78.2 "/>
<polygon class="st0" points="474.5,171.3 504.9,140.9 527.7,140.9 497.3,171.3 "/>
<polygon class="st0" points="497.3,222.2 541.6,261.9 530.4,261.9 486.1,222.2 "/>
<g>
	<polygon class="st0" points="308.5,48.9 332.5,23.6 332.5,73 	"/>
</g>
<rect x="616" y="172.2" class="st0" width="39.5" height="12.4"/>
<rect x="616" y="188.2" class="st0" width="39.5" height="9.5"/>
<rect x="616" y="201.2" class="st0" width="39.5" height="7.3"/>
<rect x="616" y="214" class="st0" width="39.5" height="7.3"/>
<rect x="616" y="227.7" class="st0" width="39.5" height="4.6"/>
<rect x="616" y="240.2" class="st0" width="39.5" height="4"/>
<rect x="616" y="251.5" class="st0" width="39.5" height="3.1"/>
<rect x="616" y="263.6" class="st0" width="39.5" height="1.6"/>
<g>
	<g>
		<polygon class="st0" points="690.3,43.9 665.1,16.2 665.1,127.5 767,128.1 741.6,100.2 690.3,100.2 		"/>
	</g>
	<g>
		<polygon class="st0" points="750.7,83.7 777.4,113 777.4,1.7 675.5,1.1 702.2,30.5 750.7,30.5 		"/>
	</g>
	<g>
		<polygon class="st0" points="697.3,93.2 697.3,53.6 733.4,93.2 		"/>
	</g>
	<g>
		<polygon class="st0" points="708.1,37.5 741.4,37.5 741.4,74.1 		"/>
	</g>
	<g>
		<g>
			<polygon class="st0" points="690.3,222.4 665.1,250.1 665.1,138.8 767,138.2 741.6,166.1 690.3,166.1 			"/>
		</g>
		<g>
			<polygon class="st0" points="750.7,182.6 777.4,153.3 777.4,264.6 675.5,265.2 702.2,235.8 750.7,235.8 			"/>
		</g>
		<g>
			<polygon class="st0" points="697.3,173.1 697.3,212.7 733.4,173.1 			"/>
		</g>
		<g>
			<polygon class="st0" points="708.1,228.8 741.4,228.8 741.4,192.2 			"/>
		</g>
	</g>
</g>
<polygon class="st0" points="115.5,169.9 138,192.4 45,288.6 0,288.6 "/>
</svg>
